STARTFONT 2.1
FONT -baekmuk-gulim-bold-r-normal--16-160-75-75-M-160-ksx1001.1997-0
SIZE 160 75 75
FONTBOUNDINGBOX 16 16 0 -2
STARTPROPERTIES 18
FOUNDRY "baekmuk"
FAMILY_NAME "gulim"
WEIGHT_NAME "bold"
SLANT "r"
SETWIDTH_NAME "normal"
ADD_STYLE_NAME ""
PIXEL_SIZE 16
POINT_SIZE 160
RESOLUTION_X 75
RESOLUTION_Y 75
SPACING "M"
AVERAGE_WIDTH 160
CHARSET_REGISTRY "ksx1001.1997"
CHARSET_ENCODING "0"
COPYRIGHT "(c)Hwan Design Inc. and Mizi Research Inc."
DEFAULT_CHAR 8481
FONT_ASCENT 14
FONT_DESCENT 2
ENDPROPERTIES
CHARS 8309
STARTCHAR C020440
ENCODING 8480
SWIDTH 1600 0
DWIDTH 16 0
BBX 0 0 0 0
BITMAP
ENDCHAR
STARTCHAR C020441
ENCODING 8481
SWIDTH 1600 0
DWIDTH 16 0
BBX 0 0 0 0
BITMAP
ENDCHAR
STARTCHAR C020442
ENCODING 8482
SWIDTH 1600 0
DWIDTH 16 0
BBX 3 3 11 9
BITMAP
C0
E0
60
ENDCHAR
STARTCHAR C020443
ENCODING 8483
SWIDTH 1600 0
DWIDTH 16 0
BBX 4 4 10 9
BITMAP
60
F0
F0
60
ENDCHAR
STARTCHAR C020444
ENCODING 8484
SWIDTH 1600 0
DWIDTH 16 0
BBX 3 2 7 4
BITMAP
E0
E0
ENDCHAR
STARTCHAR C020445
ENCODING 8485
SWIDTH 1600 0
DWIDTH 16 0
BBX 9 2 4 4
BITMAP
C380
C380
ENDCHAR
STARTCHAR C020446
ENCODING 8486
SWIDTH 1600 0
DWIDTH 16 0
BBX 11 2 3 4
BITMAP
CC60
CC60
ENDCHAR
STARTCHAR C020447
ENCODING 8487
SWIDTH 1600 0
DWIDTH 16 0
BBX 6 1 5 9
BITMAP
CC
ENDCHAR
STARTCHAR C020450
ENCODING 8488
SWIDTH 1600 0
DWIDTH 16 0
BBX 5 6 6 2
BITMAP
78
78
78
D8
F0
30
ENDCHAR
STARTCHAR C020451
ENCODING 8489
SWIDTH 1600 0
DWIDTH 16 0
BBX 8 1 4 4
BITMAP
FF
ENDCHAR
STARTCHAR C020452
ENCODING 8490
SWIDTH 1600 0
DWIDTH 16 0
BBX 15 1 1 4
BITMAP
FFFE
ENDCHAR
STARTCHAR C020453
ENCODING 8491
SWIDTH 1600 0
DWIDTH 16 0
BBX 5 11 6 0
BITMAP
D8
D8
D8
D8
D8
D8
D8
D8
D8
D8
D8
ENDCHAR
STARTCHAR C020454
ENCODING 8492
SWIDTH 1600 0
DWIDTH 16 0
BBX 13 13 2 -1
BITMAP
C000
6000
3000
1800
0C00
0600
0700
0300
0180
00C0
0060
0030
0018
ENDCHAR
STARTCHAR C020455
ENCODING 8493
SWIDTH 1600 0
DWIDTH 16 0
BBX 9 3 4 3
BITMAP
7000
DD80
0F00
ENDCHAR
STARTCHAR C020456
ENCODING 8494
SWIDTH 1600 0
DWIDTH 16 0
BBX 3 4 10 8
BITMAP
60
C0
E0
E0
ENDCHAR
STARTCHAR C020457
ENCODING 8495
SWIDTH 1600 0
DWIDTH 16 0
BBX 2 3 4 9
BITMAP
C0
C0
C0
ENDCHAR
STARTCHAR C020460
ENCODING 8496
SWIDTH 1600 0
DWIDTH 16 0
BBX 5 4 9 8
BITMAP
18
D8
D8
C0
ENDCHAR
STARTCHAR C020461
ENCODING 8497
SWIDTH 1600 0
DWIDTH 16 0
BBX 6 3 2 9
BITMAP
FC
6C
D8
ENDCHAR
STARTCHAR C020462
ENCODING 8498
SWIDTH 1600 0
DWIDTH 16 0
BBX 4 14 10 -1
BITMAP
F0
C0
C0
C0
C0
C0
C0
C0
C0
C0
C0
C0
E0
30
ENDCHAR
STARTCHAR C020463
ENCODING 8499
SWIDTH 1600 0
DWIDTH 16 0
BBX 4 14 2 -1
BITMAP
F0
30
30
30
30
30
30
30
30
30
30
30
70
C0
ENDCHAR
STARTCHAR C020464
ENCODING 8500
SWIDTH 1600 0
DWIDTH 16 0
BBX 6 14 9 -1
BITMAP
0C
0C
18
30
60
60
C0
C0
C0
60
30
30
18
0C
ENDCHAR
STARTCHAR C020465
ENCODING 8501
SWIDTH 1600 0
DWIDTH 16 0
BBX 6 12 2 -1
BITMAP
C0
60
60
30
18
18
0C
18
30
30
60
C0
ENDCHAR
STARTCHAR C020466
ENCODING 8502
SWIDTH 1600 0
DWIDTH 16 0
BBX 7 14 8 -1
BITMAP
06
1E
3C
3C
78
78
F0
F0
70
78
38
3C
1C
1E
ENDCHAR
STARTCHAR C020467
ENCODING 8503
SWIDTH 1600 0
DWIDTH 16 0
BBX 6 14 2 -1
BITMAP
60
F0
F0
78
78
3C
3C
1C
3C
78
78
F0
F0
60
ENDCHAR
STARTCHAR C020470
ENCODING 8504
SWIDTH 1600 0
DWIDTH 16 0
BBX 6 8 10 5
BITMAP
FC
C0
C0
C0
C0
C0
C0
C0
ENDCHAR
STARTCHAR C020471
ENCODING 8505
SWIDTH 1600 0
DWIDTH 16 0
BBX 6 8 1 -1
BITMAP
0C
0C
0C
0C
0C
0C
0C
FC
ENDCHAR
STARTCHAR C020472
ENCODING 8506
SWIDTH 1600 0
DWIDTH 16 0
BBX 6 8 9 5
BITMAP
FC
CC
FC
E0
E0
E0
E0
E0
ENDCHAR
STARTCHAR C020473
ENCODING 8507
SWIDTH 1600 0
DWIDTH 16 0
BBX 6 7 1 -1
BITMAP
3C
3C
3C
3C
3C
EC
FC
ENDCHAR
STARTCHAR C020474
ENCODING 8508
SWIDTH 1600 0
DWIDTH 16 0
BBX 4 14 10 -1
BITMAP
F0
E0
E0
C0
C0
C0
C0
C0
C0
C0
C0
E0
E0
F0
ENDCHAR
STARTCHAR C020475
ENCODING 8509
SWIDTH 1600 0
DWIDTH 16 0
BBX 4 14 2 -1
BITMAP
F0
70
70
30
30
30
30
30
30
30
30
70
70
F0
ENDCHAR
STARTCHAR C020476
ENCODING 8510
SWIDTH 1600 0
DWIDTH 16 0
BBX 10 11 3 0
BITMAP
0C00
0C00
0C00
0C00
0C00
FFC0
0C00
0C00
0C00
0C00
FFC0
ENDCHAR
STARTCHAR C020477
ENCODING 8511
SWIDTH 1600 0
DWIDTH 16 0
BBX 10 9 3 0
BITMAP
60C0
3180
1B00
0E00
0E00
1E00
3300
6180
E0C0
ENDCHAR
STARTCHAR C020500
ENCODING 8512
SWIDTH 1600 0
DWIDTH 16 0
BBX 11 9 3 0
BITMAP
0C00
0C00
0000
0000
FFE0
0000
0000
0C00
0C00
ENDCHAR
STARTCHAR C020501
ENCODING 8513
SWIDTH 1600 0
DWIDTH 16 0
BBX 11 9 3 1
BITMAP
1800
1800
0C00
FFE0
0C00
0C00
FFE0
0600
0600
ENDCHAR
STARTCHAR C020502
ENCODING 8514
SWIDTH 1600 0
DWIDTH 16 0
BBX 11 10 3 0
BITMAP
0060
01C0
0700
3C00
E000
3800
0E00
03C0
0060
FFE0
ENDCHAR
STARTCHAR C020503
ENCODING 8515
SWIDTH 1600 0
DWIDTH 16 0
BBX 11 9 3 0
BITMAP
7000
1C00
0700
01C0
0780
1C00
7000
C000
FFE0
ENDCHAR
STARTCHAR C020504
ENCODING 8516
SWIDTH 1600 0
DWIDTH 16 0
BBX 13 6 2 2
BITMAP
7CF0
EF98
C718
C718
EFB8
7DF0
ENDCHAR
STARTCHAR C020505
ENCODING 8517
SWIDTH 1600 0
DWIDTH 16 0
BBX 8 8 4 1
BITMAP
18
18
00
00
00
00
C3
C3
ENDCHAR
STARTCHAR C020506
ENCODING 8518
SWIDTH 1600 0
DWIDTH 16 0
BBX 4 4 2 9
BITMAP
60
F0
F0
60
ENDCHAR
STARTCHAR C020507
ENCODING 8519
SWIDTH 1600 0
DWIDTH 16 0
BBX 3 3 2 9
BITMAP
60
C0
C0
ENDCHAR
STARTCHAR C020510
ENCODING 8520
SWIDTH 1600 0
DWIDTH 16 0
BBX 6 5 2 8
BITMAP
0C
7C
78
F0
30
ENDCHAR
STARTCHAR C020511
ENCODING 8521
SWIDTH 1600 0
DWIDTH 16 0
BBX 11 11 3 0
BITMAP
FF80
DCC0
7860
3060
3000
3000
3000
3060
1860
1CC0
0F80
ENDCHAR
STARTCHAR C020512
ENCODING 8522
SWIDTH 1600 0
DWIDTH 16 0
BBX 9 12 4 0
BITMAP
3C00
3C00
1800
1C00
1C00
3C00
3600
6600
7E00
6300
C300
C180
ENDCHAR
STARTCHAR C020513
ENCODING 8523
SWIDTH 1600 0
DWIDTH 16 0
BBX 13 13 2 -1
BITMAP
0018
1FF0
30E0
3060
61E0
6300
6300
6600
6C60
3860
38C0
6F80
C000
ENDCHAR
STARTCHAR C020514
ENCODING 8524
SWIDTH 1600 0
DWIDTH 16 0
BBX 11 11 3 0
BITMAP
0F80
0CC0
18C0
18C0
1800
7FC0
0C00
0C00
7C60
DCC0
7F80
ENDCHAR
STARTCHAR C020515
ENCODING 8525
SWIDTH 1600 0
DWIDTH 16 0
BBX 10 12 3 0
BITMAP
6180
6180
3300
FFC0
1E00
1E00
FFC0
0C00
0C00
0C00
0C00
0C00
ENDCHAR
STARTCHAR C020516
ENCODING 8526
SWIDTH 1600 0
DWIDTH 16 0
BBX 8 14 4 -1
BITMAP
18
38
3C
7E
DE
DB
18
18
38
7C
66
66
66
3C
ENDCHAR
STARTCHAR C020517
ENCODING 8527
SWIDTH 1600 0
DWIDTH 16 0
BBX 10 14 3 -1
BITMAP
1F00
3B80
3180
3180
3B80
1E00
0C00
0C00
FFC0
0C00
0C00
0C00
0C00
0C00
ENDCHAR
STARTCHAR C020520
ENCODING 8528
SWIDTH 1600 0
DWIDTH 16 0
BBX 10 9 3 0
BITMAP
0180
0300
0600
0C00
1800
3800
3000
6000
FFC0
ENDCHAR
STARTCHAR C020521
ENCODING 8529
SWIDTH 1600 0
DWIDTH 16 0
BBX 11 9 3 0
BITMAP
0C00
0C00
0C00
0C00
0C00
0C00
0C00
0C00
FFE0
ENDCHAR
STARTCHAR C020522
ENCODING 8530
SWIDTH 1600 0
DWIDTH 16 0
BBX 10 3 3 8
BITMAP
3F00
61C0
C0C0
ENDCHAR
STARTCHAR C020523
ENCODING 8531
SWIDTH 1600 0
DWIDTH 16 0
BBX 8 11 4 0
BITMAP
3E
66
03
03
1B
3F
66
66
C6
6C
7C
ENDCHAR
STARTCHAR C020524
ENCODING 8532
SWIDTH 1600 0
DWIDTH 16 0
BBX 11 9 3 1
BITMAP
FFE0
C0C0
60C0
6180
3180
3300
1B00
0E00
0E00
ENDCHAR
STARTCHAR C020525
ENCODING 8533
SWIDTH 1600 0
DWIDTH 16 0
BBX 11 6 3 2
BITMAP
FFE0
0000
0000
FFE0
0000
FFE0
ENDCHAR
STARTCHAR C020526
ENCODING 8534
SWIDTH 1600 0
DWIDTH 16 0
BBX 11 9 3 0
BITMAP
3000
3000
FFE0
0000
0000
FFE0
0000
0180
0180
ENDCHAR
STARTCHAR C020527
ENCODING 8535
SWIDTH 1600 0
DWIDTH 16 0
BBX 7 13 5 -1
BITMAP
78
CC
CC
E0
78
CE
E6
76
3C
0C
66
66
3C
ENDCHAR
STARTCHAR C020530
ENCODING 8536
SWIDTH 1600 0
DWIDTH 16 0
BBX 10 10 3 0
BITMAP
C000
6CC0
3D80
1B00
7F80
6D80
1E00
3F00
3D80
60C0
ENDCHAR
STARTCHAR C020531
ENCODING 8537
SWIDTH 1600 0
DWIDTH 16 0
BBX 13 13 2 -1
BITMAP
0600
0600
0700
0F00
FDF8
6030
30E0
18C0
30C0
37C0
3DC0
70E0
6060
ENDCHAR
STARTCHAR C020532
ENCODING 8538
SWIDTH 1600 0
DWIDTH 16 0
BBX 12 11 2 -1
BITMAP
0600
0700
0F00
FFF0
7FE0
3FC0
1F80
1F80
1FC0
39C0
3000
ENDCHAR
STARTCHAR C020533
ENCODING 8539
SWIDTH 1600 0
DWIDTH 16 0
BBX 12 12 2 -1
BITMAP
1F80
30C0
6060
C030
C030
C030
C030
C030
C030
6060
30C0
1F80
ENDCHAR
STARTCHAR C020534
ENCODING 8540
SWIDTH 1600 0
DWIDTH 16 0
BBX 12 12 2 -1
BITMAP
1F80
3FC0
7FE0
7FF0
FFF0
FFF0
FFF0
FFF0
7FF0
7FE0
3FC0
1F80
ENDCHAR
STARTCHAR C020535
ENCODING 8541
SWIDTH 1600 0
DWIDTH 16 0
BBX 12 12 2 -1
BITMAP
1F80
30C0
6F60
D9B0
F0F0
F0F0
F0F0
F0F0
D9B0
6F60
30C0
1F80
ENDCHAR
STARTCHAR C020536
ENCODING 8542
SWIDTH 1600 0
DWIDTH 16 0
BBX 13 13 2 -1
BITMAP
0700
0D80
18C0
3060
6060
C030
C018
6030
3060
30C0
1980
0F00
0600
ENDCHAR
STARTCHAR C020537
ENCODING 8543
SWIDTH 1600 0
DWIDTH 16 0
BBX 13 14 2 -1
BITMAP
0600
0F00
0F80
1FC0
3FE0
7FF0
FFF8
FFF8
7FF0
3FE0
1FC0
0F80
0F00
0600
ENDCHAR
STARTCHAR C020540
ENCODING 8544
SWIDTH 1600 0
DWIDTH 16 0
BBX 11 12 3 -1
BITMAP
FFE0
0060
0060
0060
0060
0060
0060
0060
0060
0060
0060
FFE0
ENDCHAR
STARTCHAR C020541
ENCODING 8545
SWIDTH 1600 0
DWIDTH 16 0
BBX 11 12 3 -1
BITMAP
FFE0
FFE0
FFE0
FFE0
FFE0
FFE0
FFE0
FFE0
FFE0
FFE0
FFE0
FFE0
ENDCHAR
STARTCHAR C020542
ENCODING 8546
SWIDTH 1600 0
DWIDTH 16 0
BBX 12 10 2 0
BITMAP
0600
0700
0F00
0D80
1980
30C0
3060
6060
6030
FFF0
ENDCHAR
STARTCHAR C020543
ENCODING 8547
SWIDTH 1600 0
DWIDTH 16 0
BBX 12 10 2 0
BITMAP
0600
0700
0F00
0F80
1F80
1FC0
3FE0
7FE0
7FF0
FFF0
ENDCHAR
STARTCHAR C020544
ENCODING 8548
SWIDTH 1600 0
DWIDTH 16 0
BBX 12 10 2 0
BITMAP
FFF0
6030
6060
3060
30C0
1980
0D80
0F00
0700
0600
ENDCHAR
STARTCHAR C020545
ENCODING 8549
SWIDTH 1600 0
DWIDTH 16 0
BBX 12 9 2 1
BITMAP
FFF0
7FF0
7FE0
3FC0
1FC0
1F80
0F80
0700
0600
ENDCHAR
STARTCHAR C020546
ENCODING 8550
SWIDTH 1600 0
DWIDTH 16 0
BBX 14 5 1 2
BITMAP
0030
0018
FFFC
0030
0060
ENDCHAR
STARTCHAR C020547
ENCODING 8551
SWIDTH 1600 0
DWIDTH 16 0
BBX 13 5 2 2
BITMAP
3000
6000
FFF8
3000
1800
ENDCHAR
STARTCHAR C020550
ENCODING 8552
SWIDTH 1600 0
DWIDTH 16 0
BBX 6 12 6 -1
BITMAP
30
78
FC
30
30
30
30
30
30
30
30
30
ENDCHAR
STARTCHAR C020551
ENCODING 8553
SWIDTH 1600 0
DWIDTH 16 0
BBX 6 12 6 -1
BITMAP
30
30
30
30
30
30
30
30
30
FC
78
30
ENDCHAR
STARTCHAR C020552
ENCODING 8554
SWIDTH 1600 0
DWIDTH 16 0
BBX 12 4 2 3
BITMAP
0060
6030
FFF0
6060
ENDCHAR
STARTCHAR C020553
ENCODING 8555
SWIDTH 1600 0
DWIDTH 16 0
BBX 11 4 3 3
BITMAP
FFE0
0000
0000
FFE0
ENDCHAR
STARTCHAR C020554
ENCODING 8556
SWIDTH 1600 0
DWIDTH 16 0
BBX 12 11 3 -1
BITMAP
0360
0EC0
1B80
3600
EC00
D800
6E00
3B00
0D80
07E0
0330
ENDCHAR
STARTCHAR C020555
ENCODING 8557
SWIDTH 1600 0
DWIDTH 16 0
BBX 12 11 2 -1
BITMAP
DC00
7600
3B80
0DC0
0760
03B0
07E0
0D80
1B00
7E00
D800
ENDCHAR
STARTCHAR C020556
ENCODING 8558
SWIDTH 1600 0
DWIDTH 16 0
BBX 14 13 2 -1
BITMAP
03FC
0300
0300
0600
0600
0600
0C00
0C00
0C00
F800
7800
3800
3000
ENDCHAR
STARTCHAR C020557
ENCODING 8559
SWIDTH 1600 0
DWIDTH 16 0
BBX 12 6 2 2
BITMAP
79E0
C330
C630
C630
CF30
79E0
ENDCHAR
STARTCHAR C020560
ENCODING 8560
SWIDTH 1600 0
DWIDTH 16 0
BBX 11 6 3 2
BITMAP
79E0
EF60
C600
C600
CF60
79E0
ENDCHAR
STARTCHAR C020561
ENCODING 8561
SWIDTH 1600 0
DWIDTH 16 0
BBX 8 8 4 0
BITMAP
C3
C3
00
00
00
00
18
18
ENDCHAR
STARTCHAR C020562
ENCODING 8562
SWIDTH 1600 0
DWIDTH 16 0
BBX 7 12 5 0
BITMAP
1C
1E
30
30
30
30
30
30
30
30
60
E0
ENDCHAR
STARTCHAR C020563
ENCODING 8563
SWIDTH 1600 0
DWIDTH 16 0
BBX 11 12 3 0
BITMAP
1DC0
1FE0
3300
3300
3300
3300
3300
3300
3300
3300
FE00
CE00
ENDCHAR
STARTCHAR C020564
ENCODING 8564
SWIDTH 1600 0
DWIDTH 16 0
BBX 12 9 3 0
BITMAP
3FF0
6000
C000
C000
FFE0
C000
C000
6000
3FE0
ENDCHAR
STARTCHAR C020565
ENCODING 8565
SWIDTH 1600 0
DWIDTH 16 0
BBX 12 9 2 0
BITMAP
FFC0
0060
0030
0030
FFF0
0030
0030
0060
FFC0
ENDCHAR
STARTCHAR C020566
ENCODING 8566
SWIDTH 1600 0
DWIDTH 16 0
BBX 11 9 3 0
BITMAP
7F80
C000
C000
C000
C000
7000
1FC0
0000
FFE0
ENDCHAR
STARTCHAR C020567
ENCODING 8567
SWIDTH 1600 0
DWIDTH 16 0
BBX 11 9 3 0
BITMAP
7F80
00C0
00C0
00C0
00C0
0380
FE00
0000
FFE0
ENDCHAR
STARTCHAR C020570
ENCODING 8568
SWIDTH 1600 0
DWIDTH 16 0
BBX 12 9 3 0
BITMAP
1FF0
7000
E000
C000
C000
C000
C000
6000
3FF0
ENDCHAR
STARTCHAR C020571
ENCODING 8569
SWIDTH 1600 0
DWIDTH 16 0
BBX 12 9 2 0
BITMAP
FFC0
0060
0030
0030
0030
0030
0030
0060
FFC0
ENDCHAR
STARTCHAR C020572
ENCODING 8570
SWIDTH 1600 0
DWIDTH 16 0
BBX 9 11 4 0
BITMAP
C180
C180
C180
C180
C180
C180
C180
C180
C180
6300
3E00
ENDCHAR
STARTCHAR C020573
ENCODING 8571
SWIDTH 1600 0
DWIDTH 16 0
BBX 9 11 4 0
BITMAP
7F00
6300
C180
C180
C180
C180
C180
C180
C180
C180
C180
ENDCHAR
STARTCHAR C020574
ENCODING 8572
SWIDTH 1600 0
DWIDTH 16 0
BBX 10 9 3 0
BITMAP
0E00
0E00
1B00
1B00
3180
3180
60C0
60C0
C000
ENDCHAR
STARTCHAR C020575
ENCODING 8573
SWIDTH 1600 0
DWIDTH 16 0
BBX 10 9 3 1
BITMAP
C000
C0C0
60C0
6180
3180
3300
1B00
1E00
0E00
ENDCHAR
STARTCHAR C020576
ENCODING 8574
SWIDTH 1600 0
DWIDTH 16 0
BBX 10 6 3 2
BITMAP
FFC0
00C0
00C0
00C0
00C0
00C0
ENDCHAR
STARTCHAR C020577
ENCODING 8575
SWIDTH 1600 0
DWIDTH 16 0
BBX 0 0 0 0
BITMAP
ENDCHAR
STARTCHAR C021041
ENCODING 8737
SWIDTH 1600 0
DWIDTH 16 0
BBX 14 8 1 1
BITMAP
0060
0030
FFF0
0018
000C
FFF8
0030
0060
ENDCHAR
STARTCHAR C021042
ENCODING 8738
SWIDTH 1600 0
DWIDTH 16 0
BBX 12 8 2 1
BITMAP
1800
18C0
3FE0
6030
C030
6030
3FE0
18C0
ENDCHAR
STARTCHAR C021043
ENCODING 8739
SWIDTH 1600 0
DWIDTH 16 0
BBX 11 11 3 1
BITMAP
C060
C060
60C0
60C0
3F80
3180
3180
1B00
1B00
0E00
0E00
ENDCHAR
STARTCHAR C021044
ENCODING 8740
SWIDTH 1600 0
DWIDTH 16 0
BBX 8 10 4 0
BITMAP
FF
03
03
03
FF
03
03
03
03
FF
ENDCHAR
STARTCHAR C021045
ENCODING 8741
SWIDTH 1600 0
DWIDTH 16 0
BBX 2 1 7 11
BITMAP
C0
ENDCHAR
STARTCHAR C021046
ENCODING 8742
SWIDTH 1600 0
DWIDTH 16 0
BBX 9 2 4 10
BITMAP
7980
CF00
ENDCHAR
STARTCHAR C021047
ENCODING 8743
SWIDTH 1600 0
DWIDTH 16 0
BBX 5 2 6 10
BITMAP
D8
F0
ENDCHAR
STARTCHAR C021050
ENCODING 8744
SWIDTH 1600 0
DWIDTH 16 0
BBX 7 3 5 10
BITMAP
06
CC
7C
ENDCHAR
STARTCHAR C021051
ENCODING 8745
SWIDTH 1600 0
DWIDTH 16 0
BBX 4 1 6 11
BITMAP
F0
ENDCHAR
STARTCHAR C021052
ENCODING 8746
SWIDTH 1600 0
DWIDTH 16 0
BBX 3 3 7 9
BITMAP
E0
60
E0
ENDCHAR
STARTCHAR C021053
ENCODING 8747
SWIDTH 1600 0
DWIDTH 16 0
BBX 2 2 7 10
BITMAP
C0
C0
ENDCHAR
STARTCHAR C021054
ENCODING 8748
SWIDTH 1600 0
DWIDTH 16 0
BBX 4 3 6 -1
BITMAP
30
30
F0
ENDCHAR
STARTCHAR C021055
ENCODING 8749
SWIDTH 1600 0
DWIDTH 16 0
BBX 4 3 7 -1
BITMAP
C0
F0
E0
ENDCHAR
STARTCHAR C021056
ENCODING 8750
SWIDTH 1600 0
DWIDTH 16 0
BBX 2 11 7 0
BITMAP
C0
C0
00
C0
C0
C0
C0
C0
C0
C0
C0
ENDCHAR
STARTCHAR C021057
ENCODING 8751
SWIDTH 1600 0
DWIDTH 16 0
BBX 7 11 5 0
BITMAP
18
18
00
18
18
38
E0
C6
C6
C6
7C
ENDCHAR
STARTCHAR C021060
ENCODING 8752
SWIDTH 1600 0
DWIDTH 16 0
BBX 3 7 7 2
BITMAP
E0
C0
00
00
00
C0
E0
ENDCHAR
STARTCHAR C021061
ENCODING 8753
SWIDTH 1600 0
DWIDTH 16 0
BBX 7 12 5 0
BITMAP
0E
1E
18
30
38
78
78
38
30
30
F0
E0
ENDCHAR
STARTCHAR C021062
ENCODING 8754
SWIDTH 1600 0
DWIDTH 16 0
BBX 12 11 2 0
BITMAP
FFF0
6030
3030
1830
0E00
0600
0C00
1830
3030
6030
FFF0
ENDCHAR
STARTCHAR C021063
ENCODING 8755
SWIDTH 1600 0
DWIDTH 16 0
BBX 13 11 2 0
BITMAP
FFF8
3060
3060
3060
3060
3060
3060
3060
3060
3060
3060
ENDCHAR
STARTCHAR C021064
ENCODING 8756
SWIDTH 1600 0
DWIDTH 16 0
BBX 10 10 3 0
BITMAP
FFC0
6180
6180
C0C0
C0C0
C0C0
C0C0
6180
6180
FFC0
ENDCHAR
STARTCHAR C021065
ENCODING 8757
SWIDTH 1600 0
DWIDTH 16 0
BBX 12 12 2 0
BITMAP
07F0
F600
F600
6600
0600
07E0
0600
0600
0600
0600
0600
0600
ENDCHAR
STARTCHAR C021066
ENCODING 8758
SWIDTH 1600 0
DWIDTH 16 0
BBX 13 14 2 -1
BITMAP
70C0
D8C0
D980
DB00
DB00
DE00
7C00
0F70
1DD8
3DD8
3DD8
6DD8
CDD8
C770
ENDCHAR
STARTCHAR C021067
ENCODING 8759
SWIDTH 1600 0
DWIDTH 16 0
BBX 9 12 4 -1
BITMAP
0180
0380
0F80
1980
7180
C180
E180
3180
1D80
0F80
0380
0180
ENDCHAR
STARTCHAR C021070
ENCODING 8760
SWIDTH 1600 0
DWIDTH 16 0
BBX 9 12 4 -1
BITMAP
0180
0380
0F80
1F80
3F80
FF80
FF80
7F80
1F80
0F80
0380
0180
ENDCHAR
STARTCHAR C021071
ENCODING 8761
SWIDTH 1600 0
DWIDTH 16 0
BBX 9 12 4 -1
BITMAP
C000
E000
F800
CC00
C600
C380
C380
C600
DC00
F800
E000
C000
ENDCHAR
STARTCHAR C021072
ENCODING 8762
SWIDTH 1600 0
DWIDTH 16 0
BBX 9 11 4 -1
BITMAP
E000
F000
FC00
FE00
FF00
FF80
FE00
FC00
F000
E000
C000
ENDCHAR
STARTCHAR C021073
ENCODING 8763
SWIDTH 1600 0
DWIDTH 16 0
BBX 11 14 3 -1
BITMAP
0400
0E00
1B00
1B00
3180
60C0
60C0
C060
C060
C060
7BC0
3B80
0A00
1F00
ENDCHAR
STARTCHAR C021074
ENCODING 8764
SWIDTH 1600 0
DWIDTH 16 0
BBX 11 13 3 -1
BITMAP
0400
0E00
1F00
3F80
7F80
7FC0
FFC0
FFE0
FFE0
FFE0
7FC0
0E00
1F00
ENDCHAR
STARTCHAR C021075
ENCODING 8765
SWIDTH 1600 0
DWIDTH 16 0
BBX 11 12 3 -1
BITMAP
7BC0
EEE0
CE60
CC60
C060
C060
60C0
60C0
3180
1B00
1B00
0E00
ENDCHAR
STARTCHAR C021076
ENCODING 8766
SWIDTH 1600 0
DWIDTH 16 0
BBX 12 14 2 -1
BITMAP
3DE0
7FF0
FFF0
FFF0
FFF0
7FF0
7FF0
7FE0
3FE0
1FC0
1F80
0F80
0700
0600
ENDCHAR
STARTCHAR C021077
ENCODING 8767
SWIDTH 1600 0
DWIDTH 16 0
BBX 13 13 2 -1
BITMAP
0F80
1DC0
18C0
18C0
0DC0
7DF0
DD98
C018
C018
EFB8
7FF0
0F00
0F80
ENDCHAR
STARTCHAR C021100
ENCODING 8768
SWIDTH 1600 0
DWIDTH 16 0
BBX 13 13 2 -1
BITMAP
0F00
1F80
1F80
1F80
0F80
7FF0
FFF8
FFF8
FFF8
FFF0
3760
0700
0F00
ENDCHAR
STARTCHAR C021101
ENCODING 8769
SWIDTH 1600 0
DWIDTH 16 0
BBX 13 13 2 -1
BITMAP
1FC0
38E0
6030
7FB0
FFD8
FFD8
FFF8
FFD8
FFD8
7FF0
6FB0
38E0
1FC0
ENDCHAR
STARTCHAR C021102
ENCODING 8770
SWIDTH 1600 0
DWIDTH 16 0
BBX 13 14 2 -1
BITMAP
0600
0F00
1F80
3FC0
7FE0
DFF0
FFF8
FFF8
7FB0
3FE0
1FC0
1D80
0F00
0600
ENDCHAR
STARTCHAR C021103
ENCODING 8771
SWIDTH 1600 0
DWIDTH 16 0
BBX 12 12 2 -1
BITMAP
FFF0
C030
C030
DFB0
DFB0
DFB0
DFB0
DFB0
DFB0
C030
C030
FFF0
ENDCHAR
STARTCHAR C021104
ENCODING 8772
SWIDTH 1600 0
DWIDTH 16 0
BBX 12 13 3 -1
BITMAP
1F80
3DC0
7C60
FC60
FC30
FC30
FC30
FC30
FC30
FC60
7C60
3DC0
1F80
ENDCHAR
STARTCHAR C021105
ENCODING 8773
SWIDTH 1600 0
DWIDTH 16 0
BBX 12 13 2 -1
BITMAP
1F80
3BC0
63E0
63F0
C3F0
C3F0
C3F0
C3F0
C3F0
E3F0
63E0
3BC0
1F80
ENDCHAR
STARTCHAR C021106
ENCODING 8774
SWIDTH 1600 0
DWIDTH 16 0
BBX 12 12 2 -1
BITMAP
FFF0
F870
C030
FC30
F870
FC30
F870
FC30
F870
FC30
C030
FFF0
ENDCHAR
STARTCHAR C021107
ENCODING 8775
SWIDTH 1600 0
DWIDTH 16 0
BBX 12 12 2 -1
BITMAP
FFF0
C030
FFF0
C030
C030
FFF0
C030
C030
FFF0
C030
C030
FFF0
ENDCHAR
STARTCHAR C021110
ENCODING 8776
SWIDTH 1600 0
DWIDTH 16 0
BBX 12 12 2 -1
BITMAP
FFF0
DB70
DB70
DB70
DB70
DB70
DB70
DB70
DB70
DB70
DB70
FFF0
ENDCHAR
STARTCHAR C021111
ENCODING 8777
SWIDTH 1600 0
DWIDTH 16 0
BBX 12 12 2 -1
BITMAP
FFF0
C670
CCF0
D9B0
F330
E630
CC70
D8F0
F1B0
E330
C630
FFF0
ENDCHAR
STARTCHAR C021112
ENCODING 8778
SWIDTH 1600 0
DWIDTH 16 0
BBX 12 12 2 -1
BITMAP
FFF0
E630
F330
D9B0
D8F0
CC70
E630
F330
D9B0
CCF0
C670
FFF0
ENDCHAR
STARTCHAR C021113
ENCODING 8779
SWIDTH 1600 0
DWIDTH 16 0
BBX 11 12 3 -1
BITMAP
FFE0
DB60
FFE0
DB60
DB60
FFE0
DB60
DB60
FFE0
DB60
DB60
FFE0
ENDCHAR
STARTCHAR C021114
ENCODING 8780
SWIDTH 1600 0
DWIDTH 16 0
BBX 12 12 2 -1
BITMAP
FFF0
EF70
FBF0
F9B0
EFF0
C670
E730
FDF0
D9B0
FDF0
E770
FFF0
ENDCHAR
STARTCHAR C021115
ENCODING 8781
SWIDTH 1600 0
DWIDTH 16 0
BBX 13 12 2 -1
BITMAP
0300
1F80
1F80
1F80
1BC0
1BC0
3BE0
7BF8
DF98
D818
7070
1FC0
ENDCHAR
STARTCHAR C021116
ENCODING 8782
SWIDTH 1600 0
DWIDTH 16 0
BBX 15 11 1 -1
BITMAP
0FE0
7E3C
FFFE
FFE6
EFFC
1C70
3C78
3C78
36DC
339C
1FF0
ENDCHAR
STARTCHAR C021117
ENCODING 8783
SWIDTH 1600 0
DWIDTH 16 0
BBX 13 10 2 0
BITMAP
1FC0
7FF0
F9F8
FFF8
D8C0
30C0
30E0
70F0
79F0
7FF0
ENDCHAR
STARTCHAR C021120
ENCODING 8784
SWIDTH 1600 0
DWIDTH 16 0
BBX 14 7 1 2
BITMAP
07C0
FDFC
F73C
1F9C
1FDC
0FFC
03C0
ENDCHAR
STARTCHAR C021121
ENCODING 8785
SWIDTH 1600 0
DWIDTH 16 0
BBX 13 7 2 2
BITMAP
1F00
FDF8
E778
DFC0
DFC0
EF00
3E00
ENDCHAR
STARTCHAR C021122
ENCODING 8786
SWIDTH 1600 0
DWIDTH 16 0
BBX 9 14 3 -1
BITMAP
7F80
E780
C780
C780
E780
3F80
0780
0780
0780
0780
0780
0780
0780
0180
ENDCHAR
STARTCHAR C021123
ENCODING 8787
SWIDTH 1600 0
DWIDTH 16 0
BBX 8 14 4 -1
BITMAP
18
18
18
FF
18
18
18
18
18
18
18
18
18
18
ENDCHAR
STARTCHAR C021124
ENCODING 8788
SWIDTH 1600 0
DWIDTH 16 0
BBX 8 14 4 -1
BITMAP
18
18
FF
18
18
FF
18
18
18
18
18
18
18
18
ENDCHAR
STARTCHAR C021125
ENCODING 8789
SWIDTH 1600 0
DWIDTH 16 0
BBX 4 11 6 0
BITMAP
60
F0
60
60
60
60
60
60
60
F0
60
ENDCHAR
STARTCHAR C021126
ENCODING 8790
SWIDTH 1600 0
DWIDTH 16 0
BBX 9 9 4 0
BITMAP
0780
0380
0780
0E80
1C00
3800
7000
E000
C000
ENDCHAR
STARTCHAR C021127
ENCODING 8791
SWIDTH 1600 0
DWIDTH 16 0
BBX 9 9 4 0
BITMAP
0180
0380
0700
0E00
1C00
B800
F000
E000
F000
ENDCHAR
STARTCHAR C021130
ENCODING 8792
SWIDTH 1600 0
DWIDTH 16 0
BBX 9 9 4 0
BITMAP
F000
E000
F000
B800
1C00
0E00
0700
0380
0180
ENDCHAR
STARTCHAR C021131
ENCODING 8793
SWIDTH 1600 0
DWIDTH 16 0
BBX 9 9 4 0
BITMAP
C000
E000
7000
3800
1C00
0E80
0780
0380
0780
ENDCHAR
STARTCHAR C021132
ENCODING 8794
SWIDTH 1600 0
DWIDTH 16 0
BBX 5 7 6 0
BITMAP
70
D8
18
18
30
30
E0
ENDCHAR
STARTCHAR C021133
ENCODING 8795
SWIDTH 1600 0
DWIDTH 16 0
BBX 4 13 6 -1
BITMAP
30
30
30
30
30
30
30
30
30
30
F0
F0
E0
ENDCHAR
STARTCHAR C021134
ENCODING 8796
SWIDTH 1600 0
DWIDTH 16 0
BBX 8 12 4 -1
BITMAP
38
3C
3E
37
33
33
36
36
30
F0
F0
E0
ENDCHAR
STARTCHAR C021135
ENCODING 8797
SWIDTH 1600 0
DWIDTH 16 0
BBX 11 12 3 -1
BITMAP
3FE0
3060
3060
3FE0
3060
3060
3060
3060
3060
70E0
F1E0
E1C0
ENDCHAR
STARTCHAR C021136
ENCODING 8798
SWIDTH 1600 0
DWIDTH 16 0
BBX 12 13 2 -1
BITMAP
1F80
30C0
6060
79B0
DB30
DE10
FEF0
DE30
DB30
D9B0
6060
30C0
1F80
ENDCHAR
STARTCHAR C021137
ENCODING 8799
SWIDTH 1600 0
DWIDTH 16 0
BBX 14 12 1 -1
BITMAP
3030
7FF8
6398
C7CC
DCFC
C00C
FFFC
C30C
C30C
6318
6330
3330
ENDCHAR
STARTCHAR C021140
ENCODING 8800
SWIDTH 1600 0
DWIDTH 16 0
BBX 15 11 1 0
BITMAP
C600
E600
E600
F6F0
F6D8
DF8C
DF8C
CF8C
CF8C
C6D8
C6FE
ENDCHAR
STARTCHAR C021141
ENCODING 8801
SWIDTH 1600 0
DWIDTH 16 0
BBX 15 11 1 0
BITMAP
3C00
6E00
C600
C0F8
C0D8
C18C
C18C
C78C
C78C
6ED8
7CFE
ENDCHAR
STARTCHAR C021142
ENCODING 8802
SWIDTH 1600 0
DWIDTH 16 0
BBX 12 11 2 0
BITMAP
FF30
3330
3330
3370
33F0
33F0
33F0
33F0
33F0
33F0
33F0
ENDCHAR
STARTCHAR C021143
ENCODING 8803
SWIDTH 1600 0
DWIDTH 16 0
BBX 15 8 1 0
BITMAP
71F0
D9F8
D9F8
79F8
D9F8
D9F8
D9F8
7FFE
ENDCHAR
STARTCHAR C021144
ENCODING 8804
SWIDTH 1600 0
DWIDTH 16 0
BBX 15 10 1 -1
BITMAP
F9F0
FDF8
CDF8
CDF8
CDF8
CDF8
FDF8
FFFE
C000
C000
ENDCHAR
STARTCHAR C021145
ENCODING 8805
SWIDTH 1600 0
DWIDTH 16 0
BBX 12 11 2 0
BITMAP
FC30
3030
3030
37B0
3DB0
38F0
3FF0
3830
38F0
3CF0
37B0
ENDCHAR
STARTCHAR C021441
ENCODING 8993
SWIDTH 1600 0
DWIDTH 16 0
BBX 3 13 7 -1
BITMAP
60
60
60
60
60
60
60
60
60
60
00
C0
C0
ENDCHAR
STARTCHAR C021442
ENCODING 8994
SWIDTH 1600 0
DWIDTH 16 0
BBX 7 4 5 8
BITMAP
36
3C
78
C0
ENDCHAR
STARTCHAR C021443
ENCODING 8995
SWIDTH 1600 0
DWIDTH 16 0
BBX 12 12 2 -1
BITMAP
0CC0
0CC0
0CC0
7FF0
18C0
1980
1980
1980
FFE0
1980
3180
3000
ENDCHAR
STARTCHAR C021444
ENCODING 8996
SWIDTH 1600 0
DWIDTH 16 0
BBX 11 13 3 -1
BITMAP
1B00
3F80
FBE0
DB60
DB00
7B00
1FC0
1B60
1B60
DB60
7BC0
3F80
1B00
ENDCHAR
STARTCHAR C021445
ENCODING 8997
SWIDTH 1600 0
DWIDTH 16 0
BBX 13 13 2 -1
BITMAP
1800
7C38
C670
C6E0
C7C0
6F00
3E00
0DF0
1B18
3318
6318
C1B0
00E0
ENDCHAR
STARTCHAR C021446
ENCODING 8998
SWIDTH 1600 0
DWIDTH 16 0
BBX 9 11 4 0
BITMAP
3E00
3300
3300
3600
1C00
7800
ED80
C780
C300
C700
7D80
ENDCHAR
STARTCHAR C021447
ENCODING 8999
SWIDTH 1600 0
DWIDTH 16 0
BBX 3 4 7 9
BITMAP
60
60
60
C0
ENDCHAR
STARTCHAR C021450
ENCODING 9000
SWIDTH 1600 0
DWIDTH 16 0
BBX 5 14 6 -1
BITMAP
18
30
60
60
C0
C0
C0
C0
C0
C0
60
70
30
18
ENDCHAR
STARTCHAR C021451
ENCODING 9001
SWIDTH 1600 0
DWIDTH 16 0
BBX 5 14 6 -1
BITMAP
C0
60
30
30
18
18
18
18
18
18
30
70
60
C0
ENDCHAR
STARTCHAR C021452
ENCODING 9002
SWIDTH 1600 0
DWIDTH 16 0
BBX 9 8 4 1
BITMAP
7700
3600
1C00
FF80
DD80
3E00
3600
3600
ENDCHAR
STARTCHAR C021453
ENCODING 9003
SWIDTH 1600 0
DWIDTH 16 0
BBX 12 12 2 -1
BITMAP
0600
0600
0600
0600
0600
FFF0
0600
0600
0600
0600
0600
0600
ENDCHAR
STARTCHAR C021454
ENCODING 9004
SWIDTH 1600 0
DWIDTH 16 0
BBX 3 4 7 -1
BITMAP
E0
E0
60
C0
ENDCHAR
STARTCHAR C021455
ENCODING 9005
SWIDTH 1600 0
DWIDTH 16 0
BBX 12 1 3 5
BITMAP
FFF0
ENDCHAR
STARTCHAR C021456
ENCODING 9006
SWIDTH 1600 0
DWIDTH 16 0
BBX 3 2 7 -1
BITMAP
E0
E0
ENDCHAR
STARTCHAR C021457
ENCODING 9007
SWIDTH 1600 0
DWIDTH 16 0
BBX 7 14 5 -1
BITMAP
06
06
0C
0C
0C
18
18
30
30
30
60
60
C0
C0
ENDCHAR
STARTCHAR C021460
ENCODING 9008
SWIDTH 1600 0
DWIDTH 16 0
BBX 9 11 4 0
BITMAP
3E00
6300
E380
C180
C180
C180
C180
C180
E380
6300
3E00
ENDCHAR
STARTCHAR C021461
ENCODING 9009
SWIDTH 1600 0
DWIDTH 16 0
BBX 5 11 5 0
BITMAP
38
78
78
D8
18
18
18
18
18
18
18
ENDCHAR
STARTCHAR C021462
ENCODING 9010
SWIDTH 1600 0
DWIDTH 16 0
BBX 9 11 4 0
BITMAP
3E00
6300
C180
C380
0300
0E00
1800
7000
E000
C000
FF80
ENDCHAR
STARTCHAR C021463
ENCODING 9011
SWIDTH 1600 0
DWIDTH 16 0
BBX 9 11 4 0
BITMAP
3E00
6300
C300
0300
0600
3E00
0300
C180
C180
E300
3E00
ENDCHAR
STARTCHAR C021464
ENCODING 9012
SWIDTH 1600 0
DWIDTH 16 0
BBX 9 11 3 0
BITMAP
0700
0F00
0F00
1B00
3300
7300
6300
C300
FF80
0300
0300
ENDCHAR
STARTCHAR C021465
ENCODING 9013
SWIDTH 1600 0
DWIDTH 16 0
BBX 9 11 4 0
BITMAP
FF00
C000
C000
C000
FE00
E300
0180
C180
C300
E700
3E00
ENDCHAR
STARTCHAR C021466
ENCODING 9014
SWIDTH 1600 0
DWIDTH 16 0
BBX 9 11 4 0
BITMAP
3E00
7300
6180
C000
FF00
E380
C180
C180
C180
6300
3E00
ENDCHAR
STARTCHAR C021467
ENCODING 9015
SWIDTH 1600 0
DWIDTH 16 0
BBX 9 11 4 0
BITMAP
FF80
0180
0300
0300
0600
0600
0C00
1800
1800
3000
3000
ENDCHAR
STARTCHAR C021470
ENCODING 9016
SWIDTH 1600 0
DWIDTH 16 0
BBX 9 11 4 0
BITMAP
3E00
6300
C180
C180
6300
7F00
E380
C180
C180
6300
3E00
ENDCHAR
STARTCHAR C021471
ENCODING 9017
SWIDTH 1600 0
DWIDTH 16 0
BBX 9 11 4 0
BITMAP
3E00
6300
C180
C180
C180
6380
3F80
0180
C300
6300
3E00
ENDCHAR
STARTCHAR C021472
ENCODING 9018
SWIDTH 1600 0
DWIDTH 16 0
BBX 2 10 8 0
BITMAP
C0
C0
00
00
00
00
00
00
C0
C0
ENDCHAR
STARTCHAR C021473
ENCODING 9019
SWIDTH 1600 0
DWIDTH 16 0
BBX 3 11 7 -1
BITMAP
60
60
00
00
00
00
00
00
E0
60
60
ENDCHAR
STARTCHAR C021474
ENCODING 9020
SWIDTH 1600 0
DWIDTH 16 0
BBX 12 12 2 -1
BITMAP
0070
01C0
0700
1C00
7000
E000
6000
3800
0E00
0380
00E0
0030
ENDCHAR
STARTCHAR C021475
ENCODING 9021
SWIDTH 1600 0
DWIDTH 16 0
BBX 12 5 3 3
BITMAP
FFF0
0000
0000
0000
FFF0
ENDCHAR
STARTCHAR C021476
ENCODING 9022
SWIDTH 1600 0
DWIDTH 16 0
BBX 12 12 3 0
BITMAP
C000
7000
1C00
0E00
0380
00E0
0070
00E0
0380
0E00
3800
E000
ENDCHAR
STARTCHAR C021477
ENCODING 9023
SWIDTH 1600 0
DWIDTH 16 0
BBX 10 13 4 -1
BITMAP
3F00
E180
C0C0
C0C0
C0C0
7380
0E00
1800
1800
1800
1800
0000
1800
ENDCHAR
STARTCHAR C021500
ENCODING 9024
SWIDTH 1600 0
DWIDTH 16 0
BBX 13 13 2 -1
BITMAP
0700
3DE0
7030
6018
CFD8
D8D8
D8D8
D8D8
D8D8
6DF0
6700
3000
1FC0
ENDCHAR
STARTCHAR C021501
ENCODING 9025
SWIDTH 1600 0
DWIDTH 16 0
BBX 11 13 3 -1
BITMAP
0E00
0E00
0E00
1B00
1B00
3300
3180
3180
60C0
7FC0
60C0
C060
C060
ENDCHAR
STARTCHAR C021502
ENCODING 9026
SWIDTH 1600 0
DWIDTH 16 0
BBX 10 12 4 0
BITMAP
FF80
C0C0
C0C0
C0C0
C1C0
FF80
C0C0
C0C0
C0C0
C0C0
C0C0
FF80
ENDCHAR
STARTCHAR C021503
ENCODING 9027
SWIDTH 1600 0
DWIDTH 16 0
BBX 11 12 3 0
BITMAP
1F00
31C0
60C0
C060
C000
C000
C000
C000
C060
60C0
31C0
1F00
ENDCHAR
STARTCHAR C021504
ENCODING 9028
SWIDTH 1600 0
DWIDTH 16 0
BBX 10 12 4 0
BITMAP
FE00
C380
C180
C0C0
C0C0
C0C0
C0C0
C0C0
C0C0
C180
C380
FF00
ENDCHAR
STARTCHAR C021505
ENCODING 9029
SWIDTH 1600 0
DWIDTH 16 0
BBX 9 12 4 0
BITMAP
FF80
C000
C000
C000
C000
C000
FF80
C000
C000
C000
C000
FF80
ENDCHAR
STARTCHAR C021506
ENCODING 9030
SWIDTH 1600 0
DWIDTH 16 0
BBX 9 13 4 -1
BITMAP
FF80
C000
C000
C000
C000
C000
FF80
C000
C000
C000
C000
C000
C000
ENDCHAR
STARTCHAR C021507
ENCODING 9031
SWIDTH 1600 0
DWIDTH 16 0
BBX 11 13 3 -1
BITMAP
1F00
3180
60C0
E060
C000
C000
C7E0
C060
C060
E060
60C0
31C0
1F00
ENDCHAR
STARTCHAR C021510
ENCODING 9032
SWIDTH 1600 0
DWIDTH 16 0
BBX 9 12 4 0
BITMAP
C180
C180
C180
C180
C180
FF80
C180
C180
C180
C180
C180
C180
ENDCHAR
STARTCHAR C021511
ENCODING 9033
SWIDTH 1600 0
DWIDTH 16 0
BBX 2 12 8 0
BITMAP
C0
C0
C0
C0
C0
C0
C0
C0
C0
C0
C0
C0
ENDCHAR
STARTCHAR C021512
ENCODING 9034
SWIDTH 1600 0
DWIDTH 16 0
BBX 9 12 3 0
BITMAP
0180
0180
0180
0180
0180
0180
0180
C180
C180
E180
6300
3E00
ENDCHAR
STARTCHAR C021513
ENCODING 9035
SWIDTH 1600 0
DWIDTH 16 0
BBX 9 12 5 0
BITMAP
C180
C300
C600
CC00
F800
F000
F000
F800
CC00
C600
C300
C180
ENDCHAR
STARTCHAR C021514
ENCODING 9036
SWIDTH 1600 0
DWIDTH 16 0
BBX 9 1 5 0
BITMAP
FF80
ENDCHAR
STARTCHAR C021515
ENCODING 9037
SWIDTH 1600 0
DWIDTH 16 0
BBX 13 12 2 0
BITMAP
C038
E038
E038
F078
F078
D8D8
D8D8
CD98
CD98
CF18
C718
C618
ENDCHAR
STARTCHAR C021516
ENCODING 9038
SWIDTH 1600 0
DWIDTH 16 0
BBX 9 12 4 0
BITMAP
C180
E180
E180
F180
D980
D980
CD80
CD80
C780
C780
C380
C180
ENDCHAR
STARTCHAR C021517
ENCODING 9039
SWIDTH 1600 0
DWIDTH 16 0
BBX 11 13 3 -1
BITMAP
1F00
3180
60C0
C0E0
C060
C060
C060
C060
C060
E0E0
60C0
3180
1F00
ENDCHAR
STARTCHAR C021520
ENCODING 9040
SWIDTH 1600 0
DWIDTH 16 0
BBX 11 12 4 0
BITMAP
FFC0
C0E0
C060
C060
C060
C0C0
FF80
C000
C000
C000
C000
C000
ENDCHAR
STARTCHAR C021521
ENCODING 9041
SWIDTH 1600 0
DWIDTH 16 0
BBX 11 14 3 -1
BITMAP
1F00
71C0
60C0
C060
C060
C060
C060
C060
C060
60C0
7180
3F00
7300
01E0
ENDCHAR
STARTCHAR C021522
ENCODING 9042
SWIDTH 1600 0
DWIDTH 16 0
BBX 11 13 3 -1
BITMAP
FFC0
C0E0
C060
C060
C060
C0C0
FF80
C1C0
C0C0
C0C0
C0C0
C060
C060
ENDCHAR
STARTCHAR C021523
ENCODING 9043
SWIDTH 1600 0
DWIDTH 16 0
BBX 10 13 4 -1
BITMAP
3E00
6380
C180
C000
C000
7000
1F00
0180
00C0
C0C0
C0C0
7180
3F00
ENDCHAR
STARTCHAR C021524
ENCODING 9044
SWIDTH 1600 0
DWIDTH 16 0
BBX 10 12 4 0
BITMAP
FFC0
0C00
0C00
0C00
0C00
0C00
0C00
0C00
0C00
0C00
0C00
0C00
ENDCHAR
STARTCHAR C021525
ENCODING 9045
SWIDTH 1600 0
DWIDTH 16 0
BBX 9 12 4 0
BITMAP
C180
C180
C180
C180
C180
C180
C180
C180
C180
C380
6300
3E00
ENDCHAR
STARTCHAR C021526
ENCODING 9046
SWIDTH 1600 0
DWIDTH 16 0
BBX 10 12 3 0
BITMAP
C0C0
60C0
60C0
6180
3180
3180
3300
1B00
1B00
1B00
0E00
0E00
ENDCHAR
STARTCHAR C021527
ENCODING 9047
SWIDTH 1600 0
DWIDTH 16 0
BBX 15 12 1 0
BITMAP
C386
638C
638C
638C
66CC
36D8
36D8
36D8
3678
1C70
1C70
1C30
ENDCHAR
STARTCHAR C021530
ENCODING 9048
SWIDTH 1600 0
DWIDTH 16 0
BBX 11 12 3 0
BITMAP
60C0
3180
3180
1B00
0E00
0E00
0E00
1B00
3980
3180
60C0
C060
ENDCHAR
STARTCHAR C021531
ENCODING 9049
SWIDTH 1600 0
DWIDTH 16 0
BBX 10 12 3 0
BITMAP
C0C0
E180
6180
3300
3600
1E00
0C00
0C00
0C00
0C00
0C00
0C00
ENDCHAR
STARTCHAR C021532
ENCODING 9050
SWIDTH 1600 0
DWIDTH 16 0
BBX 10 12 3 0
BITMAP
7FC0
00C0
0180
0300
0600
0E00
0C00
1800
3000
6000
6000
FFC0
ENDCHAR
STARTCHAR C021533
ENCODING 9051
SWIDTH 1600 0
DWIDTH 16 0
BBX 6 14 6 -1
BITMAP
FC
C0
C0
C0
C0
C0
C0
C0
C0
C0
C0
C0
C0
7C
ENDCHAR
STARTCHAR C021534
ENCODING 9052
SWIDTH 1600 0
DWIDTH 16 0
BBX 15 13 1 -1
BITMAP
638C
638C
638C
3798
FFFE
36D8
36D8
36D8
FFFE
36F0
1C70
1C70
1C70
ENDCHAR
STARTCHAR C021535
ENCODING 9053
SWIDTH 1600 0
DWIDTH 16 0
BBX 6 14 5 -1
BITMAP
FC
0C
0C
0C
0C
0C
0C
0C
0C
0C
0C
0C
0C
FC
ENDCHAR
STARTCHAR C021536
ENCODING 9054
SWIDTH 1600 0
DWIDTH 16 0
BBX 5 1 6 11
BITMAP
F8
ENDCHAR
STARTCHAR C021537
ENCODING 9055
SWIDTH 1600 0
DWIDTH 16 0
BBX 15 1 1 -1
BITMAP
FFFE
ENDCHAR
STARTCHAR C021540
ENCODING 9056
SWIDTH 1600 0
DWIDTH 16 0
BBX 3 3 7 9
BITMAP
C0
C0
60
ENDCHAR
STARTCHAR C021541
ENCODING 9057
SWIDTH 1600 0
DWIDTH 16 0
BBX 7 8 5 0
BITMAP
7C
C6
06
7E
C6
06
0E
FE
ENDCHAR
STARTCHAR C021542
ENCODING 9058
SWIDTH 1600 0
DWIDTH 16 0
BBX 8 11 5 0
BITMAP
C0
C0
C0
FC
E6
C3
C3
C3
C3
E6
FC
ENDCHAR
STARTCHAR C021543
ENCODING 9059
SWIDTH 1600 0
DWIDTH 16 0
BBX 8 8 4 0
BITMAP
3E
67
C3
C0
C0
C3
63
3E
ENDCHAR
STARTCHAR C021544
ENCODING 9060
SWIDTH 1600 0
DWIDTH 16 0
BBX 7 10 5 0
BITMAP
06
06
7E
6E
C6
C6
C6
C6
EE
7E
ENDCHAR
STARTCHAR C021545
ENCODING 9061
SWIDTH 1600 0
DWIDTH 16 0
BBX 8 8 4 0
BITMAP
3E
63
C3
FF
C0
60
63
3E
ENDCHAR
STARTCHAR C021546
ENCODING 9062
SWIDTH 1600 0
DWIDTH 16 0
BBX 7 11 5 0
BITMAP
1C
36
30
30
FE
30
30
30
30
30
30
ENDCHAR
STARTCHAR C021547
ENCODING 9063
SWIDTH 1600 0
DWIDTH 16 0
BBX 8 10 4 -1
BITMAP
3F
67
C3
C3
C3
C3
67
3F
C6
7C
ENDCHAR
STARTCHAR C021550
ENCODING 9064
SWIDTH 1600 0
DWIDTH 16 0
BBX 7 11 5 0
BITMAP
C0
C0
C0
FC
E6
C6
C6
C6
C6
C6
C6
ENDCHAR
STARTCHAR C021551
ENCODING 9065
SWIDTH 1600 0
DWIDTH 16 0
BBX 2 11 7 0
BITMAP
C0
00
C0
C0
C0
C0
C0
C0
C0
C0
C0
ENDCHAR
STARTCHAR C021552
ENCODING 9066
SWIDTH 1600 0
DWIDTH 16 0
BBX 6 13 4 -1
BITMAP
0C
00
0C
0C
0C
0C
0C
0C
0C
0C
0C
0C
F8
ENDCHAR
STARTCHAR C021553
ENCODING 9067
SWIDTH 1600 0
DWIDTH 16 0
BBX 7 11 5 0
BITMAP
C0
C0
C0
CC
D8
F0
F0
F8
DC
CE
C6
ENDCHAR
STARTCHAR C021554
ENCODING 9068
SWIDTH 1600 0
DWIDTH 16 0
BBX 2 11 8 0
BITMAP
C0
C0
C0
C0
C0
C0
C0
C0
C0
C0
C0
ENDCHAR
STARTCHAR C021555
ENCODING 9069
SWIDTH 1600 0
DWIDTH 16 0
BBX 11 9 3 0
BITMAP
39C0
EFE0
C660
C660
C660
C660
C660
C660
C660
ENDCHAR
STARTCHAR C021556
ENCODING 9070
SWIDTH 1600 0
DWIDTH 16 0
BBX 7 9 5 0
BITMAP
D8
FC
C6
C6
C6
C6
C6
C6
C6
ENDCHAR
STARTCHAR C021557
ENCODING 9071
SWIDTH 1600 0
DWIDTH 16 0
BBX 9 9 4 0
BITMAP
3E00
6300
C180
C180
C180
C180
C180
6300
3E00
ENDCHAR
STARTCHAR C021560
ENCODING 9072
SWIDTH 1600 0
DWIDTH 16 0
BBX 7 11 5 -1
BITMAP
C0
F8
EC
C6
C6
C6
C6
CC
EC
F8
C0
ENDCHAR
STARTCHAR C021561
ENCODING 9073
SWIDTH 1600 0
DWIDTH 16 0
BBX 8 10 4 -1
BITMAP
7F
E7
C3
C3
C3
C3
67
3F
03
03
ENDCHAR
STARTCHAR C021562
ENCODING 9074
SWIDTH 1600 0
DWIDTH 16 0
BBX 6 9 6 0
BITMAP
F8
EC
C0
C0
C0
C0
C0
C0
C0
ENDCHAR
STARTCHAR C021563
ENCODING 9075
SWIDTH 1600 0
DWIDTH 16 0
BBX 7 9 5 0
BITMAP
7C
CE
C6
E0
3C
06
C6
C6
7C
ENDCHAR
STARTCHAR C021564
ENCODING 9076
SWIDTH 1600 0
DWIDTH 16 0
BBX 6 11 6 0
BITMAP
60
60
60
FC
60
60
60
60
60
6C
3C
ENDCHAR
STARTCHAR C021565
ENCODING 9077
SWIDTH 1600 0
DWIDTH 16 0
BBX 7 9 5 0
BITMAP
C6
C6
C6
C6
C6
C6
C6
EE
7E
ENDCHAR
STARTCHAR C021566
ENCODING 9078
SWIDTH 1600 0
DWIDTH 16 0
BBX 8 8 4 0
BITMAP
C3
63
63
36
36
3C
1C
1C
ENDCHAR
STARTCHAR C021567
ENCODING 9079
SWIDTH 1600 0
DWIDTH 16 0
BBX 11 8 3 0
BITMAP
CE60
CE60
DE60
DBC0
7BC0
7BC0
7380
3180
ENDCHAR
STARTCHAR C021570
ENCODING 9080
SWIDTH 1600 0
DWIDTH 16 0
BBX 8 8 5 0
BITMAP
C6
6C
7C
38
38
6C
E6
C7
ENDCHAR
STARTCHAR C021571
ENCODING 9081
SWIDTH 1600 0
DWIDTH 16 0
BBX 8 11 4 -1
BITMAP
63
63
63
36
36
3C
1C
1C
18
18
F0
ENDCHAR
STARTCHAR C021572
ENCODING 9082
SWIDTH 1600 0
DWIDTH 16 0
BBX 7 9 5 0
BITMAP
FE
0E
0C
18
30
60
60
C0
FE
ENDCHAR
STARTCHAR C021573
ENCODING 9083
SWIDTH 1600 0
DWIDTH 16 0
BBX 5 14 7 -1
BITMAP
38
60
60
60
60
60
60
E0
60
60
60
60
60
38
ENDCHAR
STARTCHAR C021574
ENCODING 9084
SWIDTH 1600 0
DWIDTH 16 0
BBX 0 0 0 0
BITMAP
ENDCHAR
STARTCHAR C021575
ENCODING 9085
SWIDTH 1600 0
DWIDTH 16 0
BBX 4 14 6 -1
BITMAP
C0
60
60
60
60
60
70
70
60
60
60
60
60
C0
ENDCHAR
STARTCHAR C021576
ENCODING 9086
SWIDTH 1600 0
DWIDTH 16 0
BBX 10 1 4 5
BITMAP
FFC0
ENDCHAR
STARTCHAR C021577
ENCODING 9087
SWIDTH 1600 0
DWIDTH 16 0
BBX 0 0 0 0
BITMAP
ENDCHAR
STARTCHAR C022041
ENCODING 9249
SWIDTH 1600 0
DWIDTH 16 0
BBX 10 8 3 0
BITMAP
FFC0
00C0
00C0
00C0
00C0
00C0
00C0
00C0
ENDCHAR
STARTCHAR C022042
ENCODING 9250
SWIDTH 1600 0
DWIDTH 16 0
BBX 12 8 2 0
BITMAP
FFF0
0C30
0C30
0C30
0C30
0C30
0C30
0C30
ENDCHAR
STARTCHAR C022043
ENCODING 9251
SWIDTH 1600 0
DWIDTH 16 0
BBX 13 8 2 0
BITMAP
FCC0
0CC0
0CC0
0CC0
0DE0
0DE0
0F30
0F18
ENDCHAR
STARTCHAR C022044
ENCODING 9252
SWIDTH 1600 0
DWIDTH 16 0
BBX 10 8 4 0
BITMAP
C000
C000
C000
C000
C000
C000
C000
FFC0
ENDCHAR
STARTCHAR C022045
ENCODING 9253
SWIDTH 1600 0
DWIDTH 16 0
BBX 12 8 3 0
BITMAP
CFE0
C180
C180
C180
C3C0
C3C0
C660
FC30
ENDCHAR
STARTCHAR C022046
ENCODING 9254
SWIDTH 1600 0
DWIDTH 16 0
BBX 12 9 3 -1
BITMAP
C3C0
C000
CFF0
C000
C3E0
C660
C630
FE60
03E0
ENDCHAR
STARTCHAR C022047
ENCODING 9255
SWIDTH 1600 0
DWIDTH 16 0
BBX 10 8 4 0
BITMAP
FFC0
C000
C000
C000
C000
C000
C000
FFC0
ENDCHAR
STARTCHAR C022050
ENCODING 9256
SWIDTH 1600 0
DWIDTH 16 0
BBX 11 8 3 0
BITMAP
FFE0
C600
C600
C600
C600
C600
CE00
FFE0
ENDCHAR
STARTCHAR C022051
ENCODING 9257
SWIDTH 1600 0
DWIDTH 16 0
BBX 11 8 3 0
BITMAP
FFC0
00C0
00C0
7FC0
6000
6000
6000
7FE0
ENDCHAR
STARTCHAR C022052
ENCODING 9258
SWIDTH 1600 0
DWIDTH 16 0
BBX 12 8 2 0
BITMAP
FFF0
0C30
0C30
FC30
C030
C030
C630
FC30
ENDCHAR
STARTCHAR C022053
ENCODING 9259
SWIDTH 1600 0
DWIDTH 16 0
BBX 12 8 2 0
BITMAP
FBF0
1B30
1B30
FB30
C330
C330
C330
FFF0
ENDCHAR
STARTCHAR C022054
ENCODING 9260
SWIDTH 1600 0
DWIDTH 16 0
BBX 12 8 2 0
BITMAP
FB30
1B30
1B30
FBF0
C330
C330
C330
FFF0
ENDCHAR
STARTCHAR C022055
ENCODING 9261
SWIDTH 1600 0
DWIDTH 16 0
BBX 13 8 2 0
BITMAP
FCC0
0CC0
0CC0
FCC0
C1E0
C1E0
C1B0
FB18
ENDCHAR
STARTCHAR C022056
ENCODING 9262
SWIDTH 1600 0
DWIDTH 16 0
BBX 13 8 2 0
BITMAP
FDF8
0D80
0D80
FDF8
C180
C180
C180
FDF8
ENDCHAR
STARTCHAR C022057
ENCODING 9263
SWIDTH 1600 0
DWIDTH 16 0
BBX 13 8 2 0
BITMAP
FFF8
0C00
0DB0
FDB0
C1B0
C1B0
C1B0
FFF8
ENDCHAR
STARTCHAR C022060
ENCODING 9264
SWIDTH 1600 0
DWIDTH 16 0
BBX 13 9 2 -1
BITMAP
FDE0
0C00
0FF8
FC00
C1F0
C318
C318
FB18
01F0
ENDCHAR
STARTCHAR C022061
ENCODING 9265
SWIDTH 1600 0
DWIDTH 16 0
BBX 9 8 4 0
BITMAP
FF80
C180
C180
C180
C180
C180
C180
FF80
ENDCHAR
STARTCHAR C022062
ENCODING 9266
SWIDTH 1600 0
DWIDTH 16 0
BBX 9 8 4 0
BITMAP
C180
C180
C180
FF80
C180
C180
C180
FF80
ENDCHAR
STARTCHAR C022063
ENCODING 9267
SWIDTH 1600 0
DWIDTH 16 0
BBX 11 8 3 0
BITMAP
DB60
DB60
DB60
FBE0
DB60
DB60
DB60
FBE0
ENDCHAR
STARTCHAR C022064
ENCODING 9268
SWIDTH 1600 0
DWIDTH 16 0
BBX 12 8 3 0
BITMAP
1980
1980
1980
F980
1BC0
1BC0
1B60
FE30
ENDCHAR
STARTCHAR C022065
ENCODING 9269
SWIDTH 1600 0
DWIDTH 16 0
BBX 11 8 3 0
BITMAP
0C00
0C00
0C00
1E00
1E00
3300
6180
C0E0
ENDCHAR
STARTCHAR C022066
ENCODING 9270
SWIDTH 1600 0
DWIDTH 16 0
BBX 12 9 2 -1
BITMAP
18C0
18C0
18C0
18C0
18C0
3DE0
67E0
6330
C600
ENDCHAR
STARTCHAR C022067
ENCODING 9271
SWIDTH 1600 0
DWIDTH 16 0
BBX 11 8 3 0
BITMAP
3F80
60C0
C060
C060
C060
C060
60C0
3F80
ENDCHAR
STARTCHAR C022070
ENCODING 9272
SWIDTH 1600 0
DWIDTH 16 0
BBX 11 8 3 0
BITMAP
FFE0
0C00
0C00
0E00
1E00
1B00
3180
E0E0
ENDCHAR
STARTCHAR C022071
ENCODING 9273
SWIDTH 1600 0
DWIDTH 16 0
BBX 13 8 2 0
BITMAP
7FF0
18C0
18C0
18C0
3DE0
3DE0
6730
E718
ENDCHAR
STARTCHAR C022072
ENCODING 9274
SWIDTH 1600 0
DWIDTH 16 0
BBX 11 8 3 0
BITMAP
3F80
0000
FFE0
0C00
0E00
1B00
3380
E0E0
ENDCHAR
STARTCHAR C022073
ENCODING 9275
SWIDTH 1600 0
DWIDTH 16 0
BBX 10 8 3 0
BITMAP
FFC0
00C0
00C0
00C0
FFC0
00C0
00C0
0180
ENDCHAR
STARTCHAR C022074
ENCODING 9276
SWIDTH 1600 0
DWIDTH 16 0
BBX 10 8 4 0
BITMAP
FFC0
C000
C000
FFC0
C000
C000
C000
FFC0
ENDCHAR
STARTCHAR C022075
ENCODING 9277
SWIDTH 1600 0
DWIDTH 16 0
BBX 11 8 3 0
BITMAP
FFE0
0000
3180
3180
3180
3300
3300
FFE0
ENDCHAR
STARTCHAR C022076
ENCODING 9278
SWIDTH 1600 0
DWIDTH 16 0
BBX 12 10 2 -1
BITMAP
1FC0
0000
0000
FFF0
0F80
38E0
3060
3060
38E0
0F80
ENDCHAR
STARTCHAR C022077
ENCODING 9279
SWIDTH 1600 0
DWIDTH 16 0
BBX 6 14 6 -1
BITMAP
C0
C0
C0
C0
C0
C0
FC
C0
C0
C0
C0
C0
C0
C0
ENDCHAR
STARTCHAR C022100
ENCODING 9280
SWIDTH 1600 0
DWIDTH 16 0
BBX 6 14 5 -1
BITMAP
CC
CC
CC
CC
CC
CC
FC
CC
CC
CC
CC
CC
CC
0C
ENDCHAR
STARTCHAR C022101
ENCODING 9281
SWIDTH 1600 0
DWIDTH 16 0
BBX 6 14 7 -1
BITMAP
C0
C0
C0
C0
FC
C0
C0
C0
FC
C0
C0
C0
C0
C0
ENDCHAR
STARTCHAR C022102
ENCODING 9282
SWIDTH 1600 0
DWIDTH 16 0
BBX 5 14 6 -1
BITMAP
18
18
18
18
F8
18
18
18
F8
18
18
18
18
18
ENDCHAR
STARTCHAR C022103
ENCODING 9283
SWIDTH 1600 0
DWIDTH 16 0
BBX 6 14 5 -1
BITMAP
0C
0C
0C
0C
0C
0C
FC
0C
0C
0C
0C
0C
0C
0C
ENDCHAR
STARTCHAR C022104
ENCODING 9284
SWIDTH 1600 0
DWIDTH 16 0
BBX 9 14 3 -1
BITMAP
0180
0D80
0D80
0D80
0D80
0D80
FD80
0D80
0D80
0D80
0D80
0D80
0D80
0180
ENDCHAR
STARTCHAR C022105
ENCODING 9285
SWIDTH 1600 0
DWIDTH 16 0
BBX 7 14 4 -1
BITMAP
06
06
06
06
FE
06
06
06
FE
06
06
06
06
06
ENDCHAR
STARTCHAR C022106
ENCODING 9286
SWIDTH 1600 0
DWIDTH 16 0
BBX 8 14 4 -1
BITMAP
1B
1B
1B
1B
FB
1B
1B
1B
FB
1B
1B
1B
1B
03
ENDCHAR
STARTCHAR C022107
ENCODING 9287
SWIDTH 1600 0
DWIDTH 16 0
BBX 13 7 2 1
BITMAP
0600
0600
0600
0600
0600
0600
FFF8
ENDCHAR
STARTCHAR C022110
ENCODING 9288
SWIDTH 1600 0
DWIDTH 16 0
BBX 14 14 1 -1
BITMAP
0060
0060
0060
0C60
0C60
0C60
0C7C
0C60
0C60
FFE0
F060
0060
0060
0060
ENDCHAR
STARTCHAR C022111
ENCODING 9289
SWIDTH 1600 0
DWIDTH 16 0
BBX 12 14 2 -1
BITMAP
0030
01B0
01B0
01B0
19B0
19B0
19B0
19F0
19B0
FFB0
01B0
01B0
01B0
0030
ENDCHAR
STARTCHAR C022112
ENCODING 9290
SWIDTH 1600 0
DWIDTH 16 0
BBX 11 14 2 -1
BITMAP
0060
0060
0060
0C60
0C60
0C60
0C60
0C60
0DE0
FF60
0060
0060
0060
0060
ENDCHAR
STARTCHAR C022113
ENCODING 9291
SWIDTH 1600 0
DWIDTH 16 0
BBX 13 7 2 1
BITMAP
18C0
18C0
18C0
18C0
18C0
1980
FFF8
ENDCHAR
STARTCHAR C022114
ENCODING 9292
SWIDTH 1600 0
DWIDTH 16 0
BBX 13 11 2 -1
BITMAP
FFF8
0600
0600
0600
0600
0600
0600
0600
0600
0600
0600
ENDCHAR
STARTCHAR C022115
ENCODING 9293
SWIDTH 1600 0
DWIDTH 16 0
BBX 11 14 2 -1
BITMAP
0060
0060
0060
0060
FFE0
0C60
0C60
0FE0
0C60
0C60
0C60
0C60
0060
0060
ENDCHAR
STARTCHAR C022116
ENCODING 9294
SWIDTH 1600 0
DWIDTH 16 0
BBX 12 14 2 -1
BITMAP
01B0
01B0
01B0
01B0
FFB0
19B0
19B0
1FB0
19B0
19B0
19B0
19B0
01B0
0030
ENDCHAR
STARTCHAR C022117
ENCODING 9295
SWIDTH 1600 0
DWIDTH 16 0
BBX 11 14 2 -1
BITMAP
0060
0060
0060
0060
03E0
FFE0
0660
0660
0660
0660
0660
0660
0660
0060
ENDCHAR
STARTCHAR C022120
ENCODING 9296
SWIDTH 1600 0
DWIDTH 16 0
BBX 14 11 1 -1
BITMAP
FFFC
18C0
18C0
18C0
18C0
18C0
18C0
18C0
18C0
18C0
18C0
ENDCHAR
STARTCHAR C022121
ENCODING 9297
SWIDTH 1600 0
DWIDTH 16 0
BBX 13 1 2 4
BITMAP
FFF8
ENDCHAR
STARTCHAR C022122
ENCODING 9298
SWIDTH 1600 0
DWIDTH 16 0
BBX 10 14 3 -1
BITMAP
00C0
00C0
00C0
00C0
00C0
00C0
00C0
03C0
FEC0
00C0
00C0
00C0
00C0
00C0
ENDCHAR
STARTCHAR C022123
ENCODING 9299
SWIDTH 1600 0
DWIDTH 16 0
BBX 2 14 7 -1
BITMAP
C0
C0
C0
C0
C0
C0
C0
C0
C0
C0
C0
C0
C0
C0
ENDCHAR
STARTCHAR C022125
ENCODING 9301
SWIDTH 1600 0
DWIDTH 16 0
BBX 12 8 3 0
BITMAP
0600
0600
0600
0600
0600
0600
1E00
F7F0
ENDCHAR
STARTCHAR C022126
ENCODING 9302
SWIDTH 1600 0
DWIDTH 16 0
BBX 12 8 3 0
BITMAP
07E0
0600
0600
0600
0600
0600
3E00
E7F0
ENDCHAR
STARTCHAR C022127
ENCODING 9303
SWIDTH 1600 0
DWIDTH 16 0
BBX 12 8 3 0
BITMAP
0180
0180
0180
0180
03C0
03C0
0660
F030
ENDCHAR
STARTCHAR C022130
ENCODING 9304
SWIDTH 1600 0
DWIDTH 16 0
BBX 11 8 3 0
BITMAP
0180
0180
0380
03C0
06C0
0660
3E60
E7E0
ENDCHAR
STARTCHAR C022131
ENCODING 9305
SWIDTH 1600 0
DWIDTH 16 0
BBX 13 8 2 0
BITMAP
FF60
1B60
1B60
FB60
C3F0
C3F0
DBF0
F318
ENDCHAR
STARTCHAR C022132
ENCODING 9306
SWIDTH 1600 0
DWIDTH 16 0
BBX 13 8 2 0
BITMAP
FDF8
0D80
0D80
7D80
6180
6180
6180
7FF8
ENDCHAR
STARTCHAR C022133
ENCODING 9307
SWIDTH 1600 0
DWIDTH 16 0
BBX 13 8 2 0
BITMAP
F9E0
1DE0
1DE0
FFE0
CDE0
CDF0
DDF0
FF98
ENDCHAR
STARTCHAR C022134
ENCODING 9308
SWIDTH 1600 0
DWIDTH 16 0
BBX 12 8 3 0
BITMAP
F980
1980
1BC0
FBC0
C360
C660
C660
FFF0
ENDCHAR
STARTCHAR C022135
ENCODING 9309
SWIDTH 1600 0
DWIDTH 16 0
BBX 13 8 2 0
BITMAP
FFF8
0C00
0C00
FDE0
C330
C330
C330
FDE0
ENDCHAR
STARTCHAR C022136
ENCODING 9310
SWIDTH 1600 0
DWIDTH 16 0
BBX 12 8 2 0
BITMAP
FDB0
CDB0
CDB0
CDF0
CDB0
CDB0
CDB0
FDF0
ENDCHAR
STARTCHAR C022137
ENCODING 9311
SWIDTH 1600 0
DWIDTH 16 0
BBX 13 8 2 0
BITMAP
FCC0
CCC0
CCC0
CCC0
CDE0
CDE0
CF30
FF18
ENDCHAR
STARTCHAR C022140
ENCODING 9312
SWIDTH 1600 0
DWIDTH 16 0
BBX 13 8 2 0
BITMAP
FCC0
CCC0
CDE0
CDE0
CDB0
CF30
CF30
FFF8
ENDCHAR
STARTCHAR C022141
ENCODING 9313
SWIDTH 1600 0
DWIDTH 16 0
BBX 8 11 4 -1
BITMAP
FF
C3
C3
C3
FF
00
3E
63
63
63
3E
ENDCHAR
STARTCHAR C022142
ENCODING 9314
SWIDTH 1600 0
DWIDTH 16 0
BBX 12 8 2 0
BITMAP
CFF0
CC30
CC30
FC30
CC30
CC30
CC30
FC30
ENDCHAR
STARTCHAR C022143
ENCODING 9315
SWIDTH 1600 0
DWIDTH 16 0
BBX 12 8 2 0
BITMAP
CFF0
CF00
CF00
FF00
CF00
CF00
CF00
FFF0
ENDCHAR
STARTCHAR C022144
ENCODING 9316
SWIDTH 1600 0
DWIDTH 16 0
BBX 11 8 3 0
BITMAP
37E0
3660
3660
3660
FE60
3F60
3F60
F9E0
ENDCHAR
STARTCHAR C022145
ENCODING 9317
SWIDTH 1600 0
DWIDTH 16 0
BBX 14 8 2 0
BITMAP
DE78
DE60
DE60
FE60
DF60
DF60
DF60
F9FC
ENDCHAR
STARTCHAR C022146
ENCODING 9318
SWIDTH 1600 0
DWIDTH 16 0
BBX 13 8 2 0
BITMAP
CFF0
CCC0
CCC0
FCC0
CDE0
CDE0
CF30
FE18
ENDCHAR
STARTCHAR C022147
ENCODING 9319
SWIDTH 1600 0
DWIDTH 16 0
BBX 13 8 2 0
BITMAP
CDF8
CD80
CD80
FDF8
CD80
CD80
CD80
FDF8
ENDCHAR
STARTCHAR C022150
ENCODING 9320
SWIDTH 1600 0
DWIDTH 16 0
BBX 8 12 4 -1
BITMAP
C3
C3
FF
C3
C3
FF
00
3E
63
63
63
3E
ENDCHAR
STARTCHAR C022151
ENCODING 9321
SWIDTH 1600 0
DWIDTH 16 0
BBX 10 13 3 -1
BITMAP
DEC0
DEC0
DEC0
FFC0
DEC0
DEC0
FFC0
0000
1F00
3180
3180
3180
1F00
ENDCHAR
STARTCHAR C022152
ENCODING 9322
SWIDTH 1600 0
DWIDTH 16 0
BBX 11 8 3 0
BITMAP
37E0
3060
3060
3060
7860
7860
CC60
0660
ENDCHAR
STARTCHAR C022153
ENCODING 9323
SWIDTH 1600 0
DWIDTH 16 0
BBX 13 8 2 0
BITMAP
3300
3300
3300
3300
7B00
7B00
CF00
C7F8
ENDCHAR
STARTCHAR C022154
ENCODING 9324
SWIDTH 1600 0
DWIDTH 16 0
BBX 13 8 2 0
BITMAP
33F0
3300
3300
3300
7B00
7B00
CF00
07F8
ENDCHAR
STARTCHAR C022155
ENCODING 9325
SWIDTH 1600 0
DWIDTH 16 0
BBX 12 8 2 0
BITMAP
3030
3330
3330
33F0
7B30
7B30
CF30
C7F0
ENDCHAR
STARTCHAR C022156
ENCODING 9326
SWIDTH 1600 0
DWIDTH 16 0
BBX 12 8 3 0
BITMAP
3FE0
3180
3180
3180
7BC0
7BC0
CE60
0C30
ENDCHAR
STARTCHAR C022157
ENCODING 9327
SWIDTH 1600 0
DWIDTH 16 0
BBX 9 8 4 0
BITMAP
1800
1C00
3C00
3600
6600
6300
C300
FF80
ENDCHAR
STARTCHAR C022160
ENCODING 9328
SWIDTH 1600 0
DWIDTH 16 0
BBX 12 8 2 0
BITMAP
79E0
FF70
CF30
CF30
CF30
CF30
FF70
79E0
ENDCHAR
STARTCHAR C022161
ENCODING 9329
SWIDTH 1600 0
DWIDTH 16 0
BBX 10 11 3 -1
BITMAP
0C00
0C00
1E00
7F80
E1C0
C0C0
C0C0
C0C0
C0C0
6380
3F00
ENDCHAR
STARTCHAR C022162
ENCODING 9330
SWIDTH 1600 0
DWIDTH 16 0
BBX 13 9 2 0
BITMAP
3000
30C0
78C0
FCC0
CCC0
CDE0
CDE0
FF30
7B18
ENDCHAR
STARTCHAR C022163
ENCODING 9331
SWIDTH 1600 0
DWIDTH 16 0
BBX 13 9 2 0
BITMAP
3000
30C0
78C0
FDE0
CDE0
CDE0
CF30
FF30
7BF8
ENDCHAR
STARTCHAR C022164
ENCODING 9332
SWIDTH 1600 0
DWIDTH 16 0
BBX 11 12 3 -1
BITMAP
FFC0
3000
3300
3300
3300
FFE0
0000
1F00
3180
3180
3180
1F00
ENDCHAR
STARTCHAR C022165
ENCODING 9333
SWIDTH 1600 0
DWIDTH 16 0
BBX 14 10 1 -1
BITMAP
7CF8
0000
FFFC
0000
0000
3C78
66CC
66CC
66CC
3C78
ENDCHAR
STARTCHAR C022166
ENCODING 9334
SWIDTH 1600 0
DWIDTH 16 0
BBX 12 10 2 -1
BITMAP
FFF0
0000
0000
0000
0F80
19C0
18C0
18C0
19C0
0F80
ENDCHAR
STARTCHAR C022167
ENCODING 9335
SWIDTH 1600 0
DWIDTH 16 0
BBX 13 14 2 -1
BITMAP
00C0
00C0
06C0
36C0
36C0
36F8
36C0
36C0
37F8
FFC0
C0C0
00C0
00C0
00C0
ENDCHAR
STARTCHAR C022170
ENCODING 9336
SWIDTH 1600 0
DWIDTH 16 0
BBX 12 14 2 -1
BITMAP
01B0
01B0
01B0
3DB0
3DF0
3DB0
3DB0
3FF0
FFB0
C1B0
01B0
01B0
01B0
0030
ENDCHAR
STARTCHAR C022171
ENCODING 9337
SWIDTH 1600 0
DWIDTH 16 0
BBX 11 14 2 -1
BITMAP
0060
0060
0060
3660
3660
3660
3660
3660
3660
FFE0
C060
0060
0060
0060
ENDCHAR
STARTCHAR C022172
ENCODING 9338
SWIDTH 1600 0
DWIDTH 16 0
BBX 11 14 2 -1
BITMAP
0060
0060
0060
01E0
FFE0
3660
37E0
3660
3660
37E0
3660
3660
3660
0060
ENDCHAR
STARTCHAR C022173
ENCODING 9339
SWIDTH 1600 0
DWIDTH 16 0
BBX 12 14 2 -1
BITMAP
0030
00F0
00F0
07F0
FCF0
3CF0
3FF0
3CF0
3CF0
3FF0
3CF0
3CF0
00F0
0030
ENDCHAR
STARTCHAR C022174
ENCODING 9340
SWIDTH 1600 0
DWIDTH 16 0
BBX 10 14 3 -1
BITMAP
00C0
00C0
00C0
00C0
03C0
FFC0
36C0
36C0
36C0
36C0
36C0
36C0
36C0
00C0
ENDCHAR
STARTCHAR C022175
ENCODING 9341
SWIDTH 1600 0
DWIDTH 16 0
BBX 3 2 7 3
BITMAP
E0
E0
ENDCHAR
STARTCHAR C022176
ENCODING 9342
SWIDTH 1600 0
DWIDTH 16 0
BBX 8 14 4 -1
BITMAP
03
03
03
03
03
03
E3
E3
03
03
03
03
03
03
ENDCHAR
STARTCHAR C022177
ENCODING 9343
SWIDTH 1600 0
DWIDTH 16 0
BBX 0 0 0 0
BITMAP
ENDCHAR
STARTCHAR C022441
ENCODING 9505
SWIDTH 1600 0
DWIDTH 16 0
BBX 2 12 7 0
BITMAP
C0
C0
00
00
C0
C0
C0
C0
C0
C0
C0
C0
ENDCHAR
STARTCHAR C022442
ENCODING 9506
SWIDTH 1600 0
DWIDTH 16 0
BBX 6 12 5 0
BITMAP
CC
CC
00
00
CC
CC
CC
CC
CC
CC
CC
CC
ENDCHAR
STARTCHAR C022443
ENCODING 9507
SWIDTH 1600 0
DWIDTH 16 0
BBX 8 12 4 0
BITMAP
DB
DB
00
00
DB
DB
DB
DB
DB
DB
DB
DB
ENDCHAR
STARTCHAR C022444
ENCODING 9508
SWIDTH 1600 0
DWIDTH 16 0
BBX 10 12 4 0
BITMAP
C000
C000
0000
0000
DDC0
CD80
CD80
CD80
C700
C700
C700
C200
ENDCHAR
STARTCHAR C022445
ENCODING 9509
SWIDTH 1600 0
DWIDTH 16 0
BBX 6 8 5 0
BITMAP
C0
CC
6C
78
78
38
30
30
ENDCHAR
STARTCHAR C022446
ENCODING 9510
SWIDTH 1600 0
DWIDTH 16 0
BBX 10 12 3 0
BITMAP
00C0
0000
0000
0000
C6C0
CCC0
6CC0
6CC0
38C0
38C0
18C0
18C0
ENDCHAR
STARTCHAR C022447
ENCODING 9511
SWIDTH 1600 0
DWIDTH 16 0
BBX 11 12 3 0
BITMAP
03C0
0000
0000
0000
DB60
DB60
DB60
F360
7360
7360
7360
0360
ENDCHAR
STARTCHAR C022450
ENCODING 9512
SWIDTH 1600 0
DWIDTH 16 0
BBX 12 12 2 0
BITMAP
03F0
0000
0000
0000
CFF0
DBF0
DBF0
7BF0
73F0
73F0
33F0
33F0
ENDCHAR
STARTCHAR C022451
ENCODING 9513
SWIDTH 1600 0
DWIDTH 16 0
BBX 9 12 4 0
BITMAP
C000
0000
0000
0000
D980
DB00
CF00
C600
C600
CF00
CF00
D980
ENDCHAR
STARTCHAR C022452
ENCODING 9514
SWIDTH 1600 0
DWIDTH 16 0
BBX 6 8 5 0
BITMAP
CC
6C
78
30
30
78
6C
CC
ENDCHAR
STARTCHAR C022453
ENCODING 9515
SWIDTH 1600 0
DWIDTH 16 0
BBX 0 0 0 0
BITMAP
ENDCHAR
STARTCHAR C022454
ENCODING 9516
SWIDTH 1600 0
DWIDTH 16 0
BBX 0 0 0 0
BITMAP
ENDCHAR
STARTCHAR C022460
ENCODING 9520
SWIDTH 1600 0
DWIDTH 16 0
BBX 2 11 7 0
BITMAP
C0
C0
C0
C0
C0
C0
C0
C0
C0
C0
C0
ENDCHAR
STARTCHAR C022461
ENCODING 9521
SWIDTH 1600 0
DWIDTH 16 0
BBX 7 11 5 0
BITMAP
C6
C6
C6
C6
C6
C6
C6
C6
C6
C6
C6
ENDCHAR
STARTCHAR C022462
ENCODING 9522
SWIDTH 1600 0
DWIDTH 16 0
BBX 9 11 4 0
BITMAP
D980
D980
D980
D980
D980
D980
D980
D980
D980
D980
D980
ENDCHAR
STARTCHAR C022463
ENCODING 9523
SWIDTH 1600 0
DWIDTH 16 0
BBX 9 11 4 0
BITMAP
F180
F180
D980
DB00
DB00
DB00
CF00
CE00
CE00
C600
C000
ENDCHAR
STARTCHAR C022464
ENCODING 9524
SWIDTH 1600 0
DWIDTH 16 0
BBX 7 10 5 1
BITMAP
06
C6
CC
CC
6C
78
78
38
38
30
ENDCHAR
STARTCHAR C022465
ENCODING 9525
SWIDTH 1600 0
DWIDTH 16 0
BBX 10 11 3 0
BITMAP
C6C0
C6C0
66C0
6CC0
6CC0
3CC0
3CC0
38C0
18C0
18C0
18C0
ENDCHAR
STARTCHAR C022466
ENCODING 9526
SWIDTH 1600 0
DWIDTH 16 0
BBX 12 11 2 0
BITMAP
C7B0
C7B0
CDB0
6DB0
6DB0
6DB0
39B0
39B0
39B0
19B0
01B0
ENDCHAR
STARTCHAR C022467
ENCODING 9527
SWIDTH 1600 0
DWIDTH 16 0
BBX 12 11 2 0
BITMAP
CFF0
CFF0
DBF0
DBF0
7BF0
7BF0
7BF0
33F0
33F0
33F0
33F0
ENDCHAR
STARTCHAR C022470
ENCODING 9528
SWIDTH 1600 0
DWIDTH 16 0
BBX 9 11 4 0
BITMAP
C180
DB00
DB00
CE00
CE00
C600
CE00
CE00
DB00
DB00
C180
ENDCHAR
STARTCHAR C022471
ENCODING 9529
SWIDTH 1600 0
DWIDTH 16 0
BBX 6 11 5 0
BITMAP
C0
CC
78
78
38
30
38
78
6C
CC
C0
ENDCHAR
STARTCHAR C022472
ENCODING 9530
SWIDTH 1600 0
DWIDTH 16 0
BBX 0 0 0 0
BITMAP
ENDCHAR
STARTCHAR C022473
ENCODING 9531
SWIDTH 1600 0
DWIDTH 16 0
BBX 0 0 0 0
BITMAP
ENDCHAR
STARTCHAR C022474
ENCODING 9532
SWIDTH 1600 0
DWIDTH 16 0
BBX 0 0 0 0
BITMAP
ENDCHAR
STARTCHAR C022500
ENCODING 9536
SWIDTH 1600 0
DWIDTH 16 0
BBX 0 0 0 0
BITMAP
ENDCHAR
STARTCHAR C022501
ENCODING 9537
SWIDTH 1600 0
DWIDTH 16 0
BBX 9 11 4 0
BITMAP
0300
0700
0F00
1B00
3300
3380
6380
7F80
C180
C180
0180
ENDCHAR
STARTCHAR C022502
ENCODING 9538
SWIDTH 1600 0
DWIDTH 16 0
BBX 9 11 4 0
BITMAP
1F00
3180
3180
3180
6300
7E00
6300
C300
C300
C300
FE00
ENDCHAR
STARTCHAR C022503
ENCODING 9539
SWIDTH 1600 0
DWIDTH 16 0
BBX 9 11 4 0
BITMAP
1F80
3000
3000
6000
6000
6000
6000
C000
C000
C000
C000
ENDCHAR
STARTCHAR C022504
ENCODING 9540
SWIDTH 1600 0
DWIDTH 16 0
BBX 10 11 3 0
BITMAP
0180
0380
0F80
0F80
1980
3180
31C0
61C0
C1C0
C1C0
FFC0
ENDCHAR
STARTCHAR C022505
ENCODING 9541
SWIDTH 1600 0
DWIDTH 16 0
BBX 10 11 3 0
BITMAP
1FC0
1800
3000
3000
3000
3F80
6000
6000
6000
6000
FF00
ENDCHAR
STARTCHAR C022506
ENCODING 9542
SWIDTH 1600 0
DWIDTH 16 0
BBX 10 11 3 0
BITMAP
3FC0
00C0
0180
0300
0600
0C00
1800
3800
3000
6000
FF80
ENDCHAR
STARTCHAR C022507
ENCODING 9543
SWIDTH 1600 0
DWIDTH 16 0
BBX 11 11 3 0
BITMAP
3060
3060
30C0
60C0
60C0
7FC0
6180
C180
C180
C300
C300
ENDCHAR
STARTCHAR C022510
ENCODING 9544
SWIDTH 1600 0
DWIDTH 16 0
BBX 10 12 3 -1
BITMAP
1F80
39C0
30C0
60C0
60C0
FFC0
C0C0
C0C0
C180
6180
3700
1C00
ENDCHAR
STARTCHAR C022511
ENCODING 9545
SWIDTH 1600 0
DWIDTH 16 0
BBX 4 11 6 0
BITMAP
30
30
30
30
60
60
60
60
60
C0
C0
ENDCHAR
STARTCHAR C022512
ENCODING 9546
SWIDTH 1600 0
DWIDTH 16 0
BBX 9 11 4 0
BITMAP
3180
3300
6600
6C00
7800
7C00
6C00
6600
C600
C300
C300
ENDCHAR
STARTCHAR C022513
ENCODING 9547
SWIDTH 1600 0
DWIDTH 16 0
BBX 9 11 4 0
BITMAP
0600
0E00
0E00
1B00
1B00
3300
3300
6300
6300
C180
C180
ENDCHAR
STARTCHAR C022514
ENCODING 9548
SWIDTH 1600 0
DWIDTH 16 0
BBX 11 10 3 1
BITMAP
7060
70E0
71E0
71E0
F3C0
DBC0
DEC0
DEC0
DCC0
DCC0
ENDCHAR
STARTCHAR C022515
ENCODING 9549
SWIDTH 1600 0
DWIDTH 16 0
BBX 10 11 3 0
BITMAP
38C0
38C0
38C0
3CC0
6D80
6D80
6780
6780
6780
C300
C300
ENDCHAR
STARTCHAR C022516
ENCODING 9550
SWIDTH 1600 0
DWIDTH 16 0
BBX 10 11 3 0
BITMAP
1FC0
0000
0000
0000
0000
3F80
0000
0000
0000
0000
FF80
ENDCHAR
STARTCHAR C022517
ENCODING 9551
SWIDTH 1600 0
DWIDTH 16 0
BBX 10 11 3 0
BITMAP
1F00
3180
60C0
60C0
C0C0
C0C0
C0C0
C180
C180
6300
3E00
ENDCHAR
STARTCHAR C022520
ENCODING 9552
SWIDTH 1600 0
DWIDTH 16 0
BBX 10 11 3 0
BITMAP
3FC0
30C0
30C0
60C0
6180
6180
6180
6180
6180
C180
C000
ENDCHAR
STARTCHAR C022521
ENCODING 9553
SWIDTH 1600 0
DWIDTH 16 0
BBX 9 11 4 0
BITMAP
3F00
6300
6180
6180
6300
7E00
6000
C000
C000
C000
C000
ENDCHAR
STARTCHAR C022522
ENCODING 9554
SWIDTH 1600 0
DWIDTH 16 0
BBX 10 11 4 0
BITMAP
3FC0
3000
1800
1800
0C00
0C00
1800
3000
7000
6000
FF00
ENDCHAR
STARTCHAR C022523
ENCODING 9555
SWIDTH 1600 0
DWIDTH 16 0
BBX 9 11 4 0
BITMAP
FF80
1800
1800
1800
1800
1800
3000
3000
3000
3000
3000
ENDCHAR
STARTCHAR C022524
ENCODING 9556
SWIDTH 1600 0
DWIDTH 16 0
BBX 8 11 5 0
BITMAP
03
C6
C6
6C
78
38
30
30
60
60
60
ENDCHAR
STARTCHAR C022525
ENCODING 9557
SWIDTH 1600 0
DWIDTH 16 0
BBX 11 12 3 -1
BITMAP
0600
1F80
77C0
66C0
C660
CC60
CCC0
CCC0
7D80
3F00
1800
1800
ENDCHAR
STARTCHAR C022526
ENCODING 9558
SWIDTH 1600 0
DWIDTH 16 0
BBX 10 11 3 0
BITMAP
00C0
1980
1B00
1E00
0E00
0C00
1E00
3600
3600
6300
C300
ENDCHAR
STARTCHAR C022527
ENCODING 9559
SWIDTH 1600 0
DWIDTH 16 0
BBX 11 11 3 0
BITMAP
6660
6660
6CC0
CCC0
CCC0
CCC0
ED80
7F80
1800
1800
1800
ENDCHAR
STARTCHAR C022530
ENCODING 9560
SWIDTH 1600 0
DWIDTH 16 0
BBX 11 11 3 0
BITMAP
0F80
38C0
3060
6060
6060
6060
60C0
30C0
1B80
1E00
FFC0
ENDCHAR
STARTCHAR C022531
ENCODING 9561
SWIDTH 1600 0
DWIDTH 16 0
BBX 0 0 0 0
BITMAP
ENDCHAR
STARTCHAR C022532
ENCODING 9562
SWIDTH 1600 0
DWIDTH 16 0
BBX 0 0 0 0
BITMAP
ENDCHAR
STARTCHAR C022533
ENCODING 9563
SWIDTH 1600 0
DWIDTH 16 0
BBX 0 0 0 0
BITMAP
ENDCHAR
STARTCHAR C022540
ENCODING 9568
SWIDTH 1600 0
DWIDTH 16 0
BBX 0 0 0 0
BITMAP
ENDCHAR
STARTCHAR C022541
ENCODING 9569
SWIDTH 1600 0
DWIDTH 16 0
BBX 8 9 4 0
BITMAP
3F
37
63
63
C6
C6
C6
6E
3B
ENDCHAR
STARTCHAR C022542
ENCODING 9570
SWIDTH 1600 0
DWIDTH 16 0
BBX 8 14 5 -1
BITMAP
0E
1F
33
33
66
7C
66
66
63
66
66
FC
C0
C0
ENDCHAR
STARTCHAR C022543
ENCODING 9571
SWIDTH 1600 0
DWIDTH 16 0
BBX 7 11 5 -1
BITMAP
C6
E6
EC
6C
78
78
78
70
70
70
F0
ENDCHAR
STARTCHAR C022544
ENCODING 9572
SWIDTH 1600 0
DWIDTH 16 0
BBX 9 12 4 0
BITMAP
3F80
1800
1800
1C00
3600
6600
6300
C300
C600
C600
6600
3C00
ENDCHAR
STARTCHAR C022545
ENCODING 9573
SWIDTH 1600 0
DWIDTH 16 0
BBX 7 9 5 0
BITMAP
3C
66
66
70
70
C6
C6
CC
78
ENDCHAR
STARTCHAR C022546
ENCODING 9574
SWIDTH 1600 0
DWIDTH 16 0
BBX 8 14 4 -1
BITMAP
3F
03
06
0C
18
30
30
60
C0
60
38
0E
06
3C
ENDCHAR
STARTCHAR C022547
ENCODING 9575
SWIDTH 1600 0
DWIDTH 16 0
BBX 7 11 5 -1
BITMAP
DC
76
66
C6
CC
CC
CC
CC
0C
0C
18
ENDCHAR
STARTCHAR C022550
ENCODING 9576
SWIDTH 1600 0
DWIDTH 16 0
BBX 8 12 4 0
BITMAP
1E
33
33
63
63
7F
C3
C3
C6
C6
6E
3C
ENDCHAR
STARTCHAR C022551
ENCODING 9577
SWIDTH 1600 0
DWIDTH 16 0
BBX 3 9 7 0
BITMAP
60
C0
C0
C0
C0
C0
C0
C0
E0
ENDCHAR
STARTCHAR C022552
ENCODING 9578
SWIDTH 1600 0
DWIDTH 16 0
BBX 8 9 5 0
BITMAP
67
6C
78
F0
F8
D8
D8
CC
CC
ENDCHAR
STARTCHAR C022553
ENCODING 9579
SWIDTH 1600 0
DWIDTH 16 0
BBX 9 12 4 0
BITMAP
1800
0C00
0E00
0E00
0E00
1E00
1E00
3600
3700
6700
6700
C380
ENDCHAR
STARTCHAR C022554
ENCODING 9580
SWIDTH 1600 0
DWIDTH 16 0
BBX 8 12 4 -2
BITMAP
33
33
33
63
66
66
66
6E
7F
60
C0
C0
ENDCHAR
STARTCHAR C022555
ENCODING 9581
SWIDTH 1600 0
DWIDTH 16 0
BBX 6 9 6 0
BITMAP
C0
CC
D8
D8
D8
F0
F0
E0
E0
ENDCHAR
STARTCHAR C022556
ENCODING 9582
SWIDTH 1600 0
DWIDTH 16 0
BBX 8 15 5 -2
BITMAP
FF
30
60
60
60
3C
70
C0
C0
C0
C0
78
18
18
30
ENDCHAR
STARTCHAR C022557
ENCODING 9583
SWIDTH 1600 0
DWIDTH 16 0
BBX 7 9 5 0
BITMAP
38
6C
C6
C6
C6
C6
CC
CC
78
ENDCHAR
STARTCHAR C022560
ENCODING 9584
SWIDTH 1600 0
DWIDTH 16 0
BBX 9 9 4 0
BITMAP
FF80
6300
6600
6600
6600
6600
6600
C600
C000
ENDCHAR
STARTCHAR C022561
ENCODING 9585
SWIDTH 1600 0
DWIDTH 16 0
BBX 8 12 4 -2
BITMAP
0E
1B
33
33
63
63
63
76
7C
60
C0
C0
ENDCHAR
STARTCHAR C022562
ENCODING 9586
SWIDTH 1600 0
DWIDTH 16 0
BBX 8 9 5 0
BITMAP
3F
6E
C6
C6
C6
C6
CC
CC
78
ENDCHAR
STARTCHAR C022563
ENCODING 9587
SWIDTH 1600 0
DWIDTH 16 0
BBX 7 9 5 0
BITMAP
FE
30
30
30
30
30
30
30
38
ENDCHAR
STARTCHAR C022564
ENCODING 9588
SWIDTH 1600 0
DWIDTH 16 0
BBX 7 9 5 0
BITMAP
66
C6
CC
CC
CC
CC
CC
D8
78
ENDCHAR
STARTCHAR C022565
ENCODING 9589
SWIDTH 1600 0
DWIDTH 16 0
BBX 9 11 4 -1
BITMAP
1F00
7D80
6D80
CD80
D980
D980
DB00
7F00
7E00
1800
1800
ENDCHAR
STARTCHAR C022566
ENCODING 9590
SWIDTH 1600 0
DWIDTH 16 0
BBX 7 11 5 -1
BITMAP
E6
6C
6C
38
38
30
38
78
78
D8
0E
ENDCHAR
STARTCHAR C022567
ENCODING 9591
SWIDTH 1600 0
DWIDTH 16 0
BBX 10 12 4 -2
BITMAP
CCC0
CD80
D980
D980
D980
D980
DB00
DB00
7E00
3000
3000
3000
ENDCHAR
STARTCHAR C022570
ENCODING 9592
SWIDTH 1600 0
DWIDTH 16 0
BBX 9 9 4 0
BITMAP
3F00
6300
6180
CD80
D980
D980
D980
FB00
7E00
ENDCHAR
STARTCHAR C022574
ENCODING 9596
SWIDTH 1600 0
DWIDTH 16 0
BBX 0 0 0 0
BITMAP
ENDCHAR
STARTCHAR C022575
ENCODING 9597
SWIDTH 1600 0
DWIDTH 16 0
BBX 0 0 0 0
BITMAP
ENDCHAR
STARTCHAR C023041
ENCODING 9761
SWIDTH 1600 0
DWIDTH 16 0
BBX 16 1 0 5
BITMAP
FFFF
ENDCHAR
STARTCHAR C023042
ENCODING 9762
SWIDTH 1600 0
DWIDTH 16 0
BBX 2 16 7 -2
BITMAP
C0
C0
C0
C0
C0
C0
C0
C0
C0
C0
C0
C0
C0
C0
C0
C0
ENDCHAR
STARTCHAR C023043
ENCODING 9763
SWIDTH 1600 0
DWIDTH 16 0
BBX 9 8 7 -2
BITMAP
FF80
C000
C000
C000
C000
C000
C000
C000
ENDCHAR
STARTCHAR C023044
ENCODING 9764
SWIDTH 1600 0
DWIDTH 16 0
BBX 10 8 0 -2
BITMAP
FFC0
00C0
00C0
00C0
00C0
00C0
00C0
00C0
ENDCHAR
STARTCHAR C023045
ENCODING 9765
SWIDTH 1600 0
DWIDTH 16 0
BBX 9 9 0 5
BITMAP
0180
0180
0180
0180
0180
0180
0180
0180
FF80
ENDCHAR
STARTCHAR C023046
ENCODING 9766
SWIDTH 1600 0
DWIDTH 16 0
BBX 9 9 7 5
BITMAP
C000
C000
C000
C000
C000
C000
C000
C000
FF80
ENDCHAR
STARTCHAR C023047
ENCODING 9767
SWIDTH 1600 0
DWIDTH 16 0
BBX 9 16 7 -2
BITMAP
C000
C000
C000
C000
C000
C000
C000
C000
FF80
C000
C000
C000
C000
C000
C000
C000
ENDCHAR
STARTCHAR C023050
ENCODING 9768
SWIDTH 1600 0
DWIDTH 16 0
BBX 16 8 0 -2
BITMAP
FFFF
0180
0180
0180
0180
0180
0180
0180
ENDCHAR
STARTCHAR C023051
ENCODING 9769
SWIDTH 1600 0
DWIDTH 16 0
BBX 9 16 0 -2
BITMAP
0180
0180
0180
0180
0180
0180
0180
0180
FF80
0180
0180
0180
0180
0180
0180
0180
ENDCHAR
STARTCHAR C023052
ENCODING 9770
SWIDTH 1600 0
DWIDTH 16 0
BBX 16 9 0 5
BITMAP
0180
0180
0180
0180
0180
0180
0180
0180
FFFF
ENDCHAR
STARTCHAR C023053
ENCODING 9771
SWIDTH 1600 0
DWIDTH 16 0
BBX 16 16 0 -2
BITMAP
0180
0180
0180
0180
0180
0180
0180
0180
FFFF
0180
0180
0180
0180
0180
0180
0180
ENDCHAR
STARTCHAR C023054
ENCODING 9772
SWIDTH 1600 0
DWIDTH 16 0
BBX 16 1 0 5
BITMAP
FFFF
ENDCHAR
STARTCHAR C023055
ENCODING 9773
SWIDTH 1600 0
DWIDTH 16 0
BBX 2 16 7 -2
BITMAP
C0
C0
C0
C0
C0
C0
C0
C0
C0
C0
C0
C0
C0
C0
C0
C0
ENDCHAR
STARTCHAR C023056
ENCODING 9774
SWIDTH 1600 0
DWIDTH 16 0
BBX 9 8 7 -2
BITMAP
FF80
C000
C000
C000
C000
C000
C000
C000
ENDCHAR
STARTCHAR C023057
ENCODING 9775
SWIDTH 1600 0
DWIDTH 16 0
BBX 9 8 0 -2
BITMAP
FF80
0180
0180
0180
0180
0180
0180
0180
ENDCHAR
STARTCHAR C023060
ENCODING 9776
SWIDTH 1600 0
DWIDTH 16 0
BBX 9 9 0 5
BITMAP
0180
0180
0180
0180
0180
0180
0180
0180
FF80
ENDCHAR
STARTCHAR C023061
ENCODING 9777
SWIDTH 1600 0
DWIDTH 16 0
BBX 9 9 7 5
BITMAP
C000
C000
C000
C000
C000
C000
C000
C000
FF80
ENDCHAR
STARTCHAR C023062
ENCODING 9778
SWIDTH 1600 0
DWIDTH 16 0
BBX 9 16 7 -2
BITMAP
C000
C000
C000
C000
C000
C000
C000
C000
FF80
C000
C000
C000
C000
C000
C000
C000
ENDCHAR
STARTCHAR C023063
ENCODING 9779
SWIDTH 1600 0
DWIDTH 16 0
BBX 16 8 0 -2
BITMAP
FFFF
0180
0180
0180
0180
0180
0180
0180
ENDCHAR
STARTCHAR C023064
ENCODING 9780
SWIDTH 1600 0
DWIDTH 16 0
BBX 9 16 0 -2
BITMAP
0180
0180
0180
0180
0180
0180
0180
0180
FF80
0180
0180
0180
0180
0180
0180
0180
ENDCHAR
STARTCHAR C023065
ENCODING 9781
SWIDTH 1600 0
DWIDTH 16 0
BBX 16 9 0 5
BITMAP
0180
0180
0180
0180
0180
0180
0180
0180
FFFF
ENDCHAR
STARTCHAR C023066
ENCODING 9782
SWIDTH 1600 0
DWIDTH 16 0
BBX 16 16 0 -2
BITMAP
0180
0180
0180
0180
0180
0180
0180
0180
FFFF
0180
0180
0180
0180
0180
0180
0180
ENDCHAR
STARTCHAR C023067
ENCODING 9783
SWIDTH 1600 0
DWIDTH 16 0
BBX 9 16 7 -2
BITMAP
C000
C000
C000
C000
C000
C000
C000
C000
FF80
C000
C000
C000
C000
C000
C000
C000
ENDCHAR
STARTCHAR C023070
ENCODING 9784
SWIDTH 1600 0
DWIDTH 16 0
BBX 16 8 0 -2
BITMAP
FFFF
0180
0180
0180
0180
0180
0180
0180
ENDCHAR
STARTCHAR C023071
ENCODING 9785
SWIDTH 1600 0
DWIDTH 16 0
BBX 9 16 0 -2
BITMAP
0180
0180
0180
0180
0180
0180
0180
0180
FF80
0180
0180
0180
0180
0180
0180
0180
ENDCHAR
STARTCHAR C023072
ENCODING 9786
SWIDTH 1600 0
DWIDTH 16 0
BBX 16 9 0 5
BITMAP
0180
0180
0180
0180
0180
0180
0180
0180
FFFF
ENDCHAR
STARTCHAR C023073
ENCODING 9787
SWIDTH 1600 0
DWIDTH 16 0
BBX 16 16 0 -2
BITMAP
0180
0180
0180
0180
0180
0180
0180
0180
FFFF
0180
0180
0180
0180
0180
0180
0180
ENDCHAR
STARTCHAR C023074
ENCODING 9788
SWIDTH 1600 0
DWIDTH 16 0
BBX 9 16 7 -2
BITMAP
C000
C000
C000
C000
C000
C000
C000
C000
FF80
C000
C000
C000
C000
C000
C000
C000
ENDCHAR
STARTCHAR C023075
ENCODING 9789
SWIDTH 1600 0
DWIDTH 16 0
BBX 16 8 0 -2
BITMAP
FFFF
0180
0180
0180
0180
0180
0180
0180
ENDCHAR
STARTCHAR C023076
ENCODING 9790
SWIDTH 1600 0
DWIDTH 16 0
BBX 9 16 0 -2
BITMAP
0180
0180
0180
0180
0180
0180
0180
0180
FF80
0180
0180
0180
0180
0180
0180
0180
ENDCHAR
STARTCHAR C023077
ENCODING 9791
SWIDTH 1600 0
DWIDTH 16 0
BBX 16 9 0 5
BITMAP
0180
0180
0180
0180
0180
0180
0180
0180
FFFF
ENDCHAR
STARTCHAR C023100
ENCODING 9792
SWIDTH 1600 0
DWIDTH 16 0
BBX 16 16 0 -2
BITMAP
0180
0180
0180
0180
0180
0180
0180
0180
FFFF
0180
0180
0180
0180
0180
0180
0180
ENDCHAR
STARTCHAR C023101
ENCODING 9793
SWIDTH 1600 0
DWIDTH 16 0
BBX 9 8 0 -2
BITMAP
FF80
0180
0180
0180
0180
0180
0180
0180
ENDCHAR
STARTCHAR C023102
ENCODING 9794
SWIDTH 1600 0
DWIDTH 16 0
BBX 9 8 0 -2
BITMAP
FF80
0180
0180
0180
0180
0180
0180
0180
ENDCHAR
STARTCHAR C023103
ENCODING 9795
SWIDTH 1600 0
DWIDTH 16 0
BBX 9 9 0 5
BITMAP
0180
0180
0180
0180
0180
0180
0180
0180
FF80
ENDCHAR
STARTCHAR C023104
ENCODING 9796
SWIDTH 1600 0
DWIDTH 16 0
BBX 9 9 0 5
BITMAP
0180
0180
0180
0180
0180
0180
0180
0180
FF80
ENDCHAR
STARTCHAR C023105
ENCODING 9797
SWIDTH 1600 0
DWIDTH 16 0
BBX 9 9 7 5
BITMAP
C000
C000
C000
C000
C000
C000
C000
C000
FF80
ENDCHAR
STARTCHAR C023106
ENCODING 9798
SWIDTH 1600 0
DWIDTH 16 0
BBX 9 9 7 5
BITMAP
C000
C000
C000
C000
C000
C000
C000
C000
FF80
ENDCHAR
STARTCHAR C023107
ENCODING 9799
SWIDTH 1600 0
DWIDTH 16 0
BBX 9 8 7 -2
BITMAP
FF80
C000
C000
C000
C000
C000
C000
C000
ENDCHAR
STARTCHAR C023110
ENCODING 9800
SWIDTH 1600 0
DWIDTH 16 0
BBX 9 8 7 -2
BITMAP
FF80
C000
C000
C000
C000
C000
C000
C000
ENDCHAR
STARTCHAR C023111
ENCODING 9801
SWIDTH 1600 0
DWIDTH 16 0
BBX 9 16 7 -2
BITMAP
C000
C000
C000
C000
C000
C000
C000
C000
FF80
C000
C000
C000
C000
C000
C000
C000
ENDCHAR
STARTCHAR C023112
ENCODING 9802
SWIDTH 1600 0
DWIDTH 16 0
BBX 9 16 7 -2
BITMAP
C000
C000
C000
C000
C000
C000
C000
C000
FF80
C000
C000
C000
C000
C000
C000
C000
ENDCHAR
STARTCHAR C023113
ENCODING 9803
SWIDTH 1600 0
DWIDTH 16 0
BBX 9 16 7 -2
BITMAP
C000
C000
C000
C000
C000
C000
C000
C000
FF80
C000
C000
C000
C000
C000
C000
C000
ENDCHAR
STARTCHAR C023114
ENCODING 9804
SWIDTH 1600 0
DWIDTH 16 0
BBX 9 16 7 -2
BITMAP
C000
C000
C000
C000
C000
C000
C000
C000
FF80
C000
C000
C000
C000
C000
C000
C000
ENDCHAR
STARTCHAR C023115
ENCODING 9805
SWIDTH 1600 0
DWIDTH 16 0
BBX 9 16 0 -2
BITMAP
0180
0180
0180
0180
0180
0180
0180
0180
FF80
0180
0180
0180
0180
0180
0180
0180
ENDCHAR
STARTCHAR C023116
ENCODING 9806
SWIDTH 1600 0
DWIDTH 16 0
BBX 9 16 0 -2
BITMAP
0180
0180
0180
0180
0180
0180
0180
0180
FF80
0180
0180
0180
0180
0180
0180
0180
ENDCHAR
STARTCHAR C023117
ENCODING 9807
SWIDTH 1600 0
DWIDTH 16 0
BBX 9 16 0 -2
BITMAP
0180
0180
0180
0180
0180
0180
0180
0180
FF80
0180
0180
0180
0180
0180
0180
0180
ENDCHAR
STARTCHAR C023120
ENCODING 9808
SWIDTH 1600 0
DWIDTH 16 0
BBX 9 16 0 -2
BITMAP
0180
0180
0180
0180
0180
0180
0180
0180
FF80
0180
0180
0180
0180
0180
0180
0180
ENDCHAR
STARTCHAR C023121
ENCODING 9809
SWIDTH 1600 0
DWIDTH 16 0
BBX 16 8 0 -2
BITMAP
FFFF
0180
0180
0180
0180
0180
0180
0180
ENDCHAR
STARTCHAR C023122
ENCODING 9810
SWIDTH 1600 0
DWIDTH 16 0
BBX 16 8 0 -2
BITMAP
FFFF
0180
0180
0180
0180
0180
0180
0180
ENDCHAR
STARTCHAR C023123
ENCODING 9811
SWIDTH 1600 0
DWIDTH 16 0
BBX 16 8 0 -2
BITMAP
FFFF
0180
0180
0180
0180
0180
0180
0180
ENDCHAR
STARTCHAR C023124
ENCODING 9812
SWIDTH 1600 0
DWIDTH 16 0
BBX 16 8 0 -2
BITMAP
FFFF
0180
0180
0180
0180
0180
0180
0180
ENDCHAR
STARTCHAR C023125
ENCODING 9813
SWIDTH 1600 0
DWIDTH 16 0
BBX 16 9 0 5
BITMAP
0180
0180
0180
0180
0180
0180
0180
0180
FFFF
ENDCHAR
STARTCHAR C023126
ENCODING 9814
SWIDTH 1600 0
DWIDTH 16 0
BBX 16 9 0 5
BITMAP
0180
0180
0180
0180
0180
0180
0180
0180
FFFF
ENDCHAR
STARTCHAR C023127
ENCODING 9815
SWIDTH 1600 0
DWIDTH 16 0
BBX 16 9 0 5
BITMAP
0180
0180
0180
0180
0180
0180
0180
0180
FFFF
ENDCHAR
STARTCHAR C023130
ENCODING 9816
SWIDTH 1600 0
DWIDTH 16 0
BBX 16 9 0 5
BITMAP
0180
0180
0180
0180
0180
0180
0180
0180
FFFF
ENDCHAR
STARTCHAR C023131
ENCODING 9817
SWIDTH 1600 0
DWIDTH 16 0
BBX 16 16 0 -2
BITMAP
0180
0180
0180
0180
0180
0180
0180
0180
FFFF
0180
0180
0180
0180
0180
0180
0180
ENDCHAR
STARTCHAR C023132
ENCODING 9818
SWIDTH 1600 0
DWIDTH 16 0
BBX 16 16 0 -2
BITMAP
0180
0180
0180
0180
0180
0180
0180
0180
FFFF
0180
0180
0180
0180
0180
0180
0180
ENDCHAR
STARTCHAR C023133
ENCODING 9819
SWIDTH 1600 0
DWIDTH 16 0
BBX 16 16 0 -2
BITMAP
0180
0180
0180
0180
0180
0180
0180
0180
FFFF
0180
0180
0180
0180
0180
0180
0180
ENDCHAR
STARTCHAR C023134
ENCODING 9820
SWIDTH 1600 0
DWIDTH 16 0
BBX 16 16 0 -2
BITMAP
0180
0180
0180
0180
0180
0180
0180
0180
FFFF
0180
0180
0180
0180
0180
0180
0180
ENDCHAR
STARTCHAR C023135
ENCODING 9821
SWIDTH 1600 0
DWIDTH 16 0
BBX 16 16 0 -2
BITMAP
0180
0180
0180
0180
0180
0180
0180
0180
FFFF
0180
0180
0180
0180
0180
0180
0180
ENDCHAR
STARTCHAR C023136
ENCODING 9822
SWIDTH 1600 0
DWIDTH 16 0
BBX 16 16 0 -2
BITMAP
0180
0180
0180
0180
0180
0180
0180
0180
FFFF
0180
0180
0180
0180
0180
0180
0180
ENDCHAR
STARTCHAR C023137
ENCODING 9823
SWIDTH 1600 0
DWIDTH 16 0
BBX 16 16 0 -2
BITMAP
0180
0180
0180
0180
0180
0180
0180
0180
FFFF
0180
0180
0180
0180
0180
0180
0180
ENDCHAR
STARTCHAR C023140
ENCODING 9824
SWIDTH 1600 0
DWIDTH 16 0
BBX 16 16 0 -2
BITMAP
0180
0180
0180
0180
0180
0180
0180
0180
FFFF
0180
0180
0180
0180
0180
0180
0180
ENDCHAR
STARTCHAR C023141
ENCODING 9825
SWIDTH 1600 0
DWIDTH 16 0
BBX 16 16 0 -2
BITMAP
0180
0180
0180
0180
0180
0180
0180
0180
FFFF
0180
0180
0180
0180
0180
0180
0180
ENDCHAR
STARTCHAR C023142
ENCODING 9826
SWIDTH 1600 0
DWIDTH 16 0
BBX 16 16 0 -2
BITMAP
0180
0180
0180
0180
0180
0180
0180
0180
FFFF
0180
0180
0180
0180
0180
0180
0180
ENDCHAR
STARTCHAR C023143
ENCODING 9827
SWIDTH 1600 0
DWIDTH 16 0
BBX 16 16 0 -2
BITMAP
0180
0180
0180
0180
0180
0180
0180
0180
FFFF
0180
0180
0180
0180
0180
0180
0180
ENDCHAR
STARTCHAR C023144
ENCODING 9828
SWIDTH 1600 0
DWIDTH 16 0
BBX 16 16 0 -2
BITMAP
0180
0180
0180
0180
0180
0180
0180
0180
FFFF
0180
0180
0180
0180
0180
0180
0180
ENDCHAR
STARTCHAR C023440
ENCODING 10016
SWIDTH 1600 0
DWIDTH 16 0
BBX 0 0 0 0
BITMAP
ENDCHAR
STARTCHAR C023441
ENCODING 10017
SWIDTH 1600 0
DWIDTH 16 0
BBX 14 12 1 0
BITMAP
0038
0078
33D8
33D8
3798
6798
67B0
67F0
CDEC
CF8C
ECD8
F8F8
ENDCHAR
STARTCHAR C023442
ENCODING 10018
SWIDTH 1600 0
DWIDTH 16 0
BBX 13 12 2 0
BITMAP
0070
00F8
00D8
FCD8
FDB0
FDB0
FDB0
FDE0
FDD8
FF98
FD98
FCF0
ENDCHAR
STARTCHAR C023443
ENCODING 10019
SWIDTH 1600 0
DWIDTH 16 0
BBX 13 12 2 0
BITMAP
0670
06D8
06D8
7F98
CFB0
C7B0
C7B0
C7E0
C7D8
CF98
6F98
3EF0
ENDCHAR
STARTCHAR C023444
ENCODING 10020
SWIDTH 1600 0
DWIDTH 16 0
BBX 7 12 4 0
BITMAP
1C
3E
36
36
6C
6C
6C
78
76
E6
66
3C
ENDCHAR
STARTCHAR C023445
ENCODING 10021
SWIDTH 1600 0
DWIDTH 16 0
BBX 13 12 2 0
BITMAP
C070
C070
C0F0
CCF0
CDB0
D9B0
F1E0
E1E0
F1D8
DB98
CDD8
CCF0
ENDCHAR
STARTCHAR C023446
ENCODING 10022
SWIDTH 1600 0
DWIDTH 16 0
BBX 13 10 2 0
BITMAP
79E0
6DB0
C300
C300
C300
C300
C718
C718
6DB0
38E0
ENDCHAR
STARTCHAR C023447
ENCODING 10023
SWIDTH 1600 0
DWIDTH 16 0
BBX 13 12 2 0
BITMAP
0038
0018
0018
FFF8
FFC0
FFC0
FFC0
FFC0
FFC0
FFC0
FFC0
FFC0
ENDCHAR
STARTCHAR C023450
ENCODING 10024
SWIDTH 1600 0
DWIDTH 16 0
BBX 15 12 1 0
BITMAP
000C
0006
000C
7FFE
EFFC
CEF0
C6F0
C6F0
C6F0
DEF0
7EF0
7EF0
ENDCHAR
STARTCHAR C023451
ENCODING 10025
SWIDTH 1600 0
DWIDTH 16 0
BBX 13 12 2 0
BITMAP
0018
0018
0018
FBB8
EEC0
CCC0
CCC0
CCC0
CCC0
CCC0
CCC0
CCC0
ENDCHAR
STARTCHAR C023452
ENCODING 10026
SWIDTH 1600 0
DWIDTH 16 0
BBX 14 12 1 0
BITMAP
C00C
C00C
C00C
CFFC
DEF0
DEF0
F6F0
F6F0
F6F0
DEF0
DEF0
CEF0
ENDCHAR
STARTCHAR C023453
ENCODING 10027
SWIDTH 1600 0
DWIDTH 16 0
BBX 13 12 2 0
BITMAP
1E00
3000
3000
FFF8
33F8
3378
3378
3378
3378
3378
3378
3378
ENDCHAR
STARTCHAR C023454
ENCODING 10028
SWIDTH 1600 0
DWIDTH 16 0
BBX 13 9 2 0
BITMAP
FFF8
CFD8
CFD8
CFD8
CFD8
CFD8
CFD8
CFD8
CFD8
ENDCHAR
STARTCHAR C023455
ENCODING 10029
SWIDTH 1600 0
DWIDTH 16 0
BBX 13 9 2 0
BITMAP
37F8
37F8
67F8
6DF8
6DF8
6DF8
CDF8
F9F8
F1F8
ENDCHAR
STARTCHAR C023456
ENCODING 10030
SWIDTH 1600 0
DWIDTH 16 0
BBX 13 9 2 0
BITMAP
FFF8
FF78
FF78
FF78
FF78
FF78
FF78
FF78
FF78
ENDCHAR
STARTCHAR C023457
ENCODING 10031
SWIDTH 1600 0
DWIDTH 16 0
BBX 14 9 1 0
BITMAP
7BFC
6FFC
CF6C
C36C
C36C
CF6C
CF6C
EF6C
7B6C
ENDCHAR
STARTCHAR C023460
ENCODING 10032
SWIDTH 1600 0
DWIDTH 16 0
BBX 13 12 2 0
BITMAP
C000
C000
C000
CFF0
DED8
F6D8
F6D8
E6D8
F6D8
F6D8
DED8
CED8
ENDCHAR
STARTCHAR C023461
ENCODING 10033
SWIDTH 1600 0
DWIDTH 16 0
BBX 14 12 1 0
BITMAP
001C
000C
0018
FFFC
FFF0
FFF0
FFF0
FFF0
FFF0
FFF0
FFF0
FFF0
ENDCHAR
STARTCHAR C023462
ENCODING 10034
SWIDTH 1600 0
DWIDTH 16 0
BBX 15 12 1 0
BITMAP
000C
000C
0018
7BFE
6FF0
CED0
CED0
C2D0
CED0
CED0
EED0
7AD0
ENDCHAR
STARTCHAR C023463
ENCODING 10035
SWIDTH 1600 0
DWIDTH 16 0
BBX 14 12 1 0
BITMAP
001C
000C
0018
FBDC
EE60
C660
C660
C660
C660
C660
C660
C660
ENDCHAR
STARTCHAR C023464
ENCODING 10036
SWIDTH 1600 0
DWIDTH 16 0
BBX 15 12 1 0
BITMAP
C01C
C00C
C018
CFFE
DEF0
DEF0
F6F0
F6F0
F6F0
DEF0
DEF0
CEF0
ENDCHAR
STARTCHAR C023465
ENCODING 10037
SWIDTH 1600 0
DWIDTH 16 0
BBX 13 12 2 0
BITMAP
C000
C000
C000
F8F0
ED98
CC18
CC38
CCF8
CD98
CF18
CF18
CDF8
ENDCHAR
STARTCHAR C023466
ENCODING 10038
SWIDTH 1600 0
DWIDTH 16 0
BBX 13 9 2 0
BITMAP
36F8
6798
6D98
6DF0
6F00
CDF0
DB18
FB18
F9F8
ENDCHAR
STARTCHAR C023467
ENCODING 10039
SWIDTH 1600 0
DWIDTH 16 0
BBX 13 10 2 0
BITMAP
0018
FDF0
FF18
FF18
FDF0
FF00
FDF0
FF18
FF18
FDF0
ENDCHAR
STARTCHAR C023470
ENCODING 10040
SWIDTH 1600 0
DWIDTH 16 0
BBX 13 12 2 0
BITMAP
C000
C000
C000
CDF0
DB30
F330
E1F0
E300
F1F0
DB18
DB18
CFF0
ENDCHAR
STARTCHAR C023471
ENCODING 10041
SWIDTH 1600 0
DWIDTH 16 0
BBX 13 12 2 0
BITMAP
C0C0
C0C0
C0C0
C0C0
CDF8
D8C0
F0C0
E0C0
F0C0
D8C0
CCC0
CC78
ENDCHAR
STARTCHAR C023472
ENCODING 10042
SWIDTH 1600 0
DWIDTH 16 0
BBX 13 12 2 0
BITMAP
0018
0018
0018
7BD8
7B78
D878
C0F8
C3F8
C678
C678
FE78
7BF8
ENDCHAR
STARTCHAR C023473
ENCODING 10043
SWIDTH 1600 0
DWIDTH 16 0
BBX 13 12 2 0
BITMAP
C018
C018
C018
FFD8
FF78
FB78
F8F8
F9F8
FB78
FB78
FB78
FFF8
ENDCHAR
STARTCHAR C023474
ENCODING 10044
SWIDTH 1600 0
DWIDTH 16 0
BBX 13 12 2 0
BITMAP
0FF0
0F18
0F18
7F18
7F18
CFF0
CF38
CF18
CF18
CF18
6F38
7FF0
ENDCHAR
STARTCHAR C023475
ENCODING 10045
SWIDTH 1600 0
DWIDTH 16 0
BBX 13 14 2 -1
BITMAP
0C00
FE18
F630
F660
F6C0
C780
0300
07E0
0F30
1B00
31F0
6018
C318
01F0
ENDCHAR
STARTCHAR C023476
ENCODING 10046
SWIDTH 1600 0
DWIDTH 16 0
BBX 15 14 1 -1
BITMAP
F600
FF0C
DB18
DB30
DB60
00C6
018C
030E
06E0
0DB0
1980
30F8
6198
00F0
ENDCHAR
STARTCHAR C023477
ENCODING 10047
SWIDTH 1600 0
DWIDTH 16 0
BBX 13 11 2 -1
BITMAP
F9F0
ED98
C700
C780
C6F0
C618
C718
ED98
FCF0
C000
C000
ENDCHAR
STARTCHAR C023500
ENCODING 10048
SWIDTH 1600 0
DWIDTH 16 0
BBX 13 9 2 0
BITMAP
FDF0
CDB8
CF00
CD80
CCF0
CC18
CF18
CD98
CCF0
ENDCHAR
STARTCHAR C023501
ENCODING 10049
SWIDTH 1600 0
DWIDTH 16 0
BBX 15 10 1 -1
BITMAP
0378
33CC
33C0
36E0
3638
660C
66C6
6CCC
7C7C
C000
ENDCHAR
STARTCHAR C023502
ENCODING 10050
SWIDTH 1600 0
DWIDTH 16 0
BBX 13 9 2 0
BITMAP
FDF0
FD98
FD80
FD80
FCF0
FC18
FF18
FD98
FCF0
ENDCHAR
STARTCHAR C023503
ENCODING 10051
SWIDTH 1600 0
DWIDTH 16 0
BBX 13 14 2 -1
BITMAP
0318
0318
0318
C330
FDB0
C7B0
C7B0
C7B0
C6E0
C6E0
ECE0
FCE0
C000
C000
ENDCHAR
STARTCHAR C023504
ENCODING 10052
SWIDTH 1600 0
DWIDTH 16 0
BBX 13 12 2 0
BITMAP
0318
0318
0318
FF18
C7B0
C7B0
C7B0
C7B0
C6E0
C6E0
C6E0
C6E0
ENDCHAR
STARTCHAR C023505
ENCODING 10053
SWIDTH 1600 0
DWIDTH 16 0
BBX 13 13 2 -1
BITMAP
0300
0318
0198
3798
6798
67B0
6DB0
6CF0
CCF0
D8F0
D8E0
F860
C000
ENDCHAR
STARTCHAR C023506
ENCODING 10054
SWIDTH 1600 0
DWIDTH 16 0
BBX 13 12 2 0
BITMAP
0318
0318
0318
FF98
FFB0
F7B0
F7B0
F7B0
F6F0
F6E0
F6E0
F6E0
ENDCHAR
STARTCHAR C023507
ENCODING 10055
SWIDTH 1600 0
DWIDTH 16 0
BBX 13 12 2 0
BITMAP
C318
C318
C318
CF18
D9B0
F1B0
F1B0
E1B0
F0F0
D8E0
CCE0
CEE0
ENDCHAR
STARTCHAR C023510
ENCODING 10056
SWIDTH 1600 0
DWIDTH 16 0
BBX 13 12 2 0
BITMAP
CF18
CF18
FF18
FD98
FDB0
FDB0
FDB0
FDB0
FCF0
FCE0
FCE0
FC60
ENDCHAR
STARTCHAR C023511
ENCODING 10057
SWIDTH 1600 0
DWIDTH 16 0
BBX 13 14 2 -1
BITMAP
0060
00E0
00E0
FCE0
C7B0
C7B0
C7B0
C7B0
C7F0
EF18
FF18
C318
C000
C000
ENDCHAR
STARTCHAR C023512
ENCODING 10058
SWIDTH 1600 0
DWIDTH 16 0
BBX 13 12 2 0
BITMAP
00E0
00E0
00E0
FCE0
CDB0
CDB0
CDB0
CDB0
CDF0
CF18
CF18
CF18
ENDCHAR
STARTCHAR C023513
ENCODING 10059
SWIDTH 1600 0
DWIDTH 16 0
BBX 13 13 2 -1
BITMAP
0060
00E0
00F0
33F0
36F0
66F0
67B0
6798
6DF8
CD98
ED98
FC18
C000
ENDCHAR
STARTCHAR C023514
ENCODING 10060
SWIDTH 1600 0
DWIDTH 16 0
BBX 13 12 2 0
BITMAP
0060
00E0
00E0
FCF0
FDB0
FDB0
FDB0
FDB0
FDF8
FD98
FF18
FF18
ENDCHAR
STARTCHAR C023515
ENCODING 10061
SWIDTH 1600 0
DWIDTH 16 0
BBX 13 12 2 0
BITMAP
C060
C0E0
C0E0
CCE0
D9B0
F1B0
E1B0
E1B0
F1F0
DB18
DB18
CF18
ENDCHAR
STARTCHAR C023516
ENCODING 10062
SWIDTH 1600 0
DWIDTH 16 0
BBX 13 14 2 -1
BITMAP
07F8
07F8
07F8
F7F8
FBF8
CFB8
CFB8
CFB8
CFB8
CF98
FB18
FB18
C000
C000
ENDCHAR
STARTCHAR C023517
ENCODING 10063
SWIDTH 1600 0
DWIDTH 16 0
BBX 13 12 2 0
BITMAP
0778
0778
0778
FFF8
CFF8
CFF8
CFF8
CFF8
CFB8
CF98
CF98
CF98
ENDCHAR
STARTCHAR C023520
ENCODING 10064
SWIDTH 1600 0
DWIDTH 16 0
BBX 13 12 2 0
BITMAP
0778
0778
0778
6FF8
CFF8
CFF8
CFF8
CFF8
DBB8
DB98
DB98
F398
ENDCHAR
STARTCHAR C023521
ENCODING 10065
SWIDTH 1600 0
DWIDTH 16 0
BBX 13 12 2 0
BITMAP
0778
0778
0778
FFF8
FFF8
FFF8
FFF8
FFF8
FFB8
FF98
FF98
FF98
ENDCHAR
STARTCHAR C023522
ENCODING 10066
SWIDTH 1600 0
DWIDTH 16 0
BBX 13 12 2 0
BITMAP
CCD8
CDD8
CDD8
DFD8
DFD8
F7F8
F7F8
E7F8
F3F0
F370
DB70
CF30
ENDCHAR
STARTCHAR C023523
ENCODING 10067
SWIDTH 1600 0
DWIDTH 16 0
BBX 13 12 2 0
BITMAP
C778
EFF8
FFF8
FFF8
FFF8
FFF0
FFF0
F7F0
F6F0
F6F0
F6F0
F6F0
ENDCHAR
STARTCHAR C023524
ENCODING 10068
SWIDTH 1600 0
DWIDTH 16 0
BBX 13 13 2 0
BITMAP
C000
CC00
CC00
CC00
CFF8
CC30
FC30
CC60
CCC0
CCC0
CD80
CF00
CFF8
ENDCHAR
STARTCHAR C023525
ENCODING 10069
SWIDTH 1600 0
DWIDTH 16 0
BBX 13 12 2 0
BITMAP
0D80
0D80
0D80
3DF8
3D98
6F98
CDB0
6DB0
6DE0
3DE0
3DC0
3DF8
ENDCHAR
STARTCHAR C023526
ENCODING 10070
SWIDTH 1600 0
DWIDTH 16 0
BBX 13 12 2 0
BITMAP
DEC0
DEC0
FEC0
FEF8
FED8
FFD8
FEF0
FEF0
7EF0
3EE0
3EE0
3EF8
ENDCHAR
STARTCHAR C023527
ENCODING 10071
SWIDTH 1600 0
DWIDTH 16 0
BBX 15 12 1 0
BITMAP
7BC0
6FC0
CFC0
C3FE
C3CC
C3CC
DFD8
CFD8
CFD8
CFF0
6FF0
7FFE
ENDCHAR
STARTCHAR C023530
ENCODING 10072
SWIDTH 1600 0
DWIDTH 16 0
BBX 13 12 2 0
BITMAP
FF80
6780
6780
67F8
6798
6798
67B0
67B0
67B0
67E0
67E0
67F8
ENDCHAR
STARTCHAR C023531
ENCODING 10073
SWIDTH 1600 0
DWIDTH 16 0
BBX 11 12 3 0
BITMAP
0C00
3F00
6180
C0C0
C0C0
C0C0
C0C0
6180
3380
1B00
1B00
FBE0
ENDCHAR
STARTCHAR C023532
ENCODING 10074
SWIDTH 1600 0
DWIDTH 16 0
BBX 13 12 2 0
BITMAP
C1E0
C330
C738
DE18
DE18
F618
E618
E330
F3F0
F1E0
D9E0
CFF8
ENDCHAR
STARTCHAR C023533
ENCODING 10075
SWIDTH 1600 0
DWIDTH 16 0
BBX 13 12 2 0
BITMAP
CDE0
CF30
DF38
DE18
DE18
FE18
FE18
FF30
FDE0
FDE0
FDE0
FFF8
ENDCHAR
STARTCHAR C023534
ENCODING 10076
SWIDTH 1600 0
DWIDTH 16 0
BBX 13 14 2 -1
BITMAP
03F8
0300
0300
0300
FF00
C7F0
C700
C700
C700
C700
EF00
FF00
C300
C000
ENDCHAR
STARTCHAR C023535
ENCODING 10077
SWIDTH 1600 0
DWIDTH 16 0
BBX 14 13 2 -1
BITMAP
01FC
0180
0180
FD80
CD80
CDF8
CD80
CD80
CD80
CD80
CD80
CD80
0180
ENDCHAR
STARTCHAR C023536
ENCODING 10078
SWIDTH 1600 0
DWIDTH 16 0
BBX 14 13 2 -1
BITMAP
01FC
0180
0180
3780
6780
67F8
6D80
6D80
CD80
CD80
D980
FD80
0180
ENDCHAR
STARTCHAR C023537
ENCODING 10079
SWIDTH 1600 0
DWIDTH 16 0
BBX 13 12 2 0
BITMAP
0018
0018
0018
FDD8
FF78
FF78
FF78
FF78
FF78
FF78
FF78
FDD8
ENDCHAR
STARTCHAR C023540
ENCODING 10080
SWIDTH 1600 0
DWIDTH 16 0
BBX 13 12 2 0
BITMAP
0018
0018
0018
7CF8
6F98
C798
C318
C318
C718
C798
6D98
7CF8
ENDCHAR
STARTCHAR C023541
ENCODING 10081
SWIDTH 1600 0
DWIDTH 16 0
BBX 13 12 2 0
BITMAP
0018
0018
0018
FE78
FBD8
DBD8
C7D8
DFD8
DBD8
DBD8
DBD8
CF78
ENDCHAR
STARTCHAR C023542
ENCODING 10082
SWIDTH 1600 0
DWIDTH 16 0
BBX 13 14 2 -1
BITMAP
00C0
00C0
F9C0
FFC0
DFC0
FFC0
FFF8
0060
01F8
0378
0E70
1818
7078
0030
ENDCHAR
STARTCHAR C023543
ENCODING 10083
SWIDTH 1600 0
DWIDTH 16 0
BBX 15 14 1 -1
BITMAP
0060
0060
FFE0
FF60
CF60
FF6C
DFFC
007C
00FE
03F8
0670
0C18
3878
0030
ENDCHAR
STARTCHAR C023544
ENCODING 10084
SWIDTH 1600 0
DWIDTH 16 0
BBX 13 9 2 0
BITMAP
7DF8
CFC0
C180
6180
3D80
0780
C780
E780
7D80
ENDCHAR
STARTCHAR C023545
ENCODING 10085
SWIDTH 1600 0
DWIDTH 16 0
BBX 13 12 2 0
BITMAP
FC00
CC00
C600
C6F0
C798
CC18
DC38
F1F8
C318
C318
C318
C1F8
ENDCHAR
STARTCHAR C023546
ENCODING 10086
SWIDTH 1600 0
DWIDTH 16 0
BBX 13 12 2 0
BITMAP
CF00
CD80
CD80
FDF0
FDD8
EDD8
EFB8
EE78
ECD8
FCD8
FCD8
DC78
ENDCHAR
STARTCHAR C023547
ENCODING 10087
SWIDTH 1600 0
DWIDTH 16 0
BBX 13 12 2 0
BITMAP
DF80
DEC0
FEC0
FEF8
FEF8
FED8
FFF8
FE78
7E78
3E78
3E78
3E78
ENDCHAR
STARTCHAR C023550
ENCODING 10088
SWIDTH 1600 0
DWIDTH 16 0
BBX 14 13 1 -1
BITMAP
3BC0
6FC0
CFC0
C3F8
C3CC
C3CC
DFCC
CFBC
CF3C
CF3C
CF3C
7F3C
3000
ENDCHAR
STARTCHAR C023551
ENCODING 10089
SWIDTH 1600 0
DWIDTH 16 0
BBX 13 12 2 0
BITMAP
DF80
DF80
FF80
FFF0
FFF8
FD98
FD98
FD98
FD98
FD98
FDB0
FDF0
ENDCHAR
STARTCHAR C023552
ENCODING 10090
SWIDTH 1600 0
DWIDTH 16 0
BBX 11 12 3 0
BITMAP
C000
C000
C000
DFE0
DB60
DB60
DB60
DB60
DB60
DB60
DB60
DB60
ENDCHAR
STARTCHAR C023553
ENCODING 10091
SWIDTH 1600 0
DWIDTH 16 0
BBX 10 12 3 0
BITMAP
C000
C000
C000
C000
CCC0
C780
C780
C300
C380
C780
CCC0
CCC0
ENDCHAR
STARTCHAR C023554
ENCODING 10092
SWIDTH 1600 0
DWIDTH 16 0
BBX 13 13 2 -1
BITMAP
F800
CC00
CC00
CDF8
CD98
FB18
CF18
C718
C718
C798
CEF8
FC18
0018
ENDCHAR
STARTCHAR C023555
ENCODING 10093
SWIDTH 1600 0
DWIDTH 16 0
BBX 13 14 2 -1
BITMAP
3C00
6E00
C600
C618
C198
C198
DFB0
C6F0
C6F0
C6E0
6E60
3E60
00C0
01C0
ENDCHAR
STARTCHAR C023556
ENCODING 10094
SWIDTH 1600 0
DWIDTH 16 0
BBX 13 12 2 0
BITMAP
7800
CC00
C600
C198
C198
7198
1CF0
06F0
06F0
C6F0
C660
7C60
ENDCHAR
STARTCHAR C023557
ENCODING 10095
SWIDTH 1600 0
DWIDTH 16 0
BBX 13 14 2 -1
BITMAP
C600
6C00
0C00
0C00
1800
7E00
F600
37F8
3778
6778
6770
C7D8
C0D8
00F8
ENDCHAR
STARTCHAR C023560
ENCODING 10096
SWIDTH 1600 0
DWIDTH 16 0
BBX 0 0 0 0
BITMAP
ENDCHAR
STARTCHAR C023561
ENCODING 10097
SWIDTH 1600 0
DWIDTH 16 0
BBX 0 0 0 0
BITMAP
ENDCHAR
STARTCHAR C024041
ENCODING 10273
SWIDTH 1600 0
DWIDTH 16 0
BBX 13 10 2 0
BITMAP
0FF8
0E00
1E00
3600
37F0
6600
7E00
C600
C600
07F8
ENDCHAR
STARTCHAR C024042
ENCODING 10274
SWIDTH 1600 0
DWIDTH 16 0
BBX 11 10 3 0
BITMAP
3FC0
30C0
3060
3060
FC60
3060
3060
30E0
30C0
3F80
ENDCHAR
STARTCHAR C024043
ENCODING 10275
SWIDTH 1600 0
DWIDTH 16 0
BBX 7 10 5 0
BITMAP
7C
CC
0C
7C
CC
CC
DC
7E
00
FE
ENDCHAR
STARTCHAR C024044
ENCODING 10276
SWIDTH 1600 0
DWIDTH 16 0
BBX 13 10 2 0
BITMAP
3060
3060
FFF8
3060
3FE0
38E0
3060
3060
3060
3060
ENDCHAR
STARTCHAR C024045
ENCODING 10277
SWIDTH 1600 0
DWIDTH 16 0
BBX 0 0 0 0
BITMAP
ENDCHAR
STARTCHAR C024046
ENCODING 10278
SWIDTH 1600 0
DWIDTH 16 0
BBX 9 10 4 0
BITMAP
C180
C180
C180
C180
C180
C180
F180
F180
F180
DF00
ENDCHAR
STARTCHAR C024050
ENCODING 10280
SWIDTH 1600 0
DWIDTH 16 0
BBX 8 10 5 0
BITMAP
C0
C0
C0
C0
D8
C0
C0
C0
C0
FF
ENDCHAR
STARTCHAR C024051
ENCODING 10281
SWIDTH 1600 0
DWIDTH 16 0
BBX 10 10 4 0
BITMAP
3000
3C00
3800
3800
3000
7000
F000
F000
3000
3FC0
ENDCHAR
STARTCHAR C024052
ENCODING 10282
SWIDTH 1600 0
DWIDTH 16 0
BBX 10 11 3 0
BITMAP
1E00
33C0
6180
63C0
C6C0
CCC0
CCC0
78C0
70C0
7180
DF00
ENDCHAR
STARTCHAR C024053
ENCODING 10283
SWIDTH 1600 0
DWIDTH 16 0
BBX 14 11 1 0
BITMAP
1E00
73F8
6300
C300
C300
C3F8
C300
C300
6300
6300
3FFC
ENDCHAR
STARTCHAR C024054
ENCODING 10284
SWIDTH 1600 0
DWIDTH 16 0
BBX 8 10 4 0
BITMAP
3E
63
63
63
63
63
36
1C
00
FF
ENDCHAR
STARTCHAR C024055
ENCODING 10285
SWIDTH 1600 0
DWIDTH 16 0
BBX 8 10 5 0
BITMAP
C0
C0
C0
FE
C3
C3
C7
FE
C0
C0
ENDCHAR
STARTCHAR C024056
ENCODING 10286
SWIDTH 1600 0
DWIDTH 16 0
BBX 9 10 4 0
BITMAP
FF80
1800
1800
1800
1800
FF00
1800
1800
1800
1800
ENDCHAR
STARTCHAR C024057
ENCODING 10287
SWIDTH 1600 0
DWIDTH 16 0
BBX 7 11 5 0
BITMAP
7C
CE
06
06
06
06
06
06
06
06
1C
ENDCHAR
STARTCHAR C024061
ENCODING 10289
SWIDTH 1600 0
DWIDTH 16 0
BBX 14 14 1 -1
BITMAP
0FC0
3870
7038
6018
FFEC
C06C
C06C
C06C
C06C
C0CC
6018
7038
3870
0FC0
ENDCHAR
STARTCHAR C024062
ENCODING 10290
SWIDTH 1600 0
DWIDTH 16 0
BBX 14 14 1 -1
BITMAP
0FC0
3870
7038
6018
D80C
D80C
D80C
D80C
D80C
D80C
7FF8
7038
3870
0FC0
ENDCHAR
STARTCHAR C024063
ENCODING 10291
SWIDTH 1600 0
DWIDTH 16 0
BBX 14 14 1 -1
BITMAP
0FC0
3870
7038
6018
DFEC
D80C
D80C
D80C
D80C
D80C
7FF8
6018
3870
0FC0
ENDCHAR
STARTCHAR C024064
ENCODING 10292
SWIDTH 1600 0
DWIDTH 16 0
BBX 14 14 1 -1
BITMAP
0FC0
3870
7038
6018
DFEC
C06C
C06C
CFEC
CC0C
CC0C
6FF8
7038
3870
0FC0
ENDCHAR
STARTCHAR C024065
ENCODING 10293
SWIDTH 1600 0
DWIDTH 16 0
BBX 14 14 1 -1
BITMAP
0FC0
3870
7038
6018
DFEC
D86C
D86C
D86C
D86C
D86C
7FE8
7038
3870
0FC0
ENDCHAR
STARTCHAR C024066
ENCODING 10294
SWIDTH 1600 0
DWIDTH 16 0
BBX 14 14 1 -1
BITMAP
0FC0
3870
7038
6018
D86C
D86C
DFEC
D86C
D86C
D86C
7FE8
7038
3870
0FC0
ENDCHAR
STARTCHAR C024067
ENCODING 10295
SWIDTH 1600 0
DWIDTH 16 0
BBX 14 14 1 -1
BITMAP
0FC0
3870
7038
6018
C30C
C30C
C30C
C78C
CCCC
D86C
6038
7038
3870
0FC0
ENDCHAR
STARTCHAR C024070
ENCODING 10296
SWIDTH 1600 0
DWIDTH 16 0
BBX 14 14 1 -1
BITMAP
0FC0
3870
7038
6798
CCCC
D86C
D86C
D86C
D86C
CCCC
6798
7038
3870
0FC0
ENDCHAR
STARTCHAR C024071
ENCODING 10297
SWIDTH 1600 0
DWIDTH 16 0
BBX 14 14 1 -1
BITMAP
0FC0
3870
7038
6018
DFFC
C30C
C38C
C78C
C6CC
DC7C
6018
7038
3870
0FC0
ENDCHAR
STARTCHAR C024072
ENCODING 10298
SWIDTH 1600 0
DWIDTH 16 0
BBX 14 14 1 -1
BITMAP
0FC0
3870
7038
67D8
C00C
DFFC
C30C
C38C
C6CC
DC6C
6038
7038
3870
0FC0
ENDCHAR
STARTCHAR C024073
ENCODING 10299
SWIDTH 1600 0
DWIDTH 16 0
BBX 14 14 1 -1
BITMAP
0FC0
3870
7038
6018
DFEC
C06C
C1EC
DF6C
C06C
C0CC
6018
7038
3870
0FC0
ENDCHAR
STARTCHAR C024074
ENCODING 10300
SWIDTH 1600 0
DWIDTH 16 0
BBX 14 14 1 -1
BITMAP
0FC0
3870
7038
6018
DFEC
D80C
D80C
DFEC
D80C
D80C
7FF8
7038
3870
0FC0
ENDCHAR
STARTCHAR C024075
ENCODING 10301
SWIDTH 1600 0
DWIDTH 16 0
BBX 14 14 1 -1
BITMAP
0FC0
3870
7038
6018
DFFC
C00C
CCCC
CCCC
CCCC
C6CC
7FF8
7038
3870
0FC0
ENDCHAR
STARTCHAR C024076
ENCODING 10302
SWIDTH 1600 0
DWIDTH 16 0
BBX 14 14 1 -1
BITMAP
0FC0
3870
7038
67D8
C00C
DFFC
CFCC
DCEC
D86C
D86C
7CF8
7FF8
3870
0FC0
ENDCHAR
STARTCHAR C024077
ENCODING 10303
SWIDTH 1600 0
DWIDTH 16 0
BBX 14 14 1 -1
BITMAP
0FC0
3870
7078
6078
DF6C
C36C
C36C
C67C
C66C
DC6C
6078
7078
3870
0FC0
ENDCHAR
STARTCHAR C024100
ENCODING 10304
SWIDTH 1600 0
DWIDTH 16 0
BBX 14 14 1 -1
BITMAP
0FC0
3870
7078
6078
D86C
D86C
D86C
D87C
D86C
DFEC
6078
7078
3870
0FC0
ENDCHAR
STARTCHAR C024101
ENCODING 10305
SWIDTH 1600 0
DWIDTH 16 0
BBX 14 14 1 -1
BITMAP
0FC0
3870
7078
6078
DFEC
D86C
D86C
D87C
D86C
DBEC
6E78
7078
3870
0FC0
ENDCHAR
STARTCHAR C024102
ENCODING 10306
SWIDTH 1600 0
DWIDTH 16 0
BBX 14 14 1 -1
BITMAP
0FC0
3870
7078
6078
DF6C
C36C
DF6C
D87C
D86C
DFEC
6078
7078
3870
0FC0
ENDCHAR
STARTCHAR C024103
ENCODING 10307
SWIDTH 1600 0
DWIDTH 16 0
BBX 14 14 1 -1
BITMAP
0FC0
3870
7078
6078
DF6C
DB6C
DB6C
DB7C
DB6C
DF6C
6078
7078
3870
0FC0
ENDCHAR
STARTCHAR C024104
ENCODING 10308
SWIDTH 1600 0
DWIDTH 16 0
BBX 14 14 1 -1
BITMAP
0FC0
3870
7078
6078
DB6C
DB6C
DF6C
DB7C
DB6C
DB6C
7F78
7078
3870
0FC0
ENDCHAR
STARTCHAR C024105
ENCODING 10309
SWIDTH 1600 0
DWIDTH 16 0
BBX 14 14 1 -1
BITMAP
0FC0
3870
7078
6078
C66C
C66C
C66C
CF7C
CF6C
D9EC
6078
7078
3870
0FC0
ENDCHAR
STARTCHAR C024106
ENCODING 10310
SWIDTH 1600 0
DWIDTH 16 0
BBX 14 14 1 -1
BITMAP
0FC0
3870
7078
6078
CE6C
DB6C
DB6C
DB7C
DB6C
DB6C
6E78
7078
3870
0FC0
ENDCHAR
STARTCHAR C024107
ENCODING 10311
SWIDTH 1600 0
DWIDTH 16 0
BBX 14 14 1 -1
BITMAP
0FC0
3870
7078
6078
DFEC
C66C
C66C
CE7C
CF6C
D9EC
6078
7078
3870
0FC0
ENDCHAR
STARTCHAR C024110
ENCODING 10312
SWIDTH 1600 0
DWIDTH 16 0
BBX 14 14 1 -1
BITMAP
0FC0
3870
7078
6F78
C06C
DFEC
C66C
C67C
CF6C
CF6C
79F8
7078
3870
0FC0
ENDCHAR
STARTCHAR C024111
ENCODING 10313
SWIDTH 1600 0
DWIDTH 16 0
BBX 14 14 1 -1
BITMAP
0FC0
3870
7078
6078
DF6C
C36C
C36C
DF7C
C36C
C66C
6C78
7078
3870
0FC0
ENDCHAR
STARTCHAR C024112
ENCODING 10314
SWIDTH 1600 0
DWIDTH 16 0
BBX 14 14 1 -1
BITMAP
0FC0
3870
7078
6078
DFEC
D86C
D86C
DF7C
D86C
D86C
7FF8
7078
3870
0FC0
ENDCHAR
STARTCHAR C024113
ENCODING 10315
SWIDTH 1600 0
DWIDTH 16 0
BBX 14 14 1 -1
BITMAP
0FC0
3870
7078
6078
DFEC
C06C
DB6C
DB7C
DB6C
FFEC
6078
7078
3870
0FC0
ENDCHAR
STARTCHAR C024114
ENCODING 10316
SWIDTH 1600 0
DWIDTH 16 0
BBX 14 14 1 -1
BITMAP
0FC0
3870
7078
6F78
C06C
FFEC
C06C
DF7C
DB6C
DB6C
7F78
7078
3870
0FC0
ENDCHAR
STARTCHAR C024115
ENCODING 10317
SWIDTH 1600 0
DWIDTH 16 0
BBX 14 14 1 -1
BITMAP
0FC0
3870
7038
6018
C78C
CCCC
CCCC
C7CC
CCCC
CCCC
6FF8
7038
3870
0FC0
ENDCHAR
STARTCHAR C024116
ENCODING 10318
SWIDTH 1600 0
DWIDTH 16 0
BBX 14 14 1 -1
BITMAP
0FC0
3870
7C38
6C18
CC0C
CFCC
CEEC
CC6C
CC6C
CC6C
6EF8
7FF8
3870
0FC0
ENDCHAR
STARTCHAR C024117
ENCODING 10319
SWIDTH 1600 0
DWIDTH 16 0
BBX 14 14 1 -1
BITMAP
0FC0
3870
7038
6018
C78C
CECC
CCCC
CC0C
CCCC
CECC
6798
7038
3870
0FC0
ENDCHAR
STARTCHAR C024120
ENCODING 10320
SWIDTH 1600 0
DWIDTH 16 0
BBX 14 14 1 -1
BITMAP
0FC0
3870
7078
6078
C06C
C7EC
CEEC
CC6C
CC6C
CC6C
6EF8
77F8
3870
0FC0
ENDCHAR
STARTCHAR C024121
ENCODING 10321
SWIDTH 1600 0
DWIDTH 16 0
BBX 14 14 1 -1
BITMAP
0FC0
3870
7038
6018
C78C
CCCC
CCCC
CFCC
CC0C
CCCC
6798
7038
3870
0FC0
ENDCHAR
STARTCHAR C024122
ENCODING 10322
SWIDTH 1600 0
DWIDTH 16 0
BBX 14 14 1 -1
BITMAP
0FC0
3870
7038
6398
C30C
C7CC
C30C
C30C
C30C
C30C
6318
7338
3870
0FC0
ENDCHAR
STARTCHAR C024123
ENCODING 10323
SWIDTH 1600 0
DWIDTH 16 0
BBX 14 14 1 -1
BITMAP
0FC0
3870
7038
6F98
DDCC
D8CC
D8CC
D8CC
DDCC
CFCC
6CD8
7FB8
3830
0FC0
ENDCHAR
STARTCHAR C024124
ENCODING 10324
SWIDTH 1600 0
DWIDTH 16 0
BBX 14 14 1 -1
BITMAP
0FC0
3870
7C38
6C18
CC0C
CFCC
CCCC
CCCC
CCCC
CCCC
6CD8
7CF8
3870
0FC0
ENDCHAR
STARTCHAR C024125
ENCODING 10325
SWIDTH 1600 0
DWIDTH 16 0
BBX 14 14 1 -1
BITMAP
0FC0
3870
7038
6318
C00C
C30C
C30C
C30C
C30C
C30C
6318
7338
3870
0FC0
ENDCHAR
STARTCHAR C024126
ENCODING 10326
SWIDTH 1600 0
DWIDTH 16 0
BBX 14 14 1 -1
BITMAP
0FC0
3870
7338
6018
C30C
C30C
C30C
C30C
C30C
C30C
6318
7338
3F70
0FC0
ENDCHAR
STARTCHAR C024127
ENCODING 10327
SWIDTH 1600 0
DWIDTH 16 0
BBX 14 14 1 -1
BITMAP
0FC0
3870
7638
6618
C60C
C60C
C7CC
C78C
C78C
C6CC
66D8
7678
3870
0FC0
ENDCHAR
STARTCHAR C024130
ENCODING 10328
SWIDTH 1600 0
DWIDTH 16 0
BBX 14 14 1 -1
BITMAP
0FC0
3870
7338
6318
C30C
C30C
C30C
C30C
C30C
C30C
6318
7338
3870
0FC0
ENDCHAR
STARTCHAR C024131
ENCODING 10329
SWIDTH 1600 0
DWIDTH 16 0
BBX 14 14 1 -1
BITMAP
0FC0
3870
7038
6018
DFEC
DB6C
DB6C
DB6C
DB6C
DB6C
7B68
7038
3870
0FC0
ENDCHAR
STARTCHAR C024132
ENCODING 10330
SWIDTH 1600 0
DWIDTH 16 0
BBX 14 14 1 -1
BITMAP
0FC0
3870
7038
6018
CFCC
CCCC
CCCC
CCCC
CCCC
CCCC
6CD8
7038
3870
0FC0
ENDCHAR
STARTCHAR C024133
ENCODING 10331
SWIDTH 1600 0
DWIDTH 16 0
BBX 14 14 1 -1
BITMAP
0FC0
3870
7038
6018
C7CC
CEEC
CC6C
CC6C
CC6C
C6CC
67D8
7038
3870
0FC0
ENDCHAR
STARTCHAR C024134
ENCODING 10332
SWIDTH 1600 0
DWIDTH 16 0
BBX 14 14 1 -1
BITMAP
0FC0
3870
7038
6FD8
CEEC
CC6C
CC6C
CC6C
CEEC
CFCC
6C18
7C38
3870
0FC0
ENDCHAR
STARTCHAR C024135
ENCODING 10333
SWIDTH 1600 0
DWIDTH 16 0
BBX 14 14 1 -1
BITMAP
0FC0
3870
7038
67F8
CEEC
CC6C
CC6C
CC6C
CEEC
C7EC
6078
7078
3870
0FC0
ENDCHAR
STARTCHAR C024136
ENCODING 10334
SWIDTH 1600 0
DWIDTH 16 0
BBX 14 14 1 -1
BITMAP
0FC0
3870
7038
6018
C78C
C70C
C60C
C60C
C60C
C60C
6618
7038
3870
0FC0
ENDCHAR
STARTCHAR C024137
ENCODING 10335
SWIDTH 1600 0
DWIDTH 16 0
BBX 14 14 1 -1
BITMAP
0FC0
3870
7038
6798
C6CC
C60C
C78C
C0CC
CCCC
C6CC
6798
7038
3870
0FC0
ENDCHAR
STARTCHAR C024140
ENCODING 10336
SWIDTH 1600 0
DWIDTH 16 0
BBX 14 14 1 -1
BITMAP
0FC0
3870
7038
6318
C30C
C7CC
C30C
C30C
C30C
C30C
6318
73F8
3870
0FC0
ENDCHAR
STARTCHAR C024141
ENCODING 10337
SWIDTH 1600 0
DWIDTH 16 0
BBX 14 14 1 -1
BITMAP
0FC0
3870
7038
6018
CCCC
CCCC
CCCC
CCCC
CCCC
CCCC
6FD8
7038
3870
0FC0
ENDCHAR
STARTCHAR C024142
ENCODING 10338
SWIDTH 1600 0
DWIDTH 16 0
BBX 14 14 1 -1
BITMAP
0FC0
3870
7038
6018
CC6C
CC6C
C6CC
C78C
C78C
C30C
6318
7038
3870
0FC0
ENDCHAR
STARTCHAR C024143
ENCODING 10339
SWIDTH 1600 0
DWIDTH 16 0
BBX 14 14 1 -1
BITMAP
0FC0
3870
7038
6018
DB3C
DBBC
DBEC
DFEC
CFEC
CEEC
6ED8
70F8
3870
0FC0
ENDCHAR
STARTCHAR C024144
ENCODING 10340
SWIDTH 1600 0
DWIDTH 16 0
BBX 14 14 1 -1
BITMAP
0FC0
3870
7038
6018
C6CC
C78C
C38C
C30C
C78C
C6CC
6C18
7038
3870
0FC0
ENDCHAR
STARTCHAR C024145
ENCODING 10341
SWIDTH 1600 0
DWIDTH 16 0
BBX 14 14 1 -1
BITMAP
0FC0
3870
7038
6CD8
CCCC
C6CC
C78C
C78C
C38C
C30C
6318
7F38
3870
0FC0
ENDCHAR
STARTCHAR C024146
ENCODING 10342
SWIDTH 1600 0
DWIDTH 16 0
BBX 14 14 1 -1
BITMAP
0FC0
3870
7038
6018
CFCC
C0CC
C18C
C30C
C60C
C60C
6FF8
7038
3870
0FC0
ENDCHAR
STARTCHAR C024147
ENCODING 10343
SWIDTH 1600 0
DWIDTH 16 0
BBX 14 14 1 -1
BITMAP
0FC0
3870
7038
6198
C18C
C78C
C18C
C18C
C18C
C18C
6198
71B8
3870
0FC0
ENDCHAR
STARTCHAR C024150
ENCODING 10344
SWIDTH 1600 0
DWIDTH 16 0
BBX 14 14 1 -1
BITMAP
0FC0
3870
7038
6798
CCCC
CCCC
CCCC
C18C
C30C
CE0C
6C18
7FF8
3870
0FC0
ENDCHAR
STARTCHAR C024151
ENCODING 10345
SWIDTH 1600 0
DWIDTH 16 0
BBX 14 14 1 -1
BITMAP
0FC0
3870
7038
6798
CCCC
CCCC
CCCC
C7CC
CCEC
CC6C
6E78
77F8
3870
0FC0
ENDCHAR
STARTCHAR C024152
ENCODING 10346
SWIDTH 1600 0
DWIDTH 16 0
BBX 14 14 1 -1
BITMAP
0FC0
3870
7038
6198
C38C
C78C
C78C
CD8C
D98C
DFEC
6198
71B8
3870
0FC0
ENDCHAR
STARTCHAR C024153
ENCODING 10347
SWIDTH 1600 0
DWIDTH 16 0
BBX 14 14 1 -1
BITMAP
0FC0
3870
7038
67F8
C60C
C60C
C7CC
C6EC
C06C
CC6C
66F8
77B8
3870
0FC0
ENDCHAR
STARTCHAR C024154
ENCODING 10348
SWIDTH 1600 0
DWIDTH 16 0
BBX 14 14 1 -1
BITMAP
0FC0
3870
7038
63D8
C6CC
CC0C
CFCC
CEEC
CC6C
CC6C
6EF8
77F8
3870
0FC0
ENDCHAR
STARTCHAR C024155
ENCODING 10349
SWIDTH 1600 0
DWIDTH 16 0
BBX 14 14 1 -1
BITMAP
0FC0
3870
7038
6FF8
C0CC
C0CC
C18C
C18C
C30C
C30C
6318
7038
3870
0FC0
ENDCHAR
STARTCHAR C024156
ENCODING 10350
SWIDTH 1600 0
DWIDTH 16 0
BBX 14 14 1 -1
BITMAP
0FC0
3870
7038
6798
CCCC
CCCC
CCCC
C78C
CCCC
CC6C
6C78
77F8
3870
0FC0
ENDCHAR
STARTCHAR C024157
ENCODING 10351
SWIDTH 1600 0
DWIDTH 16 0
BBX 14 14 1 -1
BITMAP
0FC0
3870
7038
67D8
CEEC
CC6C
CC6C
CEEC
C7EC
CC6C
66D8
77B8
3870
0FC0
ENDCHAR
STARTCHAR C024160
ENCODING 10352
SWIDTH 1600 0
DWIDTH 16 0
BBX 14 14 1 -1
BITMAP
0FC0
3870
7038
6CF8
CDBC
FDBC
CDBC
CDBC
CDBC
CDBC
6CF8
7038
3870
0FC0
ENDCHAR
STARTCHAR C024161
ENCODING 10353
SWIDTH 1600 0
DWIDTH 16 0
BBX 14 14 1 -1
BITMAP
0FC0
3870
7038
6C78
CC6C
FDEC
CC6C
CC6C
CC6C
CC6C
6C78
7038
3870
0FC0
ENDCHAR
STARTCHAR C024162
ENCODING 10354
SWIDTH 1600 0
DWIDTH 16 0
BBX 14 14 1 -1
BITMAP
0FC0
3870
7038
6CF8
CDBC
FC3C
CC3C
CC6C
CCCC
CD8C
6FF8
7038
3870
0FC0
ENDCHAR
STARTCHAR C024163
ENCODING 10355
SWIDTH 1600 0
DWIDTH 16 0
BBX 14 14 1 -1
BITMAP
0FC0
3870
7038
6C18
CDEC
FF3C
CC6C
CCEC
CF3C
CF3C
6DF8
7038
3870
0FC0
ENDCHAR
STARTCHAR C024164
ENCODING 10356
SWIDTH 1600 0
DWIDTH 16 0
BBX 14 14 1 -1
BITMAP
0FC0
3870
7038
6C78
CCEC
FCEC
CDEC
CF6C
CFFC
CC6C
6C78
7038
3870
0FC0
ENDCHAR
STARTCHAR C024165
ENCODING 10357
SWIDTH 1600 0
DWIDTH 16 0
BBX 14 14 1 -1
BITMAP
0FC0
3870
7038
6DF8
CD8C
FDCC
CDFC
CC3C
CC3C
CDFC
6DF8
7038
3870
0FC0
ENDCHAR
STARTCHAR C024166
ENCODING 10358
SWIDTH 1600 0
DWIDTH 16 0
BBX 12 11 2 0
BITMAP
3000
3180
F300
3300
36E0
37B0
3DB0
3C60
18C0
1980
01F0
ENDCHAR
STARTCHAR C024167
ENCODING 10359
SWIDTH 1600 0
DWIDTH 16 0
BBX 12 11 2 0
BITMAP
3000
3180
F300
3300
36F0
37B0
3C30
3C60
1830
19B0
00F0
ENDCHAR
STARTCHAR C024170
ENCODING 10360
SWIDTH 1600 0
DWIDTH 16 0
BBX 12 11 2 0
BITMAP
70C0
D8C0
D980
3980
63F0
C3B0
FE30
0660
0C30
0DB0
18F0
ENDCHAR
STARTCHAR C024171
ENCODING 10361
SWIDTH 1600 0
DWIDTH 16 0
BBX 12 11 2 0
BITMAP
3180
7180
F300
3360
36E0
37E0
3DE0
3F60
1BF0
1860
0060
ENDCHAR
STARTCHAR C024172
ENCODING 10362
SWIDTH 1600 0
DWIDTH 16 0
BBX 11 11 3 0
BITMAP
F180
DB00
1B00
76C0
1FC0
1FC0
FFC0
1EC0
1FE0
30C0
30C0
ENDCHAR
STARTCHAR C024173
ENCODING 10363
SWIDTH 1600 0
DWIDTH 16 0
BBX 12 11 2 0
BITMAP
3000
3180
F300
3300
36F0
37B0
3DB0
3CE0
19B0
19B0
00F0
ENDCHAR
STARTCHAR C024174
ENCODING 10364
SWIDTH 1600 0
DWIDTH 16 0
BBX 12 11 2 0
BITMAP
78C0
D8C0
1980
3180
1BF0
CFB0
7FB0
06E0
0DB0
0DB0
18F0
ENDCHAR
STARTCHAR C024175
ENCODING 10365
SWIDTH 1600 0
DWIDTH 16 0
BBX 12 11 2 0
BITMAP
7CC0
6180
7180
7F00
0FF0
CFB0
FFB0
0CE0
0DB0
19B0
18F0
ENDCHAR
STARTCHAR C024176
ENCODING 10366
SWIDTH 1600 0
DWIDTH 16 0
BBX 11 11 3 0
BITMAP
F800
1B00
3600
3600
6DE0
6F60
7B60
19C0
3360
3360
01E0
ENDCHAR
STARTCHAR C024177
ENCODING 10367
SWIDTH 1600 0
DWIDTH 16 0
BBX 0 0 0 0
BITMAP
ENDCHAR
STARTCHAR C024441
ENCODING 10529
SWIDTH 1600 0
DWIDTH 16 0
BBX 12 8 2 0
BITMAP
7FE0
6730
0630
1FF0
7600
C630
CE30
7FE0
ENDCHAR
STARTCHAR C024442
ENCODING 10530
SWIDTH 1600 0
DWIDTH 16 0
BBX 9 11 4 0
BITMAP
0300
0780
0F00
3F00
6700
C300
C300
C300
C300
6700
7F00
ENDCHAR
STARTCHAR C024443
ENCODING 10531
SWIDTH 1600 0
DWIDTH 16 0
BBX 7 11 5 0
BITMAP
6C
38
78
0C
0C
7E
C6
C6
C6
C6
7C
ENDCHAR
STARTCHAR C024444
ENCODING 10532
SWIDTH 1600 0
DWIDTH 16 0
BBX 8 10 4 0
BITMAP
30
FC
60
7E
33
33
33
33
33
33
ENDCHAR
STARTCHAR C024445
ENCODING 10533
SWIDTH 1600 0
DWIDTH 16 0
BBX 2 7 7 0
BITMAP
C0
C0
C0
C0
C0
C0
C0
ENDCHAR
STARTCHAR C024446
ENCODING 10534
SWIDTH 1600 0
DWIDTH 16 0
BBX 4 12 7 -1
BITMAP
30
00
30
30
30
30
30
30
30
30
30
E0
ENDCHAR
STARTCHAR C024447
ENCODING 10535
SWIDTH 1600 0
DWIDTH 16 0
BBX 7 8 5 0
BITMAP
C0
CC
F8
F0
D8
CC
CC
C6
ENDCHAR
STARTCHAR C024450
ENCODING 10536
SWIDTH 1600 0
DWIDTH 16 0
BBX 5 11 6 0
BITMAP
C0
C0
C0
C0
C0
D8
D8
C0
C0
C0
C0
ENDCHAR
STARTCHAR C024451
ENCODING 10537
SWIDTH 1600 0
DWIDTH 16 0
BBX 6 10 5 0
BITMAP
30
30
3C
38
30
70
F0
F0
30
30
ENDCHAR
STARTCHAR C024452
ENCODING 10538
SWIDTH 1600 0
DWIDTH 16 0
BBX 9 8 4 0
BITMAP
3F80
6300
CF80
D980
F180
E180
E300
3E00
ENDCHAR
STARTCHAR C024453
ENCODING 10539
SWIDTH 1600 0
DWIDTH 16 0
BBX 13 8 2 0
BITMAP
39E0
6F30
C618
C618
C3F8
C618
E730
7DF0
ENDCHAR
STARTCHAR C024454
ENCODING 10540
SWIDTH 1600 0
DWIDTH 16 0
BBX 8 11 5 0
BITMAP
7C
E6
C6
C6
DC
CE
C6
C3
C3
C6
FC
ENDCHAR
STARTCHAR C024455
ENCODING 10541
SWIDTH 1600 0
DWIDTH 16 0
BBX 7 12 5 -1
BITMAP
C0
C0
C0
FC
EC
C6
C6
C6
C6
EE
FC
C0
ENDCHAR
STARTCHAR C024456
ENCODING 10542
SWIDTH 1600 0
DWIDTH 16 0
BBX 5 10 6 0
BITMAP
60
60
60
F8
60
F8
60
60
60
70
ENDCHAR
STARTCHAR C024457
ENCODING 10543
SWIDTH 1600 0
DWIDTH 16 0
BBX 6 10 5 -1
BITMAP
F8
EC
CC
CC
CC
CC
CC
CC
0C
3C
ENDCHAR
STARTCHAR C024460
ENCODING 10544
SWIDTH 1600 0
DWIDTH 16 0
BBX 10 9 3 0
BITMAP
7000
7F80
DCC0
18C0
18C0
18C0
18C0
18C0
18C0
ENDCHAR
STARTCHAR C024461
ENCODING 10545
SWIDTH 1600 0
DWIDTH 16 0
BBX 14 12 1 -1
BITMAP
3030
6018
6018
DFEC
C06C
C06C
C06C
C06C
C00C
6018
6018
3030
ENDCHAR
STARTCHAR C024462
ENCODING 10546
SWIDTH 1600 0
DWIDTH 16 0
BBX 14 12 1 -1
BITMAP
3030
6018
6018
D80C
D80C
D80C
D80C
D80C
D80C
7FF8
6018
3030
ENDCHAR
STARTCHAR C024463
ENCODING 10547
SWIDTH 1600 0
DWIDTH 16 0
BBX 14 12 1 -1
BITMAP
3030
6018
6018
DFEC
D80C
D80C
D80C
D80C
D80C
7FF8
6018
3030
ENDCHAR
STARTCHAR C024464
ENCODING 10548
SWIDTH 1600 0
DWIDTH 16 0
BBX 14 12 1 -1
BITMAP
3030
6018
6018
DFEC
C06C
C06C
DFEC
D80C
D80C
7FF8
6018
3030
ENDCHAR
STARTCHAR C024465
ENCODING 10549
SWIDTH 1600 0
DWIDTH 16 0
BBX 14 12 1 -1
BITMAP
3030
6018
6018
DFFC
D83C
D83C
D83C
D83C
DFFC
6018
6018
3030
ENDCHAR
STARTCHAR C024466
ENCODING 10550
SWIDTH 1600 0
DWIDTH 16 0
BBX 14 12 1 -1
BITMAP
3030
6018
6018
C00C
D83C
D83C
DFFC
D83C
D83C
7FF8
6018
3030
ENDCHAR
STARTCHAR C024467
ENCODING 10551
SWIDTH 1600 0
DWIDTH 16 0
BBX 14 12 1 -1
BITMAP
3030
6018
6018
C30C
C30C
C30C
C78C
CFCC
DCEC
6038
6018
3030
ENDCHAR
STARTCHAR C024470
ENCODING 10552
SWIDTH 1600 0
DWIDTH 16 0
BBX 14 12 1 -1
BITMAP
3030
6018
67D8
CC6C
D83C
D83C
D83C
D83C
CC6C
67D8
6018
3030
ENDCHAR
STARTCHAR C024471
ENCODING 10553
SWIDTH 1600 0
DWIDTH 16 0
BBX 14 12 1 -1
BITMAP
3030
6018
6018
FFFC
C30C
C30C
C78C
CCCC
D86C
6038
6018
3030
ENDCHAR
STARTCHAR C024472
ENCODING 10554
SWIDTH 1600 0
DWIDTH 16 0
BBX 14 12 1 -1
BITMAP
3030
6018
6FD8
C00C
DFFC
C30C
C38C
C78C
CCEC
7838
6018
3030
ENDCHAR
STARTCHAR C024473
ENCODING 10555
SWIDTH 1600 0
DWIDTH 16 0
BBX 14 12 1 -1
BITMAP
3030
6018
6018
CFFC
C03C
C03C
DFBC
C03C
C06C
6018
6018
3030
ENDCHAR
STARTCHAR C024474
ENCODING 10556
SWIDTH 1600 0
DWIDTH 16 0
BBX 14 12 1 -1
BITMAP
3030
6018
6018
DFEC
D80C
D80C
DFEC
D80C
D80C
7FF8
6018
3030
ENDCHAR
STARTCHAR C024475
ENCODING 10557
SWIDTH 1600 0
DWIDTH 16 0
BBX 14 12 1 -1
BITMAP
3030
6018
6018
DFFC
C00C
CCCC
CCCC
CCCC
C6CC
7FF8
6018
3030
ENDCHAR
STARTCHAR C024476
ENCODING 10558
SWIDTH 1600 0
DWIDTH 16 0
BBX 14 12 1 -1
BITMAP
3030
6018
6FD8
C00C
DFFC
C7CC
CC6C
CC6C
CCEC
67D8
6018
3030
ENDCHAR
STARTCHAR C024477
ENCODING 10559
SWIDTH 1600 0
DWIDTH 16 0
BBX 14 12 1 -1
BITMAP
3030
6078
6078
DF6C
C36C
C36C
C67C
C66C
DC6C
6078
6078
3030
ENDCHAR
STARTCHAR C024500
ENCODING 10560
SWIDTH 1600 0
DWIDTH 16 0
BBX 14 12 1 -1
BITMAP
3030
6078
6078
D86C
D86C
D86C
D87C
D86C
DFEC
6078
6078
3030
ENDCHAR
STARTCHAR C024501
ENCODING 10561
SWIDTH 1600 0
DWIDTH 16 0
BBX 14 12 1 -1
BITMAP
3030
6078
6078
DFEC
D86C
D86C
D87C
D86C
DFEC
6078
6078
3030
ENDCHAR
STARTCHAR C024502
ENCODING 10562
SWIDTH 1600 0
DWIDTH 16 0
BBX 14 12 1 -1
BITMAP
3030
6078
6078
DF6C
C36C
C36C
DF7C
D86C
D86C
7FF8
6078
3030
ENDCHAR
STARTCHAR C024503
ENCODING 10563
SWIDTH 1600 0
DWIDTH 16 0
BBX 14 12 1 -1
BITMAP
3030
6078
6078
DF6C
DB6C
DB6C
DB7C
DB6C
DF6C
6078
6078
3030
ENDCHAR
STARTCHAR C024504
ENCODING 10564
SWIDTH 1600 0
DWIDTH 16 0
BBX 14 12 1 -1
BITMAP
3030
6078
6078
DB6C
DB6C
DF6C
DB7C
DB6C
DB6C
7F78
6078
3030
ENDCHAR
STARTCHAR C024505
ENCODING 10565
SWIDTH 1600 0
DWIDTH 16 0
BBX 14 12 1 -1
BITMAP
3030
6078
6078
C66C
C66C
C66C
CE7C
CF6C
D9EC
6078
6078
3030
ENDCHAR
STARTCHAR C024506
ENCODING 10566
SWIDTH 1600 0
DWIDTH 16 0
BBX 14 12 1 -1
BITMAP
3030
6078
6078
CE6C
DB6C
DB6C
DB7C
DB6C
DB6C
6E78
6078
3030
ENDCHAR
STARTCHAR C024507
ENCODING 10567
SWIDTH 1600 0
DWIDTH 16 0
BBX 14 12 1 -1
BITMAP
3030
6078
6078
DFEC
C66C
C66C
CE7C
CF6C
D9EC
6078
6078
3030
ENDCHAR
STARTCHAR C024510
ENCODING 10568
SWIDTH 1600 0
DWIDTH 16 0
BBX 14 12 1 -1
BITMAP
3030
6078
6F78
C06C
DFEC
C66C
C67C
CE6C
DB6C
61F8
6078
3030
ENDCHAR
STARTCHAR C024511
ENCODING 10569
SWIDTH 1600 0
DWIDTH 16 0
BBX 14 12 1 -1
BITMAP
3030
6078
6078
DF6C
C36C
C76C
DF7C
C66C
C66C
7C78
6078
3030
ENDCHAR
STARTCHAR C024512
ENCODING 10570
SWIDTH 1600 0
DWIDTH 16 0
BBX 14 12 1 -1
BITMAP
3030
6078
6078
DFEC
D86C
D86C
DF7C
D86C
D86C
7FF8
6078
3030
ENDCHAR
STARTCHAR C024513
ENCODING 10571
SWIDTH 1600 0
DWIDTH 16 0
BBX 14 12 1 -1
BITMAP
3030
6078
6078
DFEC
C06C
DB6C
DB7C
DB6C
FFEC
6078
6078
3030
ENDCHAR
STARTCHAR C024514
ENCODING 10572
SWIDTH 1600 0
DWIDTH 16 0
BBX 14 12 1 -1
BITMAP
3030
6078
6F78
C06C
FFEC
C06C
DF7C
DB6C
DB6C
7F78
6078
3030
ENDCHAR
STARTCHAR C024515
ENCODING 10573
SWIDTH 1600 0
DWIDTH 16 0
BBX 14 12 1 -1
BITMAP
3030
6018
6018
C78C
CCCC
CCCC
C7CC
CCCC
CCCC
6FF8
6018
3030
ENDCHAR
STARTCHAR C024516
ENCODING 10574
SWIDTH 1600 0
DWIDTH 16 0
BBX 14 12 1 -1
BITMAP
3030
6C18
6C18
CC0C
CFCC
CEEC
CC6C
CC6C
CC6C
6EF8
6FD8
3030
ENDCHAR
STARTCHAR C024517
ENCODING 10575
SWIDTH 1600 0
DWIDTH 16 0
BBX 14 12 1 -1
BITMAP
3030
6018
6018
C78C
CECC
CCCC
CC0C
CCCC
CECC
6798
6018
3030
ENDCHAR
STARTCHAR C024520
ENCODING 10576
SWIDTH 1600 0
DWIDTH 16 0
BBX 14 12 1 -1
BITMAP
3030
60D8
60D8
C0CC
C7CC
CFCC
CCCC
CCCC
CCCC
6FD8
67D8
3030
ENDCHAR
STARTCHAR C024521
ENCODING 10577
SWIDTH 1600 0
DWIDTH 16 0
BBX 14 12 1 -1
BITMAP
3030
6018
6018
C78C
CECC
CCCC
CFCC
CC6C
CC6C
67D8
6018
3030
ENDCHAR
STARTCHAR C024522
ENCODING 10578
SWIDTH 1600 0
DWIDTH 16 0
BBX 14 12 1 -1
BITMAP
3030
6018
6398
C30C
C7CC
C30C
C30C
C30C
C30C
6318
6318
3030
ENDCHAR
STARTCHAR C024523
ENCODING 10579
SWIDTH 1600 0
DWIDTH 16 0
BBX 14 12 1 -1
BITMAP
3030
6018
67F8
CEEC
CC6C
CC6C
CC6C
CEEC
C7EC
6678
67D8
3030
ENDCHAR
STARTCHAR C024524
ENCODING 10580
SWIDTH 1600 0
DWIDTH 16 0
BBX 14 12 1 -1
BITMAP
3030
6C18
6C18
CC0C
CFCC
CC6C
CC6C
CC6C
CC6C
6C78
6C78
3030
ENDCHAR
STARTCHAR C024525
ENCODING 10581
SWIDTH 1600 0
DWIDTH 16 0
BBX 14 12 1 -1
BITMAP
3030
6018
6318
C00C
C30C
C30C
C30C
C30C
C30C
6318
6318
3030
ENDCHAR
STARTCHAR C024526
ENCODING 10582
SWIDTH 1600 0
DWIDTH 16 0
BBX 14 12 1 -1
BITMAP
3030
6318
6018
C30C
C30C
C30C
C30C
C30C
C30C
6318
6318
3F30
ENDCHAR
STARTCHAR C024527
ENCODING 10583
SWIDTH 1600 0
DWIDTH 16 0
BBX 14 12 1 -1
BITMAP
3030
6618
6618
C60C
C6CC
C78C
C78C
C78C
C6CC
66D8
6678
3030
ENDCHAR
STARTCHAR C024530
ENCODING 10584
SWIDTH 1600 0
DWIDTH 16 0
BBX 14 12 1 -1
BITMAP
3030
6318
6318
C30C
C30C
C30C
C30C
C30C
C30C
6318
6318
3030
ENDCHAR
STARTCHAR C024531
ENCODING 10585
SWIDTH 1600 0
DWIDTH 16 0
BBX 14 12 1 -1
BITMAP
3030
6018
6018
DFFC
DB3C
DB3C
DB3C
DB3C
DB3C
7B38
6018
3030
ENDCHAR
STARTCHAR C024532
ENCODING 10586
SWIDTH 1600 0
DWIDTH 16 0
BBX 14 12 1 -1
BITMAP
3030
6018
6018
CF8C
CCCC
CCCC
CCCC
CCCC
CCCC
6CD8
6018
3030
ENDCHAR
STARTCHAR C024533
ENCODING 10587
SWIDTH 1600 0
DWIDTH 16 0
BBX 14 12 1 -1
BITMAP
3030
6018
6018
C7CC
CEEC
CC6C
CC6C
CC6C
C6CC
67D8
6018
3030
ENDCHAR
STARTCHAR C024534
ENCODING 10588
SWIDTH 1600 0
DWIDTH 16 0
BBX 14 12 1 -1
BITMAP
3030
6018
6FD8
CEEC
CC6C
CC6C
CC6C
CEEC
CFCC
6C18
6C18
3030
ENDCHAR
STARTCHAR C024535
ENCODING 10589
SWIDTH 1600 0
DWIDTH 16 0
BBX 14 12 1 -1
BITMAP
3030
6018
67F8
CEEC
CC6C
CC6C
CC6C
CEEC
C7EC
6078
6078
3030
ENDCHAR
STARTCHAR C024536
ENCODING 10590
SWIDTH 1600 0
DWIDTH 16 0
BBX 14 12 1 -1
BITMAP
3030
6018
6018
C7CC
C70C
C60C
C60C
C60C
C60C
6618
6018
3030
ENDCHAR
STARTCHAR C024537
ENCODING 10591
SWIDTH 1600 0
DWIDTH 16 0
BBX 14 12 1 -1
BITMAP
3030
6018
6798
C6CC
C60C
C78C
C0CC
CCCC
C6CC
6798
6018
3030
ENDCHAR
STARTCHAR C024540
ENCODING 10592
SWIDTH 1600 0
DWIDTH 16 0
BBX 14 12 1 -1
BITMAP
3030
6018
6318
C30C
C7CC
C30C
C30C
C30C
C30C
6318
63D8
3030
ENDCHAR
STARTCHAR C024541
ENCODING 10593
SWIDTH 1600 0
DWIDTH 16 0
BBX 14 12 1 -1
BITMAP
3030
6018
6018
CCCC
CCCC
CCCC
CCCC
CCCC
CCCC
67D8
6018
3030
ENDCHAR
STARTCHAR C024542
ENCODING 10594
SWIDTH 1600 0
DWIDTH 16 0
BBX 14 12 1 -1
BITMAP
3030
6018
6018
CC0C
CCCC
C6CC
C78C
C78C
C38C
6318
6018
3030
ENDCHAR
STARTCHAR C024543
ENCODING 10595
SWIDTH 1600 0
DWIDTH 16 0
BBX 14 12 1 -1
BITMAP
3030
6018
6018
DB3C
DBBC
DBEC
DFEC
CFEC
CEEC
6ED8
60D8
3030
ENDCHAR
STARTCHAR C024544
ENCODING 10596
SWIDTH 1600 0
DWIDTH 16 0
BBX 14 12 1 -1
BITMAP
3030
6018
6018
C0CC
C78C
C38C
C30C
C78C
C6CC
6CD8
6018
3030
ENDCHAR
STARTCHAR C024545
ENCODING 10597
SWIDTH 1600 0
DWIDTH 16 0
BBX 14 12 1 -1
BITMAP
3030
6018
6CD8
CCCC
C6CC
C78C
C78C
C38C
C30C
6318
6318
3630
ENDCHAR
STARTCHAR C024546
ENCODING 10598
SWIDTH 1600 0
DWIDTH 16 0
BBX 14 12 1 -1
BITMAP
3030
6018
6018
CFCC
C0CC
C18C
C30C
C60C
C60C
6FF8
6018
3030
ENDCHAR
STARTCHAR C024547
ENCODING 10599
SWIDTH 1600 0
DWIDTH 16 0
BBX 14 12 1 -1
BITMAP
3030
6018
6198
C18C
C78C
C18C
C18C
C18C
C18C
6198
6198
3030
ENDCHAR
STARTCHAR C024550
ENCODING 10600
SWIDTH 1600 0
DWIDTH 16 0
BBX 14 12 1 -1
BITMAP
3030
6798
6CD8
CCCC
CCCC
C0CC
C38C
C60C
CC0C
6C18
6FD8
3030
ENDCHAR
STARTCHAR C024551
ENCODING 10601
SWIDTH 1600 0
DWIDTH 16 0
BBX 14 12 1 -1
BITMAP
3030
6018
6798
CCCC
CCCC
CCCC
C78C
CCEC
CC6C
6E78
67D8
3030
ENDCHAR
STARTCHAR C024552
ENCODING 10602
SWIDTH 1600 0
DWIDTH 16 0
BBX 14 12 1 -1
BITMAP
3030
6018
6198
C38C
C78C
C78C
CD8C
D98C
DFEC
6198
6198
3030
ENDCHAR
STARTCHAR C024553
ENCODING 10603
SWIDTH 1600 0
DWIDTH 16 0
BBX 14 12 1 -1
BITMAP
3030
6018
67F8
C60C
C60C
C7CC
C6EC
C06C
CC6C
66F8
67D8
3030
ENDCHAR
STARTCHAR C024554
ENCODING 10604
SWIDTH 1600 0
DWIDTH 16 0
BBX 14 12 1 -1
BITMAP
3030
6018
63D8
C6CC
CC0C
CFCC
CE6C
CC6C
CC6C
6EF8
67D8
3030
ENDCHAR
STARTCHAR C024555
ENCODING 10605
SWIDTH 1600 0
DWIDTH 16 0
BBX 14 12 1 -1
BITMAP
3030
6018
6FF8
C0CC
C0CC
C18C
C18C
C30C
C30C
6318
6018
3030
ENDCHAR
STARTCHAR C024556
ENCODING 10606
SWIDTH 1600 0
DWIDTH 16 0
BBX 14 12 1 -1
BITMAP
3030
6018
6798
CCCC
CCCC
CCCC
C78C
CCCC
CC6C
6CF8
67D8
3030
ENDCHAR
STARTCHAR C024557
ENCODING 10607
SWIDTH 1600 0
DWIDTH 16 0
BBX 14 12 1 -1
BITMAP
3030
6018
67D8
CECC
CC6C
CC6C
CEEC
C7EC
CC6C
66D8
6798
3030
ENDCHAR
STARTCHAR C024560
ENCODING 10608
SWIDTH 1600 0
DWIDTH 16 0
BBX 14 12 1 -1
BITMAP
3030
6CF8
6DF8
FDBC
CDBC
CDBC
CDBC
CDBC
CDBC
6DB8
6DF8
3C30
ENDCHAR
STARTCHAR C024561
ENCODING 10609
SWIDTH 1600 0
DWIDTH 16 0
BBX 14 12 1 -1
BITMAP
3030
6C78
6C78
FDEC
CC6C
CC6C
CC6C
CC6C
CC6C
6C78
6C78
3C70
ENDCHAR
STARTCHAR C024562
ENCODING 10610
SWIDTH 1600 0
DWIDTH 16 0
BBX 14 12 1 -1
BITMAP
3030
6C78
6DF8
FDBC
CC3C
CC6C
CCCC
CD8C
CD8C
6F18
6F18
3FF0
ENDCHAR
STARTCHAR C024563
ENCODING 10611
SWIDTH 1600 0
DWIDTH 16 0
BBX 14 12 1 -1
BITMAP
3030
6DD8
6F78
FC6C
CC6C
CDCC
CC6C
CC3C
CDBC
6DB8
6DF8
3CF0
ENDCHAR
STARTCHAR C024564
ENCODING 10612
SWIDTH 1600 0
DWIDTH 16 0
BBX 14 12 1 -1
BITMAP
3030
6CF8
6CF8
FDEC
CDEC
CDEC
CF6C
CF6C
CFFC
6C78
6C78
3C30
ENDCHAR
STARTCHAR C024565
ENCODING 10613
SWIDTH 1600 0
DWIDTH 16 0
BBX 14 12 1 -1
BITMAP
3030
6DF8
6D98
FD8C
CD8C
CDEC
CDBC
CC3C
CC3C
6DB8
6DB8
3CF0
ENDCHAR
STARTCHAR C024566
ENCODING 10614
SWIDTH 1600 0
DWIDTH 16 0
BBX 4 7 6 5
BITMAP
30
F0
30
30
30
30
30
ENDCHAR
STARTCHAR C024567
ENCODING 10615
SWIDTH 1600 0
DWIDTH 16 0
BBX 5 7 6 5
BITMAP
70
D8
D8
30
60
C0
F8
ENDCHAR
STARTCHAR C024570
ENCODING 10616
SWIDTH 1600 0
DWIDTH 16 0
BBX 5 7 6 5
BITMAP
F0
D8
30
70
18
18
F0
ENDCHAR
STARTCHAR C024571
ENCODING 10617
SWIDTH 1600 0
DWIDTH 16 0
BBX 6 6 5 6
BITMAP
38
38
78
D8
FC
18
ENDCHAR
STARTCHAR C024572
ENCODING 10618
SWIDTH 1600 0
DWIDTH 16 0
BBX 5 5 6 6
BITMAP
F8
D8
D8
D8
D8
ENDCHAR
STARTCHAR C024573
ENCODING 10619
SWIDTH 1600 0
DWIDTH 16 0
BBX 4 7 6 -1
BITMAP
30
F0
30
30
30
30
30
ENDCHAR
STARTCHAR C024574
ENCODING 10620
SWIDTH 1600 0
DWIDTH 16 0
BBX 5 7 6 -1
BITMAP
70
D8
D8
30
60
C0
F8
ENDCHAR
STARTCHAR C024575
ENCODING 10621
SWIDTH 1600 0
DWIDTH 16 0
BBX 6 7 6 -1
BITMAP
78
CC
18
38
0C
CC
78
ENDCHAR
STARTCHAR C024576
ENCODING 10622
SWIDTH 1600 0
DWIDTH 16 0
BBX 6 7 5 -1
BITMAP
38
38
78
F8
FC
18
18
ENDCHAR
STARTCHAR C024577
ENCODING 10623
SWIDTH 1600 0
DWIDTH 16 0
BBX 0 0 0 0
BITMAP
ENDCHAR
STARTCHAR C025041
ENCODING 10785
SWIDTH 1600 0
DWIDTH 16 0
BBX 8 8 4 -1
BITMAP
36
7C
30
3F
7F
FB
33
E6
ENDCHAR
STARTCHAR C025042
ENCODING 10786
SWIDTH 1600 0
DWIDTH 16 0
BBX 12 12 2 -1
BITMAP
0C00
1980
7F00
1980
1980
1FC0
3B60
6E30
CE30
CC30
CC60
7CC0
ENDCHAR
STARTCHAR C025043
ENCODING 10787
SWIDTH 1600 0
DWIDTH 16 0
BBX 9 6 4 -1
BITMAP
C600
C300
C300
C180
7800
7000
ENDCHAR
STARTCHAR C025044
ENCODING 10788
SWIDTH 1600 0
DWIDTH 16 0
BBX 12 10 3 0
BITMAP
C000
C180
C0C0
C0C0
C060
C060
6030
6C00
3C00
1800
ENDCHAR
STARTCHAR C025045
ENCODING 10789
SWIDTH 1600 0
DWIDTH 16 0
BBX 6 8 5 -1
BITMAP
1C
00
7C
CC
0C
0C
0C
18
ENDCHAR
STARTCHAR C025046
ENCODING 10790
SWIDTH 1600 0
DWIDTH 16 0
BBX 8 13 4 -1
BITMAP
30
1E
00
1C
77
C3
03
03
03
06
06
0C
18
ENDCHAR
STARTCHAR C025047
ENCODING 10791
SWIDTH 1600 0
DWIDTH 16 0
BBX 7 9 5 -1
BITMAP
30
1C
18
F8
30
38
78
D8
0E
ENDCHAR
STARTCHAR C025050
ENCODING 10792
SWIDTH 1600 0
DWIDTH 16 0
BBX 11 12 3 -1
BITMAP
1800
0F00
0000
0700
7E00
0600
0C00
1800
1E00
3600
6600
C3E0
ENDCHAR
STARTCHAR C025051
ENCODING 10793
SWIDTH 1600 0
DWIDTH 16 0
BBX 9 9 4 -1
BITMAP
3000
3300
F980
3000
3F00
7300
F300
F600
6000
ENDCHAR
STARTCHAR C025052
ENCODING 10794
SWIDTH 1600 0
DWIDTH 16 0
BBX 12 12 3 -1
BITMAP
3000
3000
3CE0
F870
3000
3300
3FC0
7060
F060
F060
F0C0
7380
ENDCHAR
STARTCHAR C025053
ENCODING 10795
SWIDTH 1600 0
DWIDTH 16 0
BBX 13 12 2 -1
BITMAP
0C00
0C00
0C00
0F60
F9B0
1998
1998
3180
3180
6300
6300
0E00
ENDCHAR
STARTCHAR C025054
ENCODING 10796
SWIDTH 1600 0
DWIDTH 16 0
BBX 13 12 2 -1
BITMAP
0C78
0C30
0C00
0F60
F9B0
1998
1998
3180
3180
6300
6300
0E00
ENDCHAR
STARTCHAR C025055
ENCODING 10797
SWIDTH 1600 0
DWIDTH 16 0
BBX 9 12 4 -1
BITMAP
1E00
FC00
0F80
0E00
FE00
0600
3F00
E780
0000
C000
7600
1C00
ENDCHAR
STARTCHAR C025056
ENCODING 10798
SWIDTH 1600 0
DWIDTH 16 0
BBX 11 13 4 -1
BITMAP
01E0
1EC0
FC00
0F80
1E00
F600
0600
3F00
E780
0000
C000
7600
1C00
ENDCHAR
STARTCHAR C025057
ENCODING 10799
SWIDTH 1600 0
DWIDTH 16 0
BBX 6 13 5 -1
BITMAP
0C
18
30
30
60
C0
C0
60
30
30
18
0C
0C
ENDCHAR
STARTCHAR C025060
ENCODING 10800
SWIDTH 1600 0
DWIDTH 16 0
BBX 9 13 5 -1
BITMAP
0C00
1800
3180
3000
6300
C000
C000
6000
3000
3000
1800
1800
0C00
ENDCHAR
STARTCHAR C025061
ENCODING 10801
SWIDTH 1600 0
DWIDTH 16 0
BBX 11 12 3 -1
BITMAP
6180
6180
C1E0
DFC0
C180
C180
C180
F180
E180
E300
6300
6600
ENDCHAR
STARTCHAR C025062
ENCODING 10802
SWIDTH 1600 0
DWIDTH 16 0
BBX 12 13 3 -1
BITMAP
0030
61E0
6180
C1E0
DFC0
C180
C180
C180
F180
E180
E300
6300
6600
ENDCHAR
STARTCHAR C025063
ENCODING 10803
SWIDTH 1600 0
DWIDTH 16 0
BBX 9 11 3 0
BITMAP
6000
3F80
0000
0000
0000
0000
0000
0000
C000
6000
3F80
ENDCHAR
STARTCHAR C025064
ENCODING 10804
SWIDTH 1600 0
DWIDTH 16 0
BBX 12 11 3 0
BITMAP
6000
3F80
0030
0060
0000
0000
0000
0000
C000
6000
3F80
ENDCHAR
STARTCHAR C025065
ENCODING 10805
SWIDTH 1600 0
DWIDTH 16 0
BBX 10 12 3 -1
BITMAP
0C00
0C00
0780
7E00
0300
0300
0180
7F80
60C0
C000
6000
3F00
ENDCHAR
STARTCHAR C025066
ENCODING 10806
SWIDTH 1600 0
DWIDTH 16 0
BBX 12 12 3 -1
BITMAP
0C30
0CC0
0780
7E00
0300
0300
3F80
63C0
C000
6000
7000
1F00
ENDCHAR
STARTCHAR C025067
ENCODING 10807
SWIDTH 1600 0
DWIDTH 16 0
BBX 9 12 4 -1
BITMAP
C000
C000
C000
C000
C000
C000
C000
C000
C180
C180
6300
7E00
ENDCHAR
STARTCHAR C025070
ENCODING 10808
SWIDTH 1600 0
DWIDTH 16 0
BBX 9 12 4 -1
BITMAP
C000
C300
C780
C300
C000
C000
C000
C000
C180
C180
6300
7E00
ENDCHAR
STARTCHAR C025071
ENCODING 10809
SWIDTH 1600 0
DWIDTH 16 0
BBX 13 13 2 -1
BITMAP
0300
0300
FFF8
0300
0F00
1B00
1B00
1B00
1F00
0300
0600
0600
1C00
ENDCHAR
STARTCHAR C025072
ENCODING 10810
SWIDTH 1600 0
DWIDTH 16 0
BBX 13 13 2 -1
BITMAP
0378
0330
FFF8
0300
0F00
1B00
1B00
1B00
1F00
0300
0600
0600
1C00
ENDCHAR
STARTCHAR C025073
ENCODING 10811
SWIDTH 1600 0
DWIDTH 16 0
BBX 12 12 3 -1
BITMAP
0180
3180
3180
3180
FFF0
3180
3180
3180
3700
3000
3800
1FC0
ENDCHAR
STARTCHAR C025074
ENCODING 10812
SWIDTH 1600 0
DWIDTH 16 0
BBX 13 12 2 -1
BITMAP
00D8
18F0
18C0
18C0
FFF8
18C0
18C0
18C0
1B80
1800
1C00
0FE0
ENDCHAR
STARTCHAR C025075
ENCODING 10813
SWIDTH 1600 0
DWIDTH 16 0
BBX 12 12 3 -1
BITMAP
0180
3180
1B00
0670
1FC0
F300
0600
0C00
0C00
0C00
0600
03C0
ENDCHAR
STARTCHAR C025076
ENCODING 10814
SWIDTH 1600 0
DWIDTH 16 0
BBX 12 12 3 -1
BITMAP
0180
31C0
1B60
0670
1FC0
F300
0600
0C00
0C00
0C00
0600
03C0
ENDCHAR
STARTCHAR C025077
ENCODING 10815
SWIDTH 1600 0
DWIDTH 16 0
BBX 12 12 2 -1
BITMAP
1800
1800
1800
FE00
1BF0
1800
3000
3000
3000
6000
6700
C1F0
ENDCHAR
STARTCHAR C025100
ENCODING 10816
SWIDTH 1600 0
DWIDTH 16 0
BBX 13 12 2 -1
BITMAP
1800
1818
1830
FE00
1BF0
1800
3000
3000
3000
6000
6700
C1F0
ENDCHAR
STARTCHAR C025101
ENCODING 10817
SWIDTH 1600 0
DWIDTH 16 0
BBX 11 12 3 -1
BITMAP
3000
3000
3300
FE00
3000
3000
37C0
7C60
7060
6060
00C0
0F80
ENDCHAR
STARTCHAR C025102
ENCODING 10818
SWIDTH 1600 0
DWIDTH 16 0
BBX 12 12 3 -1
BITMAP
3000
3030
3360
FE00
3000
3000
37C0
7C60
7060
6060
00C0
0F80
ENDCHAR
STARTCHAR C025103
ENCODING 10819
SWIDTH 1600 0
DWIDTH 16 0
BBX 8 7 4 -1
BITMAP
1E
F3
03
03
03
06
1C
ENDCHAR
STARTCHAR C025104
ENCODING 10820
SWIDTH 1600 0
DWIDTH 16 0
BBX 11 9 3 0
BITMAP
1F80
F0C0
0060
0060
0060
0060
00C0
0180
0F00
ENDCHAR
STARTCHAR C025105
ENCODING 10821
SWIDTH 1600 0
DWIDTH 16 0
BBX 13 11 2 0
BITMAP
0018
0030
1FC0
F060
0030
0030
0030
0030
0060
01C0
0700
ENDCHAR
STARTCHAR C025106
ENCODING 10822
SWIDTH 1600 0
DWIDTH 16 0
BBX 11 11 3 -1
BITMAP
07E0
FF00
0600
0C00
0C00
1800
1800
1800
0C00
0600
03C0
ENDCHAR
STARTCHAR C025107
ENCODING 10823
SWIDTH 1600 0
DWIDTH 16 0
BBX 11 11 3 -1
BITMAP
07E0
FF00
0600
0C60
0C00
1800
1800
1800
0C00
0600
03C0
ENDCHAR
STARTCHAR C025110
ENCODING 10824
SWIDTH 1600 0
DWIDTH 16 0
BBX 8 12 4 -1
BITMAP
60
60
30
37
3C
30
60
C0
C0
C0
E0
3F
ENDCHAR
STARTCHAR C025111
ENCODING 10825
SWIDTH 1600 0
DWIDTH 16 0
BBX 11 12 4 -1
BITMAP
6000
6060
30C0
3700
3C00
3000
6000
C000
C000
C000
E000
3F00
ENDCHAR
STARTCHAR C025112
ENCODING 10826
SWIDTH 1600 0
DWIDTH 16 0
BBX 12 12 2 -1
BITMAP
1800
7E60
1830
1980
3180
3180
6180
C180
0FC0
19E0
0D80
0700
ENDCHAR
STARTCHAR C025113
ENCODING 10827
SWIDTH 1600 0
DWIDTH 16 0
BBX 11 11 3 -1
BITMAP
6000
6FE0
6000
C000
C000
C000
C000
C000
EE00
E3C0
6000
ENDCHAR
STARTCHAR C025114
ENCODING 10828
SWIDTH 1600 0
DWIDTH 16 0
BBX 13 11 2 -1
BITMAP
0600
6600
6FE0
3E60
3630
7C30
DC30
CC30
DBF0
7378
01C0
ENDCHAR
STARTCHAR C025115
ENCODING 10829
SWIDTH 1600 0
DWIDTH 16 0
BBX 13 13 2 -1
BITMAP
3000
3000
3000
7BE0
F670
3C30
3030
7030
F030
F3F0
3378
33C0
3000
ENDCHAR
STARTCHAR C025116
ENCODING 10830
SWIDTH 1600 0
DWIDTH 16 0
BBX 12 10 2 0
BITMAP
0E00
3FC0
7660
EC30
CC30
CC30
D830
D860
F060
71C0
ENDCHAR
STARTCHAR C025117
ENCODING 10831
SWIDTH 1600 0
DWIDTH 16 0
BBX 11 12 3 -1
BITMAP
0180
6180
6180
CFE0
C180
C180
C180
C180
C780
FDE0
F980
6F00
ENDCHAR
STARTCHAR C025120
ENCODING 10832
SWIDTH 1600 0
DWIDTH 16 0
BBX 12 12 3 -1
BITMAP
01B0
61E0
6180
DFE0
C180
C180
C180
C180
C780
FDE0
F980
6F00
ENDCHAR
STARTCHAR C025121
ENCODING 10833
SWIDTH 1600 0
DWIDTH 16 0
BBX 12 13 3 -1
BITMAP
00F0
01F0
61F0
6180
CFE0
C180
C180
C180
C180
C780
FDE0
F980
6F00
ENDCHAR
STARTCHAR C025122
ENCODING 10834
SWIDTH 1600 0
DWIDTH 16 0
BBX 12 11 2 -1
BITMAP
38C0
F8C0
30E0
60F0
60C0
60C0
60C0
6180
6180
3300
1E00
ENDCHAR
STARTCHAR C025123
ENCODING 10835
SWIDTH 1600 0
DWIDTH 16 0
BBX 13 12 2 -1
BITMAP
0018
38F0
F8C0
30E0
60F0
60C0
60C0
60C0
6180
6180
3300
1E00
ENDCHAR
STARTCHAR C025124
ENCODING 10836
SWIDTH 1600 0
DWIDTH 16 0
BBX 14 12 2 -1
BITMAP
003C
38FC
F8FC
30E0
60F0
60C0
60C0
60C0
6180
6180
3300
1E00
ENDCHAR
STARTCHAR C025125
ENCODING 10837
SWIDTH 1600 0
DWIDTH 16 0
BBX 13 12 2 -1
BITMAP
0C00
0600
0300
0000
0C00
0C00
0600
0660
0330
F318
6F00
0600
ENDCHAR
STARTCHAR C025126
ENCODING 10838
SWIDTH 1600 0
DWIDTH 16 0
BBX 13 12 2 -1
BITMAP
0C00
0600
0330
0060
0C00
0C00
0600
0660
0330
F318
6F00
0600
ENDCHAR
STARTCHAR C025127
ENCODING 10839
SWIDTH 1600 0
DWIDTH 16 0
BBX 13 12 2 -1
BITMAP
0C00
0600
0378
0078
0C78
0C00
0600
0660
0330
F318
6F00
0600
ENDCHAR
STARTCHAR C025130
ENCODING 10840
SWIDTH 1600 0
DWIDTH 16 0
BBX 13 6 2 2
BITMAP
0C00
3E00
6300
C180
00E0
0038
ENDCHAR
STARTCHAR C025131
ENCODING 10841
SWIDTH 1600 0
DWIDTH 16 0
BBX 13 7 2 2
BITMAP
0060
0CF0
3E60
6300
C180
00E0
0038
ENDCHAR
STARTCHAR C025132
ENCODING 10842
SWIDTH 1600 0
DWIDTH 16 0
BBX 13 7 2 2
BITMAP
00E0
0CF0
3EE0
6300
C180
00E0
0038
ENDCHAR
STARTCHAR C025133
ENCODING 10843
SWIDTH 1600 0
DWIDTH 16 0
BBX 13 11 2 -1
BITMAP
67F0
60C0
C0C0
C7F0
C0C0
C0C0
C0C0
C7C0
ECE0
ECF8
6780
ENDCHAR
STARTCHAR C025134
ENCODING 10844
SWIDTH 1600 0
DWIDTH 16 0
BBX 14 11 2 -1
BITMAP
6FF8
61BC
C198
CFE0
C180
C180
C180
C780
EDE0
EDB0
6F00
ENDCHAR
STARTCHAR C025135
ENCODING 10845
SWIDTH 1600 0
DWIDTH 16 0
BBX 14 11 2 -1
BITMAP
6FE0
C1B8
C1BC
CFE0
C180
C180
C180
C780
EDE0
EDB0
6F00
ENDCHAR
STARTCHAR C025136
ENCODING 10846
SWIDTH 1600 0
DWIDTH 16 0
BBX 8 12 4 -1
BITMAP
18
18
FF
18
18
FE
18
18
78
CE
DB
F0
ENDCHAR
STARTCHAR C025137
ENCODING 10847
SWIDTH 1600 0
DWIDTH 16 0
BBX 13 11 2 -1
BITMAP
1F00
0600
0660
0C60
0CC0
3FC0
78E0
D9B8
F180
6300
0600
ENDCHAR
STARTCHAR C025140
ENCODING 10848
SWIDTH 1600 0
DWIDTH 16 0
BBX 13 12 2 -1
BITMAP
1800
1800
7E60
1830
1818
7800
D800
D800
D860
7060
1860
1FC0
ENDCHAR
STARTCHAR C025141
ENCODING 10849
SWIDTH 1600 0
DWIDTH 16 0
BBX 12 12 2 -1
BITMAP
0300
0300
6300
6FC0
3EE0
3670
7E30
DC30
CC30
DC60
F060
03C0
ENDCHAR
STARTCHAR C025142
ENCODING 10850
SWIDTH 1600 0
DWIDTH 16 0
BBX 10 12 3 -1
BITMAP
1800
1800
D800
7E00
3000
3180
FF80
30C0
30C0
30C0
1980
0F00
ENDCHAR
STARTCHAR C025143
ENCODING 10851
SWIDTH 1600 0
DWIDTH 16 0
BBX 9 8 4 -1
BITMAP
1800
0000
6F80
3980
F180
3F00
3000
1800
ENDCHAR
STARTCHAR C025144
ENCODING 10852
SWIDTH 1600 0
DWIDTH 16 0
BBX 12 11 2 -1
BITMAP
0600
6300
33F0
3E30
3830
F830
0FE0
0C00
0C00
0600
0600
ENDCHAR
STARTCHAR C025145
ENCODING 10853
SWIDTH 1600 0
DWIDTH 16 0
BBX 9 8 4 -1
BITMAP
0C00
CC00
DF00
FD80
ED80
CF00
CF00
1800
ENDCHAR
STARTCHAR C025146
ENCODING 10854
SWIDTH 1600 0
DWIDTH 16 0
BBX 11 12 3 -1
BITMAP
C000
C300
C7C0
DF60
F360
E360
E360
C360
CE60
C7C0
0C00
0C00
ENDCHAR
STARTCHAR C025147
ENCODING 10855
SWIDTH 1600 0
DWIDTH 16 0
BBX 7 10 5 -1
BITMAP
30
30
3C
38
30
30
F8
3C
66
C0
ENDCHAR
STARTCHAR C025150
ENCODING 10856
SWIDTH 1600 0
DWIDTH 16 0
BBX 10 13 3 -1
BITMAP
0C00
0C00
0C00
0F80
0C00
0C00
0C00
0C00
0C00
7E00
CF80
CCC0
7800
ENDCHAR
STARTCHAR C025151
ENCODING 10857
SWIDTH 1600 0
DWIDTH 16 0
BBX 9 12 4 -1
BITMAP
7000
1800
C000
C000
C000
DF00
F180
E180
C180
0180
0300
1E00
ENDCHAR
STARTCHAR C025152
ENCODING 10858
SWIDTH 1600 0
DWIDTH 16 0
BBX 8 13 4 -1
BITMAP
60
C3
C3
C3
F3
E3
E3
E3
03
06
06
0C
0C
ENDCHAR
STARTCHAR C025153
ENCODING 10859
SWIDTH 1600 0
DWIDTH 16 0
BBX 10 11 3 -1
BITMAP
7E00
0E00
0C00
1800
3F80
60C0
C0C0
1CC0
36C0
3780
1F00
ENDCHAR
STARTCHAR C025154
ENCODING 10860
SWIDTH 1600 0
DWIDTH 16 0
BBX 13 13 2 -1
BITMAP
1800
1800
1800
1FC0
7EC0
1CC0
18C0
38C0
38C0
78D8
D8F0
18E0
1800
ENDCHAR
STARTCHAR C025155
ENCODING 10861
SWIDTH 1600 0
DWIDTH 16 0
BBX 11 12 2 -1
BITMAP
0F00
1B00
0600
0C00
1800
1FC0
3060
6060
C060
0060
00C0
0780
ENDCHAR
STARTCHAR C025156
ENCODING 10862
SWIDTH 1600 0
DWIDTH 16 0
BBX 10 9 4 -1
BITMAP
3000
3000
3800
7F80
3980
70C0
F180
3300
3600
ENDCHAR
STARTCHAR C025157
ENCODING 10863
SWIDTH 1600 0
DWIDTH 16 0
BBX 12 13 2 -1
BITMAP
1800
1800
1800
1C00
FBE0
1E30
1C30
3830
3830
7830
D860
19C0
1800
ENDCHAR
STARTCHAR C025160
ENCODING 10864
SWIDTH 1600 0
DWIDTH 16 0
BBX 11 12 3 -1
BITMAP
0600
3E00
0600
0C00
0F80
3CC0
7860
D860
D860
FF60
FDC0
6780
ENDCHAR
STARTCHAR C025161
ENCODING 10865
SWIDTH 1600 0
DWIDTH 16 0
BBX 11 13 3 -1
BITMAP
1F00
0600
0C00
1F80
38C0
6EC0
1FC0
1F80
1C00
33C0
7E60
CC60
0C00
ENDCHAR
STARTCHAR C025162
ENCODING 10866
SWIDTH 1600 0
DWIDTH 16 0
BBX 11 12 3 -1
BITMAP
1800
1B00
FE00
3000
6000
7EE0
C780
0E00
3E00
3600
3000
1F80
ENDCHAR
STARTCHAR C025163
ENCODING 10867
SWIDTH 1600 0
DWIDTH 16 0
BBX 11 12 3 -1
BITMAP
0C00
0C00
1800
1800
3000
3000
7C00
7600
6600
C660
C3C0
0380
ENDCHAR
STARTCHAR C025173
ENCODING 10875
SWIDTH 1600 0
DWIDTH 16 0
BBX 0 0 0 0
BITMAP
ENDCHAR
STARTCHAR C025441
ENCODING 11041
SWIDTH 1600 0
DWIDTH 16 0
BBX 8 6 4 0
BITMAP
FF
03
1E
18
30
30
ENDCHAR
STARTCHAR C025442
ENCODING 11042
SWIDTH 1600 0
DWIDTH 16 0
BBX 11 11 3 -1
BITMAP
FFE0
00C0
0CC0
0F80
0C00
0C00
0C00
1800
1800
3000
E000
ENDCHAR
STARTCHAR C025443
ENCODING 11043
SWIDTH 1600 0
DWIDTH 16 0
BBX 6 8 5 -1
BITMAP
0C
18
70
F0
30
30
30
30
ENDCHAR
STARTCHAR C025444
ENCODING 11044
SWIDTH 1600 0
DWIDTH 16 0
BBX 10 11 2 -1
BITMAP
00C0
0180
0300
0E00
3E00
E600
0600
0600
0600
0600
0600
ENDCHAR
STARTCHAR C025445
ENCODING 11045
SWIDTH 1600 0
DWIDTH 16 0
BBX 7 8 5 -1
BITMAP
30
FE
06
06
0C
0C
18
30
ENDCHAR
STARTCHAR C025446
ENCODING 11046
SWIDTH 1600 0
DWIDTH 16 0
BBX 10 12 3 -1
BITMAP
0C00
0C00
FFC0
C0C0
C0C0
C0C0
C180
0180
0300
0300
0600
1C00
ENDCHAR
STARTCHAR C025447
ENCODING 11047
SWIDTH 1600 0
DWIDTH 16 0
BBX 9 6 4 -1
BITMAP
FF00
1800
1800
1800
1800
FF80
ENDCHAR
STARTCHAR C025450
ENCODING 11048
SWIDTH 1600 0
DWIDTH 16 0
BBX 12 8 2 1
BITMAP
7FE0
0600
0600
0600
0600
0600
0600
FFF0
ENDCHAR
STARTCHAR C025451
ENCODING 11049
SWIDTH 1600 0
DWIDTH 16 0
BBX 9 7 4 -1
BITMAP
0C00
FF80
1C00
3C00
6C00
0C00
3C00
ENDCHAR
STARTCHAR C025452
ENCODING 11050
SWIDTH 1600 0
DWIDTH 16 0
BBX 10 12 3 -1
BITMAP
0600
0600
0600
FFC0
0E00
1E00
1E00
3600
6600
C600
0600
3C00
ENDCHAR
STARTCHAR C025453
ENCODING 11051
SWIDTH 1600 0
DWIDTH 16 0
BBX 10 11 3 0
BITMAP
0C00
0C00
0C00
FFC0
0CC0
0CC0
18C0
18C0
30C0
7180
CF00
ENDCHAR
STARTCHAR C025454
ENCODING 11052
SWIDTH 1600 0
DWIDTH 16 0
BBX 12 11 3 0
BITMAP
0C30
0C60
0C00
FFC0
0CC0
0CC0
18C0
18C0
30C0
7180
CF00
ENDCHAR
STARTCHAR C025455
ENCODING 11053
SWIDTH 1600 0
DWIDTH 16 0
BBX 11 11 3 -1
BITMAP
0C00
0CC0
7F80
0C00
0C00
0FE0
FC00
0600
0600
0600
0600
ENDCHAR
STARTCHAR C025456
ENCODING 11054
SWIDTH 1600 0
DWIDTH 16 0
BBX 11 11 3 -1
BITMAP
0C60
0DC0
7F00
0C00
0C00
0FE0
FC00
0600
0600
0600
0600
ENDCHAR
STARTCHAR C025457
ENCODING 11055
SWIDTH 1600 0
DWIDTH 16 0
BBX 9 13 3 -1
BITMAP
0C00
0C00
1800
1F80
3180
6180
C300
0600
0600
0C00
1800
7000
C000
ENDCHAR
STARTCHAR C025460
ENCODING 11056
SWIDTH 1600 0
DWIDTH 16 0
BBX 13 13 3 -1
BITMAP
0600
0C30
0C78
1FC0
18C0
3180
E180
0300
0600
0E00
1C00
3000
E000
ENDCHAR
STARTCHAR C025461
ENCODING 11057
SWIDTH 1600 0
DWIDTH 16 0
BBX 12 12 2 -1
BITMAP
0C00
0C00
1800
1FF0
3180
6300
C300
0300
0300
0600
0C00
1800
ENDCHAR
STARTCHAR C025462
ENCODING 11058
SWIDTH 1600 0
DWIDTH 16 0
BBX 13 12 2 -1
BITMAP
0C18
0C30
1800
1FF0
3180
6300
C300
0300
0300
0600
0C00
1800
ENDCHAR
STARTCHAR C025463
ENCODING 11059
SWIDTH 1600 0
DWIDTH 16 0
BBX 9 9 3 0
BITMAP
FF80
0180
0180
0180
0180
0180
0180
FF80
0180
ENDCHAR
STARTCHAR C025464
ENCODING 11060
SWIDTH 1600 0
DWIDTH 16 0
BBX 9 9 3 0
BITMAP
FF80
0180
0180
0180
0180
0180
0180
FF80
0180
ENDCHAR
STARTCHAR C025465
ENCODING 11061
SWIDTH 1600 0
DWIDTH 16 0
BBX 13 12 2 -1
BITMAP
18C0
18C0
18C0
FFF8
18C0
18C0
18C0
1980
0180
0300
0700
0C00
ENDCHAR
STARTCHAR C025466
ENCODING 11062
SWIDTH 1600 0
DWIDTH 16 0
BBX 13 12 2 -1
BITMAP
18F8
18F0
18C0
FFF8
18C0
18C0
18C0
1980
0180
0300
0300
0E00
ENDCHAR
STARTCHAR C025467
ENCODING 11063
SWIDTH 1600 0
DWIDTH 16 0
BBX 11 10 3 0
BITMAP
3000
1800
0C00
E000
3060
00C0
0180
0700
0C00
7800
ENDCHAR
STARTCHAR C025470
ENCODING 11064
SWIDTH 1600 0
DWIDTH 16 0
BBX 11 10 3 0
BITMAP
3060
1980
0C00
E000
3060
00C0
0180
0700
0C00
7800
ENDCHAR
STARTCHAR C025471
ENCODING 11065
SWIDTH 1600 0
DWIDTH 16 0
BBX 11 9 3 0
BITMAP
FF80
0180
0300
0300
0600
0700
1D80
30C0
6060
ENDCHAR
STARTCHAR C025472
ENCODING 11066
SWIDTH 1600 0
DWIDTH 16 0
BBX 12 11 3 0
BITMAP
0030
0060
FF80
0180
0300
0300
0600
0700
0D80
38C0
6060
ENDCHAR
STARTCHAR C025473
ENCODING 11067
SWIDTH 1600 0
DWIDTH 16 0
BBX 11 10 2 0
BITMAP
1800
1800
18E0
3FE0
F8C0
18C0
1980
1800
1800
0FE0
ENDCHAR
STARTCHAR C025474
ENCODING 11068
SWIDTH 1600 0
DWIDTH 16 0
BBX 13 11 2 0
BITMAP
1818
1830
1860
1FE0
F860
18C0
1980
1800
1800
1800
0FE0
ENDCHAR
STARTCHAR C025475
ENCODING 11069
SWIDTH 1600 0
DWIDTH 16 0
BBX 10 11 3 -1
BITMAP
C0C0
60C0
60C0
3180
0180
0300
0300
0600
0C00
1800
3000
ENDCHAR
STARTCHAR C025476
ENCODING 11070
SWIDTH 1600 0
DWIDTH 16 0
BBX 13 12 3 -1
BITMAP
0078
C0F0
60C0
60C0
3180
0180
0300
0300
0600
0C00
1800
3000
ENDCHAR
STARTCHAR C025477
ENCODING 11071
SWIDTH 1600 0
DWIDTH 16 0
BBX 10 12 3 -1
BITMAP
0C00
0C00
1FC0
18C0
3180
ED80
0700
0300
0600
0C00
1800
7000
ENDCHAR
STARTCHAR C025500
ENCODING 11072
SWIDTH 1600 0
DWIDTH 16 0
BBX 11 12 3 -1
BITMAP
0C00
0C60
1FC0
18C0
3180
ED80
0700
0300
0600
0C00
1800
7000
ENDCHAR
STARTCHAR C025501
ENCODING 11073
SWIDTH 1600 0
DWIDTH 16 0
BBX 13 12 2 -1
BITMAP
01C0
3F00
0300
0300
FFF8
0300
0300
0600
0600
0C00
1800
3000
ENDCHAR
STARTCHAR C025502
ENCODING 11074
SWIDTH 1600 0
DWIDTH 16 0
BBX 14 12 2 -1
BITMAP
01C0
3F0C
0300
0300
FFF8
0300
0300
0600
0600
0C00
1800
3000
ENDCHAR
STARTCHAR C025503
ENCODING 11075
SWIDTH 1600 0
DWIDTH 16 0
BBX 8 8 4 -1
BITMAP
D8
7B
63
06
06
0C
18
30
ENDCHAR
STARTCHAR C025504
ENCODING 11076
SWIDTH 1600 0
DWIDTH 16 0
BBX 11 11 3 -1
BITMAP
0060
CCC0
CCC0
60C0
00C0
0180
0180
0300
0600
0C00
3800
ENDCHAR
STARTCHAR C025505
ENCODING 11077
SWIDTH 1600 0
DWIDTH 16 0
BBX 12 13 3 -1
BITMAP
0030
0000
1830
CC00
CCC0
60C0
00C0
0180
0180
0300
0600
0C00
3800
ENDCHAR
STARTCHAR C025506
ENCODING 11078
SWIDTH 1600 0
DWIDTH 16 0
BBX 12 11 3 -1
BITMAP
7FC0
0000
0000
FFF0
0600
0600
0600
0C00
0C00
1800
3000
ENDCHAR
STARTCHAR C025507
ENCODING 11079
SWIDTH 1600 0
DWIDTH 16 0
BBX 14 11 2 -1
BITMAP
3FE0
000C
0018
FFF0
0600
0600
0600
0C00
0C00
1800
3000
ENDCHAR
STARTCHAR C025510
ENCODING 11080
SWIDTH 1600 0
DWIDTH 16 0
BBX 6 11 6 -1
BITMAP
C0
C0
C0
E0
F0
D8
CC
C0
C0
C0
C0
ENDCHAR
STARTCHAR C025511
ENCODING 11081
SWIDTH 1600 0
DWIDTH 16 0
BBX 7 12 6 -1
BITMAP
06
C0
C0
C0
E0
F0
D8
CC
C0
C0
C0
C0
ENDCHAR
STARTCHAR C025512
ENCODING 11082
SWIDTH 1600 0
DWIDTH 16 0
BBX 13 13 2 -1
BITMAP
0300
0300
0300
0300
FFF8
0300
0300
0300
0600
0600
0C00
1800
3000
ENDCHAR
STARTCHAR C025513
ENCODING 11083
SWIDTH 1600 0
DWIDTH 16 0
BBX 11 8 3 1
BITMAP
7FC0
0000
0000
0000
0000
0000
0000
FFE0
ENDCHAR
STARTCHAR C025514
ENCODING 11084
SWIDTH 1600 0
DWIDTH 16 0
BBX 10 11 3 -1
BITMAP
7F80
0180
0180
3B00
0F00
0700
0780
0CC0
1800
7000
C000
ENDCHAR
STARTCHAR C025515
ENCODING 11085
SWIDTH 1600 0
DWIDTH 16 0
BBX 11 12 3 -1
BITMAP
0600
0600
7FC0
0180
0380
0700
0F80
3EC0
E660
0600
0600
0600
ENDCHAR
STARTCHAR C025516
ENCODING 11086
SWIDTH 1600 0
DWIDTH 16 0
BBX 9 11 3 -1
BITMAP
0180
0180
0300
0300
0300
0600
0C00
0C00
1800
7000
C000
ENDCHAR
STARTCHAR C025517
ENCODING 11087
SWIDTH 1600 0
DWIDTH 16 0
BBX 12 7 2 1
BITMAP
18C0
18C0
1860
3060
3030
6030
C000
ENDCHAR
STARTCHAR C025520
ENCODING 11088
SWIDTH 1600 0
DWIDTH 16 0
BBX 13 9 2 1
BITMAP
0018
0030
18C0
18C0
1860
3060
3030
6030
C000
ENDCHAR
STARTCHAR C025521
ENCODING 11089
SWIDTH 1600 0
DWIDTH 16 0
BBX 13 10 2 1
BITMAP
0038
0078
0030
18C0
18C0
1860
3060
3030
6030
C000
ENDCHAR
STARTCHAR C025522
ENCODING 11090
SWIDTH 1600 0
DWIDTH 16 0
BBX 9 10 4 0
BITMAP
C000
C000
C300
DE00
F000
C000
C000
C000
C000
7F80
ENDCHAR
STARTCHAR C025523
ENCODING 11091
SWIDTH 1600 0
DWIDTH 16 0
BBX 10 11 4 0
BITMAP
C0C0
C000
C000
C700
FC00
E000
C000
C000
C000
C000
7F80
ENDCHAR
STARTCHAR C025524
ENCODING 11092
SWIDTH 1600 0
DWIDTH 16 0
BBX 11 12 4 0
BITMAP
00E0
C1E0
C0E0
C000
C700
FC00
E000
C000
C000
C000
C000
7F80
ENDCHAR
STARTCHAR C025525
ENCODING 11093
SWIDTH 1600 0
DWIDTH 16 0
BBX 10 11 3 -1
BITMAP
FFC0
00C0
00C0
00C0
0180
0180
0300
0600
0C00
1800
3000
ENDCHAR
STARTCHAR C025526
ENCODING 11094
SWIDTH 1600 0
DWIDTH 16 0
BBX 12 14 3 -1
BITMAP
0030
0060
0000
FFC0
00C0
00C0
00C0
0180
0180
0300
0600
0C00
1800
3000
ENDCHAR
STARTCHAR C025527
ENCODING 11095
SWIDTH 1600 0
DWIDTH 16 0
BBX 12 13 3 -1
BITMAP
0070
0070
0030
FFC0
00C0
00C0
0180
0180
0180
0300
0600
0C00
1800
ENDCHAR
STARTCHAR C025530
ENCODING 11096
SWIDTH 1600 0
DWIDTH 16 0
BBX 13 6 2 2
BITMAP
0C00
3E00
6300
C180
00E0
0038
ENDCHAR
STARTCHAR C025531
ENCODING 11097
SWIDTH 1600 0
DWIDTH 16 0
BBX 13 7 2 2
BITMAP
0060
0CC0
3E00
6300
C180
00E0
0038
ENDCHAR
STARTCHAR C025532
ENCODING 11098
SWIDTH 1600 0
DWIDTH 16 0
BBX 13 8 2 2
BITMAP
01C0
01E0
0CC0
3E00
6300
C180
00E0
0038
ENDCHAR
STARTCHAR C025533
ENCODING 11099
SWIDTH 1600 0
DWIDTH 16 0
BBX 12 12 2 -1
BITMAP
0600
0600
0600
FFF0
0600
0600
3660
3660
6630
E600
0600
1E00
ENDCHAR
STARTCHAR C025534
ENCODING 11100
SWIDTH 1600 0
DWIDTH 16 0
BBX 12 12 2 -1
BITMAP
0630
0660
0600
FFF0
0600
0600
3660
3660
6630
E600
0600
1E00
ENDCHAR
STARTCHAR C025535
ENCODING 11101
SWIDTH 1600 0
DWIDTH 16 0
BBX 12 12 2 -1
BITMAP
06F0
06F0
0660
FFF0
0600
0600
3660
3660
6630
E600
0600
1E00
ENDCHAR
STARTCHAR C025536
ENCODING 11102
SWIDTH 1600 0
DWIDTH 16 0
BBX 11 8 2 1
BITMAP
FFE0
0060
0060
00C0
0D80
0700
0300
0300
ENDCHAR
STARTCHAR C025537
ENCODING 11103
SWIDTH 1600 0
DWIDTH 16 0
BBX 7 10 5 0
BITMAP
70
1C
00
E0
38
0C
00
E0
38
0E
ENDCHAR
STARTCHAR C025540
ENCODING 11104
SWIDTH 1600 0
DWIDTH 16 0
BBX 11 10 3 0
BITMAP
0C00
0C00
0C00
1800
1800
1980
3180
30C0
FFC0
0060
ENDCHAR
STARTCHAR C025541
ENCODING 11105
SWIDTH 1600 0
DWIDTH 16 0
BBX 9 10 3 0
BITMAP
0180
0180
0300
1B00
0E00
0600
0F00
1980
3000
E000
ENDCHAR
STARTCHAR C025542
ENCODING 11106
SWIDTH 1600 0
DWIDTH 16 0
BBX 12 10 3 -1
BITMAP
7FC0
0C00
0C00
0C00
FFF0
0C00
0C00
0C00
0C00
0FE0
ENDCHAR
STARTCHAR C025543
ENCODING 11107
SWIDTH 1600 0
DWIDTH 16 0
BBX 8 7 4 -1
BITMAP
30
33
7F
F6
1E
18
18
ENDCHAR
STARTCHAR C025544
ENCODING 11108
SWIDTH 1600 0
DWIDTH 16 0
BBX 11 11 3 -1
BITMAP
3000
1800
1FE0
FCC0
18C0
1980
1800
0C00
0C00
0C00
0C00
ENDCHAR
STARTCHAR C025545
ENCODING 11109
SWIDTH 1600 0
DWIDTH 16 0
BBX 9 7 4 -1
BITMAP
7E00
0600
0600
0600
0600
0600
FF80
ENDCHAR
STARTCHAR C025546
ENCODING 11110
SWIDTH 1600 0
DWIDTH 16 0
BBX 12 8 2 1
BITMAP
3F80
0180
0180
0180
0180
0180
0180
FFF0
ENDCHAR
STARTCHAR C025547
ENCODING 11111
SWIDTH 1600 0
DWIDTH 16 0
BBX 7 7 5 -1
BITMAP
FE
06
FE
06
06
FE
06
ENDCHAR
STARTCHAR C025550
ENCODING 11112
SWIDTH 1600 0
DWIDTH 16 0
BBX 9 10 3 -1
BITMAP
FF80
0180
0180
FF80
0180
0180
0180
FF80
0180
0180
ENDCHAR
STARTCHAR C025551
ENCODING 11113
SWIDTH 1600 0
DWIDTH 16 0
BBX 10 11 3 -1
BITMAP
7F80
0000
0000
FFC0
00C0
0180
0180
0300
0600
0C00
3800
ENDCHAR
STARTCHAR C025552
ENCODING 11114
SWIDTH 1600 0
DWIDTH 16 0
BBX 7 12 5 -1
BITMAP
06
C6
C6
C6
C6
C6
C6
C6
0C
0C
18
30
ENDCHAR
STARTCHAR C025553
ENCODING 11115
SWIDTH 1600 0
DWIDTH 16 0
BBX 12 10 3 0
BITMAP
3600
3600
3600
3600
3630
3630
3660
66C0
6780
C700
ENDCHAR
STARTCHAR C025554
ENCODING 11116
SWIDTH 1600 0
DWIDTH 16 0
BBX 10 10 4 0
BITMAP
C000
C000
C000
C000
C0C0
C180
C300
C600
DC00
F000
ENDCHAR
STARTCHAR C025555
ENCODING 11117
SWIDTH 1600 0
DWIDTH 16 0
BBX 9 9 4 0
BITMAP
FF80
C180
C180
C180
C180
C180
C180
FF80
C180
ENDCHAR
STARTCHAR C025556
ENCODING 11118
SWIDTH 1600 0
DWIDTH 16 0
BBX 7 8 5 -1
BITMAP
FE
C6
C6
C6
0C
0C
18
30
ENDCHAR
STARTCHAR C025557
ENCODING 11119
SWIDTH 1600 0
DWIDTH 16 0
BBX 10 11 3 -1
BITMAP
FFC0
C0C0
C0C0
C0C0
C180
0180
0180
0300
0300
0600
0C00
ENDCHAR
STARTCHAR C025560
ENCODING 11120
SWIDTH 1600 0
DWIDTH 16 0
BBX 13 12 2 -1
BITMAP
0180
0180
0180
7FF0
1980
1980
1980
1980
FFF8
0180
0180
0180
ENDCHAR
STARTCHAR C025561
ENCODING 11121
SWIDTH 1600 0
DWIDTH 16 0
BBX 13 9 2 0
BITMAP
3FE0
0060
00C0
0780
0600
0600
0600
0600
FFF8
ENDCHAR
STARTCHAR C025562
ENCODING 11122
SWIDTH 1600 0
DWIDTH 16 0
BBX 10 11 3 -1
BITMAP
FFC0
00C0
0180
0180
FF80
0180
0300
0300
0600
1C00
7000
ENDCHAR
STARTCHAR C025563
ENCODING 11123
SWIDTH 1600 0
DWIDTH 16 0
BBX 11 10 3 0
BITMAP
C000
7000
0000
0060
00C0
0180
0300
0E00
1800
F000
ENDCHAR
STARTCHAR C025564
ENCODING 11124
SWIDTH 1600 0
DWIDTH 16 0
BBX 12 12 3 -1
BITMAP
0C30
0C60
FFC0
C0C0
C0C0
C0C0
C180
0180
0300
0600
0E00
1800
ENDCHAR
STARTCHAR C025565
ENCODING 11125
SWIDTH 1600 0
DWIDTH 16 0
BBX 8 8 4 -1
BITMAP
18
18
FF
1B
1B
33
66
CE
ENDCHAR
STARTCHAR C025566
ENCODING 11126
SWIDTH 1600 0
DWIDTH 16 0
BBX 9 8 4 -1
BITMAP
3000
6000
7F80
CC00
0C00
1800
1800
3000
ENDCHAR
STARTCHAR C026040
ENCODING 11296
SWIDTH 1600 0
DWIDTH 16 0
BBX 0 0 0 0
BITMAP
ENDCHAR
STARTCHAR C026041
ENCODING 11297
SWIDTH 1600 0
DWIDTH 16 0
BBX 9 11 4 0
BITMAP
1800
3C00
3C00
3600
6600
6600
7F00
C300
C300
C300
C180
ENDCHAR
STARTCHAR C026042
ENCODING 11298
SWIDTH 1600 0
DWIDTH 16 0
BBX 8 11 5 0
BITMAP
FF
C0
C0
C0
FE
C7
C3
C3
C3
C7
FE
ENDCHAR
STARTCHAR C026043
ENCODING 11299
SWIDTH 1600 0
DWIDTH 16 0
BBX 9 11 4 0
BITMAP
FE00
C300
C300
C300
C600
FE00
C300
C180
C180
C180
FF00
ENDCHAR
STARTCHAR C026044
ENCODING 11300
SWIDTH 1600 0
DWIDTH 16 0
BBX 7 11 5 0
BITMAP
FE
C0
C0
C0
C0
C0
C0
C0
C0
C0
C0
ENDCHAR
STARTCHAR C026045
ENCODING 11301
SWIDTH 1600 0
DWIDTH 16 0
BBX 11 11 3 0
BITMAP
3F80
3180
3180
3180
3180
3180
3180
7180
DFE0
C060
C060
ENDCHAR
STARTCHAR C026046
ENCODING 11302
SWIDTH 1600 0
DWIDTH 16 0
BBX 8 12 5 -1
BITMAP
FF
C0
C0
C0
C0
FF
C0
C0
C0
C0
E0
3F
ENDCHAR
STARTCHAR C026047
ENCODING 11303
SWIDTH 1600 0
DWIDTH 16 0
BBX 8 13 5 0
BITMAP
66
66
00
FF
C0
C0
C0
FF
C0
C0
C0
C0
FF
ENDCHAR
STARTCHAR C026050
ENCODING 11304
SWIDTH 1600 0
DWIDTH 16 0
BBX 14 11 1 0
BITMAP
3318
1B30
1B30
1B30
1FE0
1FF0
3330
6318
6318
6318
C30C
ENDCHAR
STARTCHAR C026051
ENCODING 11305
SWIDTH 1600 0
DWIDTH 16 0
BBX 9 11 4 0
BITMAP
7E00
E300
C300
0300
0E00
1E00
0300
C180
C180
6180
3F00
ENDCHAR
STARTCHAR C026052
ENCODING 11306
SWIDTH 1600 0
DWIDTH 16 0
BBX 9 11 4 0
BITMAP
C180
C380
C780
CD80
CD80
D980
D980
F180
F180
E180
C180
ENDCHAR
STARTCHAR C026053
ENCODING 11307
SWIDTH 1600 0
DWIDTH 16 0
BBX 9 11 4 0
BITMAP
3300
DF80
C380
C780
C780
CD80
D980
F180
F180
E180
C180
ENDCHAR
STARTCHAR C026054
ENCODING 11308
SWIDTH 1600 0
DWIDTH 16 0
BBX 8 11 5 0
BITMAP
C7
CC
CC
CC
D8
F8
CC
C6
C6
C6
C6
ENDCHAR
STARTCHAR C026055
ENCODING 11309
SWIDTH 1600 0
DWIDTH 16 0
BBX 10 11 3 0
BITMAP
3FC0
30C0
30C0
30C0
30C0
30C0
30C0
30C0
30C0
30C0
E0C0
ENDCHAR
STARTCHAR C026056
ENCODING 11310
SWIDTH 1600 0
DWIDTH 16 0
BBX 11 11 3 0
BITMAP
E0E0
E0E0
E1E0
F1E0
F360
DB60
DB60
DE60
CE60
CE60
C060
ENDCHAR
STARTCHAR C026057
ENCODING 11311
SWIDTH 1600 0
DWIDTH 16 0
BBX 9 11 4 0
BITMAP
C180
C180
C180
C180
C180
FF80
C180
C180
C180
C180
C180
ENDCHAR
STARTCHAR C026060
ENCODING 11312
SWIDTH 1600 0
DWIDTH 16 0
BBX 10 11 3 0
BITMAP
3F00
6180
6180
C0C0
C0C0
C0C0
C0C0
C0C0
6180
6180
3F00
ENDCHAR
STARTCHAR C026061
ENCODING 11313
SWIDTH 1600 0
DWIDTH 16 0
BBX 9 11 4 0
BITMAP
FF80
C180
C180
C180
C180
C180
C180
C180
C180
C180
C180
ENDCHAR
STARTCHAR C026062
ENCODING 11314
SWIDTH 1600 0
DWIDTH 16 0
BBX 8 11 5 0
BITMAP
FE
C3
C3
C3
C3
FE
C0
C0
C0
C0
C0
ENDCHAR
STARTCHAR C026063
ENCODING 11315
SWIDTH 1600 0
DWIDTH 16 0
BBX 10 11 4 0
BITMAP
3F00
6380
6180
C000
C000
C000
C000
C0C0
60C0
6180
3F00
ENDCHAR
STARTCHAR C026064
ENCODING 11316
SWIDTH 1600 0
DWIDTH 16 0
BBX 10 11 3 0
BITMAP
FFC0
0C00
0C00
0C00
0C00
0C00
0C00
0C00
0C00
0C00
0C00
ENDCHAR
STARTCHAR C026065
ENCODING 11317
SWIDTH 1600 0
DWIDTH 16 0
BBX 8 11 4 0
BITMAP
C0
C3
63
66
36
3C
1C
18
18
18
70
ENDCHAR
STARTCHAR C026066
ENCODING 11318
SWIDTH 1600 0
DWIDTH 16 0
BBX 11 11 3 0
BITMAP
0C00
3F80
6CC0
CC60
CC60
CC60
CC60
CCC0
6CC0
3F80
0C00
ENDCHAR
STARTCHAR C026067
ENCODING 11319
SWIDTH 1600 0
DWIDTH 16 0
BBX 8 12 4 -1
BITMAP
03
63
66
36
1C
1C
1C
3C
36
67
63
C3
ENDCHAR
STARTCHAR C026070
ENCODING 11320
SWIDTH 1600 0
DWIDTH 16 0
BBX 9 12 4 -1
BITMAP
C300
C300
C300
C300
C300
C300
C300
C300
C300
FF80
0180
0180
ENDCHAR
STARTCHAR C026071
ENCODING 11321
SWIDTH 1600 0
DWIDTH 16 0
BBX 7 12 5 0
BITMAP
06
06
06
06
06
06
CE
FE
06
06
06
06
ENDCHAR
STARTCHAR C026072
ENCODING 11322
SWIDTH 1600 0
DWIDTH 16 0
BBX 11 11 3 0
BITMAP
CC60
CC60
CC60
CC60
CC60
CC60
CC60
CC60
CC60
CC60
FFE0
ENDCHAR
STARTCHAR C026073
ENCODING 11323
SWIDTH 1600 0
DWIDTH 16 0
BBX 13 12 2 -1
BITMAP
C660
C660
C660
C660
C660
C660
C660
C660
C660
FFF8
0018
0018
ENDCHAR
STARTCHAR C026074
ENCODING 11324
SWIDTH 1600 0
DWIDTH 16 0
BBX 11 11 3 0
BITMAP
F800
1800
1800
1800
1F80
18C0
1860
1860
1860
18E0
1FC0
ENDCHAR
STARTCHAR C026075
ENCODING 11325
SWIDTH 1600 0
DWIDTH 16 0
BBX 9 11 4 0
BITMAP
C180
C180
C180
C180
F980
CF80
C780
C780
C780
C780
FD80
ENDCHAR
STARTCHAR C026076
ENCODING 11326
SWIDTH 1600 0
DWIDTH 16 0
BBX 8 11 5 0
BITMAP
C0
C0
C0
C0
FC
C6
C3
C3
C3
C3
FE
ENDCHAR
STARTCHAR C026077
ENCODING 11327
SWIDTH 1600 0
DWIDTH 16 0
BBX 10 11 3 0
BITMAP
3F00
6180
C180
00C0
00C0
1FC0
00C0
C0C0
C180
6180
3F00
ENDCHAR
STARTCHAR C026100
ENCODING 11328
SWIDTH 1600 0
DWIDTH 16 0
BBX 13 11 2 0
BITMAP
C7E0
CC30
DC30
D818
D818
F818
D818
D818
CC30
CC30
C7E0
ENDCHAR
STARTCHAR C026101
ENCODING 11329
SWIDTH 1600 0
DWIDTH 16 0
BBX 9 11 4 0
BITMAP
7F80
E180
C180
C180
E180
3F80
6180
C180
C180
C180
C180
ENDCHAR
STARTCHAR C026121
ENCODING 11345
SWIDTH 1600 0
DWIDTH 16 0
BBX 7 9 5 0
BITMAP
78
CC
CC
0C
7C
CC
CC
DC
76
ENDCHAR
STARTCHAR C026122
ENCODING 11346
SWIDTH 1600 0
DWIDTH 16 0
BBX 8 12 5 0
BITMAP
3B
6E
60
C0
FE
E7
C3
C3
C3
C3
66
3C
ENDCHAR
STARTCHAR C026123
ENCODING 11347
SWIDTH 1600 0
DWIDTH 16 0
BBX 6 9 5 0
BITMAP
F8
CC
CC
CC
F8
CC
CC
CC
F8
ENDCHAR
STARTCHAR C026124
ENCODING 11348
SWIDTH 1600 0
DWIDTH 16 0
BBX 6 9 6 0
BITMAP
FC
C0
C0
C0
C0
C0
C0
C0
C0
ENDCHAR
STARTCHAR C026125
ENCODING 11349
SWIDTH 1600 0
DWIDTH 16 0
BBX 9 10 4 -1
BITMAP
7F00
6300
6300
6300
6300
6300
C300
FF80
C180
C180
ENDCHAR
STARTCHAR C026126
ENCODING 11350
SWIDTH 1600 0
DWIDTH 16 0
BBX 8 9 5 0
BITMAP
3C
66
C6
C3
FE
C0
C0
66
3C
ENDCHAR
STARTCHAR C026127
ENCODING 11351
SWIDTH 1600 0
DWIDTH 16 0
BBX 7 11 5 0
BITMAP
6C
00
7C
6C
C6
C6
FE
C0
C6
66
7C
ENDCHAR
STARTCHAR C026130
ENCODING 11352
SWIDTH 1600 0
DWIDTH 16 0
BBX 10 9 4 0
BITMAP
C1C0
DB80
DB00
7B00
7E00
DB80
D980
D980
D980
ENDCHAR
STARTCHAR C026131
ENCODING 11353
SWIDTH 1600 0
DWIDTH 16 0
BBX 7 9 5 0
BITMAP
3C
66
C6
06
1C
C6
C6
66
3C
ENDCHAR
STARTCHAR C026132
ENCODING 11354
SWIDTH 1600 0
DWIDTH 16 0
BBX 7 9 5 -1
BITMAP
C6
CE
DE
DE
F6
E6
E6
C6
C0
ENDCHAR
STARTCHAR C026133
ENCODING 11355
SWIDTH 1600 0
DWIDTH 16 0
BBX 7 11 5 0
BITMAP
6C
78
00
C6
CE
DE
DE
F6
E6
E6
C6
ENDCHAR
STARTCHAR C026134
ENCODING 11356
SWIDTH 1600 0
DWIDTH 16 0
BBX 6 8 5 0
BITMAP
CC
CC
D8
F8
CC
CC
CC
CC
ENDCHAR
STARTCHAR C026135
ENCODING 11357
SWIDTH 1600 0
DWIDTH 16 0
BBX 8 8 4 0
BITMAP
7F
63
63
63
63
63
63
E3
ENDCHAR
STARTCHAR C026136
ENCODING 11358
SWIDTH 1600 0
DWIDTH 16 0
BBX 9 9 4 0
BITMAP
E380
E780
F780
F780
F780
DD80
DD80
DD80
C180
ENDCHAR
STARTCHAR C026137
ENCODING 11359
SWIDTH 1600 0
DWIDTH 16 0
BBX 7 9 5 0
BITMAP
C6
C6
C6
C6
FE
C6
C6
C6
C6
ENDCHAR
STARTCHAR C026140
ENCODING 11360
SWIDTH 1600 0
DWIDTH 16 0
BBX 7 9 5 0
BITMAP
7C
6C
C6
C6
C6
C6
C6
6C
3C
ENDCHAR
STARTCHAR C026141
ENCODING 11361
SWIDTH 1600 0
DWIDTH 16 0
BBX 7 9 5 0
BITMAP
FE
C6
C6
C6
C6
C6
C6
C6
C6
ENDCHAR
STARTCHAR C026142
ENCODING 11362
SWIDTH 1600 0
DWIDTH 16 0
BBX 7 10 5 -1
BITMAP
FC
EE
C6
C6
C6
C6
EE
FC
C0
C0
ENDCHAR
STARTCHAR C026143
ENCODING 11363
SWIDTH 1600 0
DWIDTH 16 0
BBX 7 9 5 0
BITMAP
3C
66
C6
C0
C0
C0
C6
66
3C
ENDCHAR
STARTCHAR C026144
ENCODING 11364
SWIDTH 1600 0
DWIDTH 16 0
BBX 7 9 5 0
BITMAP
FE
30
30
30
30
30
30
30
30
ENDCHAR
STARTCHAR C026145
ENCODING 11365
SWIDTH 1600 0
DWIDTH 16 0
BBX 6 9 5 -1
BITMAP
C0
CC
6C
78
38
30
30
30
E0
ENDCHAR
STARTCHAR C026146
ENCODING 11366
SWIDTH 1600 0
DWIDTH 16 0
BBX 12 12 2 -1
BITMAP
0600
0600
7FE0
EF70
C630
C630
C630
C630
6F70
7FE0
0600
0600
ENDCHAR
STARTCHAR C026147
ENCODING 11367
SWIDTH 1600 0
DWIDTH 16 0
BBX 7 8 5 0
BITMAP
CC
6C
78
30
78
78
CC
C6
ENDCHAR
STARTCHAR C026150
ENCODING 11368
SWIDTH 1600 0
DWIDTH 16 0
BBX 8 10 4 -1
BITMAP
C6
C6
C6
C6
C6
C6
C6
FF
03
03
ENDCHAR
STARTCHAR C026151
ENCODING 11369
SWIDTH 1600 0
DWIDTH 16 0
BBX 6 9 5 0
BITMAP
CC
CC
CC
CC
CC
7C
0C
0C
0C
ENDCHAR
STARTCHAR C026152
ENCODING 11370
SWIDTH 1600 0
DWIDTH 16 0
BBX 9 9 4 0
BITMAP
D980
D980
D980
D980
D980
D980
D980
D980
FF80
ENDCHAR
STARTCHAR C026153
ENCODING 11371
SWIDTH 1600 0
DWIDTH 16 0
BBX 9 10 4 -1
BITMAP
1B00
1B00
1B00
1B00
1B00
1B00
1B00
FF80
0180
0180
ENDCHAR
STARTCHAR C026154
ENCODING 11372
SWIDTH 1600 0
DWIDTH 16 0
BBX 7 8 5 0
BITMAP
E0
60
60
7E
66
66
66
7C
ENDCHAR
STARTCHAR C026155
ENCODING 11373
SWIDTH 1600 0
DWIDTH 16 0
BBX 8 9 4 0
BITMAP
C3
C3
C3
FB
CF
CF
CF
CF
FB
ENDCHAR
STARTCHAR C026156
ENCODING 11374
SWIDTH 1600 0
DWIDTH 16 0
BBX 6 8 5 0
BITMAP
C0
C0
C0
FC
CC
CC
CC
F8
ENDCHAR
STARTCHAR C026157
ENCODING 11375
SWIDTH 1600 0
DWIDTH 16 0
BBX 7 9 5 0
BITMAP
78
CC
C6
06
3E
06
06
CC
78
ENDCHAR
STARTCHAR C026160
ENCODING 11376
SWIDTH 1600 0
DWIDTH 16 0
BBX 11 9 3 0
BITMAP
C780
CCC0
D860
D860
F860
D860
D860
CCC0
C780
ENDCHAR
STARTCHAR C026161
ENCODING 11377
SWIDTH 1600 0
DWIDTH 16 0
BBX 6 9 5 0
BITMAP
7C
CC
CC
CC
7C
CC
CC
CC
CC
ENDCHAR
STARTCHAR C030041
ENCODING 12321
SWIDTH 1600 0
DWIDTH 16 0
BBX 15 14 1 -1
BITMAP
0018
FE18
0318
0318
0318
031E
0618
0618
0C18
1818
F018
0018
0018
0018
ENDCHAR
STARTCHAR C030042
ENCODING 12322
SWIDTH 1600 0
DWIDTH 16 0
BBX 15 14 1 -1
BITMAP
FE18
0318
0318
031E
0618
1C18
F018
0018
0000
7FF0
0018
0018
0018
0018
ENDCHAR
STARTCHAR C030043
ENCODING 12323
SWIDTH 1600 0
DWIDTH 16 0
BBX 15 14 1 -1
BITMAP
FE18
0318
0318
0318
061E
1C18
F018
0018
0018
6018
6000
6000
6000
3FF8
ENDCHAR
STARTCHAR C030044
ENCODING 12324
SWIDTH 1600 0
DWIDTH 16 0
BBX 15 14 1 -1
BITMAP
FE18
0318
0318
031E
0618
1C18
F018
0018
0000
7FF8
6000
6000
6000
3FF8
ENDCHAR
STARTCHAR C030045
ENCODING 12325
SWIDTH 1600 0
DWIDTH 16 0
BBX 15 14 1 -1
BITMAP
FE18
0318
0318
031E
0618
1C18
F018
0000
3FF0
0018
3FF8
3000
3000
1FF8
ENDCHAR
STARTCHAR C030046
ENCODING 12326
SWIDTH 1600 0
DWIDTH 16 0
BBX 15 14 1 -1
BITMAP
FE18
0318
0318
031E
0618
1C18
F018
0000
F9F0
0C18
FC18
C018
C018
7E18
ENDCHAR
STARTCHAR C030047
ENCODING 12327
SWIDTH 1600 0
DWIDTH 16 0
BBX 15 14 1 -1
BITMAP
FE18
0318
0318
031E
0618
1C18
F018
0000
79F8
0D98
0D98
7D98
6198
3EF8
ENDCHAR
STARTCHAR C030050
ENCODING 12328
SWIDTH 1600 0
DWIDTH 16 0
BBX 15 14 1 -1
BITMAP
FE18
0318
0318
031E
0618
1C18
F018
0000
7FF8
6018
6018
6018
6018
3FF8
ENDCHAR
STARTCHAR C030051
ENCODING 12329
SWIDTH 1600 0
DWIDTH 16 0
BBX 15 14 1 -1
BITMAP
FE18
0318
0318
031E
0618
1C18
F018
0000
6018
6018
7FF8
6018
6018
3FF0
ENDCHAR
STARTCHAR C030052
ENCODING 12330
SWIDTH 1600 0
DWIDTH 16 0
BBX 15 14 1 -1
BITMAP
FE18
0318
0318
031E
0618
1C18
F018
0000
C620
C620
FE70
C650
C6D8
7D8C
ENDCHAR
STARTCHAR C030053
ENCODING 12331
SWIDTH 1600 0
DWIDTH 16 0
BBX 15 14 1 -1
BITMAP
FE18
0318
0318
031E
0618
1C18
F018
0000
0000
0180
03C0
0660
1C38
300C
ENDCHAR
STARTCHAR C030054
ENCODING 12332
SWIDTH 1600 0
DWIDTH 16 0
BBX 15 14 1 -1
BITMAP
FE18
0318
0318
031E
0618
1C18
F018
0000
0000
0C60
0C60
1EF0
3398
630C
ENDCHAR
STARTCHAR C030055
ENCODING 12333
SWIDTH 1600 0
DWIDTH 16 0
BBX 15 14 1 -1
BITMAP
FE18
0318
0318
031E
0618
1C18
F018
0018
0000
1FE0
7038
6018
7038
1FE0
ENDCHAR
STARTCHAR C030056
ENCODING 12334
SWIDTH 1600 0
DWIDTH 16 0
BBX 15 14 1 -1
BITMAP
FE18
0318
0318
031E
0618
1C18
F018
0018
0000
7FF8
0300
0780
0CC0
7878
ENDCHAR
STARTCHAR C030057
ENCODING 12335
SWIDTH 1600 0
DWIDTH 16 0
BBX 15 14 1 -1
BITMAP
FE18
0318
0318
031E
0618
1C18
F018
0018
0FC0
0000
7FF8
0780
1CE0
7038
ENDCHAR
STARTCHAR C030060
ENCODING 12336
SWIDTH 1600 0
DWIDTH 16 0
BBX 15 14 1 -1
BITMAP
FE18
0318
0318
031E
0618
1C18
F018
0000
7FF8
6000
7FF8
6000
6000
3FF8
ENDCHAR
STARTCHAR C030061
ENCODING 12337
SWIDTH 1600 0
DWIDTH 16 0
BBX 15 14 1 -1
BITMAP
FE18
0318
0318
031E
0618
1C18
F018
0000
7FF8
1860
1860
1860
1860
7FF8
ENDCHAR
STARTCHAR C030062
ENCODING 12338
SWIDTH 1600 0
DWIDTH 16 0
BBX 15 14 1 -1
BITMAP
FE18
0318
0318
031E
0618
1C18
F018
0000
1FF0
0000
7FFC
1830
3018
1FF0
ENDCHAR
STARTCHAR C030063
ENCODING 12339
SWIDTH 1600 0
DWIDTH 16 0
BBX 13 14 2 -1
BITMAP
F8D8
0CD8
0CD8
0CD8
0CD8
0CF8
0CD8
18D8
30D8
60D8
C0D8
00D8
00D8
00D8
ENDCHAR
STARTCHAR C030064
ENCODING 12340
SWIDTH 1600 0
DWIDTH 16 0
BBX 13 14 2 -1
BITMAP
F8D8
0CD8
0CD8
0CF8
0CD8
38D8
E0D8
00D8
0000
7FF0
0018
0018
0018
0018
ENDCHAR
STARTCHAR C030065
ENCODING 12341
SWIDTH 1600 0
DWIDTH 16 0
BBX 13 14 2 -1
BITMAP
F8D8
0CD8
0CD8
0CF8
0CD8
38D8
E0D8
00D8
0000
3000
3000
3000
3000
1FF8
ENDCHAR
STARTCHAR C030066
ENCODING 12342
SWIDTH 1600 0
DWIDTH 16 0
BBX 13 14 2 -1
BITMAP
F8D8
0CD8
0CD8
0CF8
0CD8
38D8
E0D8
0000
3FF0
0018
3FF8
3000
3000
1FF8
ENDCHAR
STARTCHAR C030067
ENCODING 12343
SWIDTH 1600 0
DWIDTH 16 0
BBX 13 14 2 -1
BITMAP
F8D8
0CD8
0CD8
0CF8
0CD8
38D8
E0D8
00D8
0000
3FF8
3018
3018
3018
1FF8
ENDCHAR
STARTCHAR C030070
ENCODING 12344
SWIDTH 1600 0
DWIDTH 16 0
BBX 13 14 2 -1
BITMAP
F8D8
0CD8
0CD8
0CF8
0CD8
38D8
E0D8
0000
3018
3018
3FF8
3018
3018
1FF0
ENDCHAR
STARTCHAR C030071
ENCODING 12345
SWIDTH 1600 0
DWIDTH 16 0
BBX 13 14 2 -1
BITMAP
F8D8
0CD8
0CD8
0CF8
0CD8
38D8
E0D8
00D8
0000
0300
0780
0CC0
1860
7038
ENDCHAR
STARTCHAR C030072
ENCODING 12346
SWIDTH 1600 0
DWIDTH 16 0
BBX 13 14 2 -1
BITMAP
F8D8
0CD8
0CD8
0CF8
0CD8
38D8
E0D8
00D8
0000
18C0
18C0
3DE0
6730
C618
ENDCHAR
STARTCHAR C030073
ENCODING 12347
SWIDTH 1600 0
DWIDTH 16 0
BBX 13 14 2 -1
BITMAP
F8D8
0CD8
0CD8
0CF8
0CD8
38D8
E0D8
00D8
0000
1FE0
7038
6018
7038
1FE0
ENDCHAR
STARTCHAR C030074
ENCODING 12348
SWIDTH 1600 0
DWIDTH 16 0
BBX 14 14 1 -1
BITMAP
FF30
0330
0330
0330
033C
0330
0630
0E30
0C30
383C
E030
0030
0030
0030
ENDCHAR
STARTCHAR C030075
ENCODING 12349
SWIDTH 1600 0
DWIDTH 16 0
BBX 15 14 1 -1
BITMAP
FF18
0318
031E
0318
0318
0E1E
3818
E018
0000
7FF8
0018
0018
0018
0018
ENDCHAR
STARTCHAR C030076
ENCODING 12350
SWIDTH 1600 0
DWIDTH 16 0
BBX 15 14 1 -1
BITMAP
FF18
0318
0318
031E
0318
0618
1C18
F01E
0018
0018
6018
6000
6000
7FF8
ENDCHAR
STARTCHAR C030077
ENCODING 12351
SWIDTH 1600 0
DWIDTH 16 0
BBX 15 14 1 -1
BITMAP
FF18
0398
031E
0318
0718
0E1E
7818
C018
3FF8
0018
0018
3FF8
3000
3FF8
ENDCHAR
STARTCHAR C030100
ENCODING 12352
SWIDTH 1600 0
DWIDTH 16 0
BBX 15 14 1 -1
BITMAP
FF18
0198
0318
031E
0318
0618
1C1E
F018
0018
0198
0380
06C0
1C70
701C
ENDCHAR
STARTCHAR C030101
ENCODING 12353
SWIDTH 1600 0
DWIDTH 16 0
BBX 15 15 1 -1
BITMAP
0018
FF18
0398
031E
0318
0718
0E18
781E
C018
0018
1FE0
7038
6018
7038
1FE0
ENDCHAR
STARTCHAR C030102
ENCODING 12354
SWIDTH 1600 0
DWIDTH 16 0
BBX 13 14 2 -1
BITMAP
7ED8
06D8
06D8
06D8
06F8
06D8
0CD8
0CD8
18D8
30F8
E0D8
00D8
00D8
00D8
ENDCHAR
STARTCHAR C030103
ENCODING 12355
SWIDTH 1600 0
DWIDTH 16 0
BBX 14 14 2 -1
BITMAP
FCD8
0CD8
0CD8
0CF8
0CD8
18D8
30D8
E0F8
00D8
00D8
30D8
3000
3000
3FFC
ENDCHAR
STARTCHAR C030104
ENCODING 12356
SWIDTH 1600 0
DWIDTH 16 0
BBX 13 14 2 -1
BITMAP
FCD8
0CD8
0CF8
0CD8
0CD8
18F8
F0D8
00D8
3FF8
0018
0018
3FF8
3000
3FF8
ENDCHAR
STARTCHAR C030105
ENCODING 12357
SWIDTH 1600 0
DWIDTH 16 0
BBX 13 14 2 -1
BITMAP
0018
FE18
0318
0318
0318
0318
06F8
0C18
3818
E018
0018
0018
0018
0018
ENDCHAR
STARTCHAR C030106
ENCODING 12358
SWIDTH 1600 0
DWIDTH 16 0
BBX 13 14 2 -1
BITMAP
FC18
0618
0618
06F8
0C18
3818
E018
0018
0000
3FF0
0018
0018
0018
0018
ENDCHAR
STARTCHAR C030107
ENCODING 12359
SWIDTH 1600 0
DWIDTH 16 0
BBX 13 14 2 -1
BITMAP
FC18
0618
0618
06F8
0C18
3818
E018
0018
0018
3000
3000
3000
3000
1FF8
ENDCHAR
STARTCHAR C030110
ENCODING 12360
SWIDTH 1600 0
DWIDTH 16 0
BBX 13 14 2 -1
BITMAP
FC18
0618
0618
06F8
0C18
3818
E018
0018
0000
3FF8
3000
3000
3000
1FF8
ENDCHAR
STARTCHAR C030111
ENCODING 12361
SWIDTH 1600 0
DWIDTH 16 0
BBX 13 14 2 -1
BITMAP
FC18
0618
0618
06F8
0C18
3818
E018
0000
3FF0
0018
3FF8
3000
3000
1FF8
ENDCHAR
STARTCHAR C030112
ENCODING 12362
SWIDTH 1600 0
DWIDTH 16 0
BBX 13 14 2 -1
BITMAP
FF18
0318
0318
03F8
0618
1C18
F018
0000
7DF8
0D98
0D98
7D98
6198
7FF8
ENDCHAR
STARTCHAR C030113
ENCODING 12363
SWIDTH 1600 0
DWIDTH 16 0
BBX 13 14 2 -1
BITMAP
FC18
0618
0618
06F8
0C18
3818
E018
0018
0000
3FF8
3018
3018
3018
1FF8
ENDCHAR
STARTCHAR C030114
ENCODING 12364
SWIDTH 1600 0
DWIDTH 16 0
BBX 13 14 2 -1
BITMAP
FC18
0618
0618
06F8
0C18
3818
E018
0000
3018
3018
3FF8
3018
3018
1FF0
ENDCHAR
STARTCHAR C030115
ENCODING 12365
SWIDTH 1600 0
DWIDTH 16 0
BBX 13 14 2 -1
BITMAP
FC18
0618
0618
06F8
0C18
3818
E018
0018
0000
0300
0780
0CC0
3870
6018
ENDCHAR
STARTCHAR C030116
ENCODING 12366
SWIDTH 1600 0
DWIDTH 16 0
BBX 15 14 1 -1
BITMAP
7F8C
018C
018C
018C
037C
060C
3C0C
E00C
0000
1830
1C30
1C78
36F8
638E
ENDCHAR
STARTCHAR C030117
ENCODING 12367
SWIDTH 1600 0
DWIDTH 16 0
BBX 13 14 2 -1
BITMAP
FF18
0318
0318
0318
03F8
0E18
3818
E018
0018
1FE0
7038
6018
7038
1FE0
ENDCHAR
STARTCHAR C030120
ENCODING 12368
SWIDTH 1600 0
DWIDTH 16 0
BBX 13 14 2 -1
BITMAP
FF18
0318
0318
0318
07F8
0E18
7818
C018
0000
7FF8
0300
0780
0EC0
7878
ENDCHAR
STARTCHAR C030121
ENCODING 12369
SWIDTH 1600 0
DWIDTH 16 0
BBX 13 14 2 -1
BITMAP
FF18
0318
0318
0318
06F8
0C18
F818
0018
0000
3FF8
3000
3FF8
3000
3FF8
ENDCHAR
STARTCHAR C030122
ENCODING 12370
SWIDTH 1600 0
DWIDTH 16 0
BBX 13 14 2 -1
BITMAP
FF18
0318
0318
0318
06F8
1C18
F018
0018
7FF8
1860
1860
1860
1860
7FF8
ENDCHAR
STARTCHAR C030123
ENCODING 12371
SWIDTH 1600 0
DWIDTH 16 0
BBX 13 14 2 -1
BITMAP
FF18
0318
0318
0318
06F8
0C18
F818
0018
0FC0
7FF8
0000
3FF0
6038
3FF0
ENDCHAR
STARTCHAR C030124
ENCODING 12372
SWIDTH 1600 0
DWIDTH 16 0
BBX 13 14 2 -1
BITMAP
00D8
F8D8
0CD8
0CD8
0CD8
0FD8
18D8
30D8
60D8
C0D8
00D8
00D8
00D8
00D8
ENDCHAR
STARTCHAR C030125
ENCODING 12373
SWIDTH 1600 0
DWIDTH 16 0
BBX 14 14 2 -1
BITMAP
FCD8
0CD8
0CD8
0CD8
0FD8
18D8
38D8
E0D8
00D8
00D8
3018
3000
3000
3FFC
ENDCHAR
STARTCHAR C030126
ENCODING 12374
SWIDTH 1600 0
DWIDTH 16 0
BBX 13 14 2 -1
BITMAP
FCD8
0CD8
0CD8
0FD8
0CD8
18D8
70D8
C018
3FF8
0018
0018
3FF8
3000
3FF8
ENDCHAR
STARTCHAR C030127
ENCODING 12375
SWIDTH 1600 0
DWIDTH 16 0
BBX 13 14 2 -1
BITMAP
FC18
0CD8
0CD8
0CD8
0FD8
1CD8
38D8
E0D8
00C0
3FF8
3018
3018
3018
3FF8
ENDCHAR
STARTCHAR C030130
ENCODING 12376
SWIDTH 1600 0
DWIDTH 16 0
BBX 13 14 2 -1
BITMAP
FC18
0CD8
0CD8
0CD8
0FD8
18D8
F0D8
00D8
3018
3018
3FF8
3018
3018
3FF8
ENDCHAR
STARTCHAR C030131
ENCODING 12377
SWIDTH 1600 0
DWIDTH 16 0
BBX 14 14 1 -1
BITMAP
7E6C
066C
066C
066C
07EC
0C6C
186C
F06C
006C
0180
01C0
0360
0E30
381C
ENDCHAR
STARTCHAR C030132
ENCODING 12378
SWIDTH 1600 0
DWIDTH 16 0
BBX 15 14 1 -1
BITMAP
7E6C
066C
066C
066C
07EC
0C6C
386C
E06C
000C
1830
1C30
1C78
36F8
638E
ENDCHAR
STARTCHAR C030133
ENCODING 12379
SWIDTH 1600 0
DWIDTH 16 0
BBX 13 14 2 -1
BITMAP
FCD8
0CD8
0CD8
0CD8
0FD8
18D8
30D8
E0D8
0018
1FE0
7038
6018
7038
1FE0
ENDCHAR
STARTCHAR C030134
ENCODING 12380
SWIDTH 1600 0
DWIDTH 16 0
BBX 13 14 2 -1
BITMAP
7F18
0318
0318
0318
03F8
0318
0618
0E18
0CF8
1818
F018
0018
0018
0018
ENDCHAR
STARTCHAR C030135
ENCODING 12381
SWIDTH 1600 0
DWIDTH 16 0
BBX 13 14 2 -1
BITMAP
FF18
0318
0318
03F8
0318
0E18
78F8
E018
0018
7FF8
0018
0018
0018
0018
ENDCHAR
STARTCHAR C030136
ENCODING 12382
SWIDTH 1600 0
DWIDTH 16 0
BBX 13 15 2 -1
BITMAP
0018
FF18
0318
03F8
0318
0618
0CF8
F818
0018
0000
FFF8
0618
0618
0618
0618
ENDCHAR
STARTCHAR C030137
ENCODING 12383
SWIDTH 1600 0
DWIDTH 16 0
BBX 14 14 2 -1
BITMAP
FF18
0318
0318
03F8
0318
0618
1C18
F0F8
0018
0018
3018
3000
3000
3FFC
ENDCHAR
STARTCHAR C030140
ENCODING 12384
SWIDTH 1600 0
DWIDTH 16 0
BBX 14 14 2 -1
BITMAP
FF18
0318
0318
03F8
0618
0E18
38F8
E018
0000
3FF8
3000
3000
3000
3FFC
ENDCHAR
STARTCHAR C030141
ENCODING 12385
SWIDTH 1600 0
DWIDTH 16 0
BBX 13 14 2 -1
BITMAP
FF18
0318
03F8
0318
0618
0EF8
7818
C018
3FF8
0018
0018
3FF8
3000
3FF8
ENDCHAR
STARTCHAR C030142
ENCODING 12386
SWIDTH 1600 0
DWIDTH 16 0
BBX 13 15 2 -1
BITMAP
0018
FF18
0318
03F8
0318
0618
0C18
78F8
C018
3FF8
3018
3018
3018
3018
3FF8
ENDCHAR
STARTCHAR C030143
ENCODING 12387
SWIDTH 1600 0
DWIDTH 16 0
BBX 13 14 2 -1
BITMAP
FF18
0318
03F8
0318
0618
0CF8
7818
C000
3018
3018
3FF8
3018
3018
3FF8
ENDCHAR
STARTCHAR C030144
ENCODING 12388
SWIDTH 1600 0
DWIDTH 16 0
BBX 14 14 2 -1
BITMAP
FF18
0318
0318
03F8
0618
0C18
78F8
C018
0018
0318
0380
06C0
1C60
703C
ENDCHAR
STARTCHAR C030145
ENCODING 12389
SWIDTH 1600 0
DWIDTH 16 0
BBX 15 14 1 -1
BITMAP
7F8C
018C
01FC
018C
030C
0E0C
387C
E00C
000C
1830
1C30
1C70
3EF8
67CE
ENDCHAR
STARTCHAR C030146
ENCODING 12390
SWIDTH 1600 0
DWIDTH 16 0
BBX 13 14 2 -1
BITMAP
FF18
0318
0318
03F8
0618
0C18
38F8
E018
0018
1FE0
7038
6018
7038
1FE0
ENDCHAR
STARTCHAR C030147
ENCODING 12391
SWIDTH 1600 0
DWIDTH 16 0
BBX 13 14 2 -1
BITMAP
FF18
0318
03F8
0318
0618
0CF8
F818
0018
3FF8
3000
3000
3FF8
3000
3FF8
ENDCHAR
STARTCHAR C030150
ENCODING 12392
SWIDTH 1600 0
DWIDTH 16 0
BBX 13 14 2 -1
BITMAP
FCD8
0CD8
0CD8
0FD8
0CD8
0CD8
0CD8
18D8
3FD8
70D8
C0D8
00D8
00D8
00D8
ENDCHAR
STARTCHAR C030151
ENCODING 12393
SWIDTH 1600 0
DWIDTH 16 0
BBX 14 14 2 -1
BITMAP
FCD8
0CD8
0FD8
0CD8
0CD8
18D8
3BD8
E0D8
00D8
00D8
3000
3000
3000
3FFC
ENDCHAR
STARTCHAR C030152
ENCODING 12394
SWIDTH 1600 0
DWIDTH 16 0
BBX 13 14 2 -1
BITMAP
FCD8
0CD8
0FD8
0CD8
0CD8
1BD8
F0D8
00D8
3FF8
0018
3FF8
3000
3000
3FF8
ENDCHAR
STARTCHAR C030153
ENCODING 12395
SWIDTH 1600 0
DWIDTH 16 0
BBX 13 14 2 -1
BITMAP
FCD8
0CD8
0FD8
0CD8
0CD8
1BD8
F0D8
00D8
3018
3018
3FF8
3018
3018
3FF8
ENDCHAR
STARTCHAR C030154
ENCODING 12396
SWIDTH 1600 0
DWIDTH 16 0
BBX 14 14 1 -1
BITMAP
7E6C
066C
07EC
066C
066C
0C6C
19EC
F06C
006C
018C
01C0
0360
0E30
381C
ENDCHAR
STARTCHAR C030155
ENCODING 12397
SWIDTH 1600 0
DWIDTH 16 0
BBX 13 12 2 0
BITMAP
7FE0
0030
0030
0030
0030
0030
0630
0630
0630
0600
0600
FFF8
ENDCHAR
STARTCHAR C030156
ENCODING 12398
SWIDTH 1600 0
DWIDTH 16 0
BBX 13 14 2 -1
BITMAP
7FE0
0030
0030
0630
0630
0600
FFF8
0000
0000
7FE0
0030
0030
0030
0030
ENDCHAR
STARTCHAR C030157
ENCODING 12399
SWIDTH 1600 0
DWIDTH 16 0
BBX 13 14 2 -1
BITMAP
7FE0
0030
0030
0630
0630
0600
FFF8
0000
0000
6000
6000
6000
6000
3FF0
ENDCHAR
STARTCHAR C030160
ENCODING 12400
SWIDTH 1600 0
DWIDTH 16 0
BBX 13 14 2 -1
BITMAP
7FE0
0030
0030
0630
0630
0600
FFF8
0000
0000
7FF0
6000
6000
6000
3FF0
ENDCHAR
STARTCHAR C030161
ENCODING 12401
SWIDTH 1600 0
DWIDTH 16 0
BBX 13 14 2 -1
BITMAP
7FE0
0030
0030
0630
0630
0600
FFF8
0000
7FE0
0030
7FF0
6000
6000
3FF0
ENDCHAR
STARTCHAR C030162
ENCODING 12402
SWIDTH 1600 0
DWIDTH 16 0
BBX 13 14 2 -1
BITMAP
FFF0
0030
0030
0630
0630
0630
FFF8
0000
FDF8
0D98
0D98
FD98
C198
FEF8
ENDCHAR
STARTCHAR C030163
ENCODING 12403
SWIDTH 1600 0
DWIDTH 16 0
BBX 13 14 2 -1
BITMAP
FFF0
0030
0030
0630
0630
0630
FFF8
0000
7C00
0CE0
0CE0
7CE0
61B0
7F18
ENDCHAR
STARTCHAR C030164
ENCODING 12404
SWIDTH 1600 0
DWIDTH 16 0
BBX 14 14 2 -1
BITMAP
7FF0
0030
0030
0630
0630
0630
FFFC
0000
FDF0
0FF8
FC00
C1F0
C318
FDF0
ENDCHAR
STARTCHAR C030165
ENCODING 12405
SWIDTH 1600 0
DWIDTH 16 0
BBX 13 14 2 -1
BITMAP
7FE0
0030
0030
0630
0630
0600
FFF8
0000
0000
7FF0
6030
6030
6030
3FF0
ENDCHAR
STARTCHAR C030166
ENCODING 12406
SWIDTH 1600 0
DWIDTH 16 0
BBX 13 14 2 -1
BITMAP
7FE0
0030
0030
0630
0630
0600
FFF8
0000
6030
6030
7FF0
6030
6030
3FE0
ENDCHAR
STARTCHAR C030167
ENCODING 12407
SWIDTH 1600 0
DWIDTH 16 0
BBX 13 14 2 -1
BITMAP
7FE0
0030
0030
0630
0630
0600
FFF8
0000
0000
0600
0F00
1980
70E0
C030
ENDCHAR
STARTCHAR C030170
ENCODING 12408
SWIDTH 1600 0
DWIDTH 16 0
BBX 13 14 2 -1
BITMAP
7FE0
0030
0030
0630
0630
0600
FFF8
0000
0000
1FC0
7070
6030
7070
1FC0
ENDCHAR
STARTCHAR C030171
ENCODING 12409
SWIDTH 1600 0
DWIDTH 16 0
BBX 13 14 2 -1
BITMAP
7FE0
0030
0030
0630
0630
0600
FFF8
0000
0000
FFF0
0600
0F00
1980
F0F0
ENDCHAR
STARTCHAR C030172
ENCODING 12410
SWIDTH 1600 0
DWIDTH 16 0
BBX 15 14 1 -1
BITMAP
FF98
0198
0198
0198
0198
1998
199E
1998
1818
1818
FFF8
0018
0018
0018
ENDCHAR
STARTCHAR C030173
ENCODING 12411
SWIDTH 1600 0
DWIDTH 16 0
BBX 15 14 1 -1
BITMAP
FF98
0198
0198
1998
199E
1998
FFF8
0018
0000
7FF8
0018
0018
0018
0018
ENDCHAR
STARTCHAR C030174
ENCODING 12412
SWIDTH 1600 0
DWIDTH 16 0
BBX 15 14 1 -1
BITMAP
FF98
0198
0198
1998
1998
199E
19F8
FFF8
0018
0018
6000
6000
6000
7FF8
ENDCHAR
STARTCHAR C030175
ENCODING 12413
SWIDTH 1600 0
DWIDTH 16 0
BBX 15 14 1 -1
BITMAP
7F98
00D8
00D8
1998
199E
19F8
FFF8
0018
3FF8
0018
0018
3FF8
3000
3FF8
ENDCHAR
STARTCHAR C030176
ENCODING 12414
SWIDTH 1600 0
DWIDTH 16 0
BBX 15 14 1 -1
BITMAP
FF98
0198
1998
199E
1998
19F8
FFF8
0018
FDF8
0D98
FD98
C198
C198
FFF8
ENDCHAR
STARTCHAR C030177
ENCODING 12415
SWIDTH 1600 0
DWIDTH 16 0
BBX 0 0 0 0
BITMAP
ENDCHAR
STARTCHAR C030441
ENCODING 12577
SWIDTH 1600 0
DWIDTH 16 0
BBX 15 14 1 -1
BITMAP
FF98
0198
0198
199E
1998
19B8
FFF8
0018
0000
3FF8
3018
3018
3018
3FF8
ENDCHAR
STARTCHAR C030442
ENCODING 12578
SWIDTH 1600 0
DWIDTH 16 0
BBX 15 14 1 -1
BITMAP
FF98
0198
0198
199E
1998
19F8
FFF8
0018
6018
6018
7FF8
6018
6018
7FF8
ENDCHAR
STARTCHAR C030443
ENCODING 12579
SWIDTH 1600 0
DWIDTH 16 0
BBX 15 14 1 -1
BITMAP
FF98
0198
0198
199E
1998
1998
19F8
FFF8
0018
0198
0380
06C0
1C70
701C
ENDCHAR
STARTCHAR C030444
ENCODING 12580
SWIDTH 1600 0
DWIDTH 16 0
BBX 15 14 1 -1
BITMAP
FF98
0198
0198
199E
1998
19B8
FFF8
0018
1FE0
3870
6018
6018
3870
0FE0
ENDCHAR
STARTCHAR C030445
ENCODING 12581
SWIDTH 1600 0
DWIDTH 16 0
BBX 13 15 2 -2
BITMAP
7ED8
06D8
06D8
06D8
06D8
06D8
36F8
36D8
30D8
30D8
30D8
FFD8
00D8
00D8
00D8
ENDCHAR
STARTCHAR C030446
ENCODING 12582
SWIDTH 1600 0
DWIDTH 16 0
BBX 14 14 2 -1
BITMAP
7ED8
06D8
06D8
36D8
36F8
36D8
30D8
FFD8
00D8
00D8
30D8
3000
3000
3FFC
ENDCHAR
STARTCHAR C030447
ENCODING 12583
SWIDTH 1600 0
DWIDTH 16 0
BBX 13 14 2 -1
BITMAP
FED8
06D8
06D8
36D8
36F8
30D8
FFD8
00D8
3FF8
0018
0018
3FF8
3000
3FF8
ENDCHAR
STARTCHAR C030450
ENCODING 12584
SWIDTH 1600 0
DWIDTH 16 0
BBX 13 14 2 -1
BITMAP
7ED8
06D8
06D8
36D8
36F8
30D8
FFD8
00D8
3018
3018
3FF8
3018
3018
3FF8
ENDCHAR
STARTCHAR C030451
ENCODING 12585
SWIDTH 1600 0
DWIDTH 16 0
BBX 14 13 2 -1
BITMAP
FCD8
06D8
06D8
3CD8
3CF8
30D8
FFD8
00D8
0060
3860
38E0
6DF0
C79C
ENDCHAR
STARTCHAR C030452
ENCODING 12586
SWIDTH 1600 0
DWIDTH 16 0
BBX 13 14 2 -1
BITMAP
FED8
06D8
06D8
06D8
36F8
36D8
30D8
FFD8
00D8
1FE0
7030
6018
7038
1FE0
ENDCHAR
STARTCHAR C030453
ENCODING 12587
SWIDTH 1600 0
DWIDTH 16 0
BBX 13 14 2 -1
BITMAP
7F98
0198
0198
0198
0198
0198
1998
1998
1818
1818
1BF8
FE18
0018
0018
ENDCHAR
STARTCHAR C030454
ENCODING 12588
SWIDTH 1600 0
DWIDTH 16 0
BBX 13 14 2 -1
BITMAP
7F98
0198
0198
0198
1998
1818
1BF8
FE18
0000
7FF8
0018
0018
0018
0018
ENDCHAR
STARTCHAR C030455
ENCODING 12589
SWIDTH 1600 0
DWIDTH 16 0
BBX 13 14 2 -1
BITMAP
7F98
0198
0198
1998
1998
1998
1818
FFF8
0018
0018
6018
6000
6000
7FF8
ENDCHAR
STARTCHAR C030456
ENCODING 12590
SWIDTH 1600 0
DWIDTH 16 0
BBX 13 14 2 -1
BITMAP
FF98
0198
0198
1998
1998
1838
FFF8
0018
3FF8
0018
0018
3FF8
3000
3FF8
ENDCHAR
STARTCHAR C030457
ENCODING 12591
SWIDTH 1600 0
DWIDTH 16 0
BBX 13 14 2 -1
BITMAP
7F98
0198
0198
1998
1998
1818
FFF8
0018
0000
3FF8
3018
3018
3018
3FF8
ENDCHAR
STARTCHAR C030460
ENCODING 12592
SWIDTH 1600 0
DWIDTH 16 0
BBX 13 14 2 -1
BITMAP
7F98
0198
0198
1998
1998
1818
FFF8
0018
3018
3018
3FF8
3018
3018
3FF8
ENDCHAR
STARTCHAR C030461
ENCODING 12593
SWIDTH 1600 0
DWIDTH 16 0
BBX 13 14 2 -1
BITMAP
7F98
0198
0198
1998
1998
1818
1818
FFF8
0018
0318
0380
06C0
1C70
7018
ENDCHAR
STARTCHAR C030462
ENCODING 12594
SWIDTH 1600 0
DWIDTH 16 0
BBX 13 14 2 -1
BITMAP
7F98
0198
0198
0198
1998
1818
1BF8
FE18
0000
1FE0
7038
6018
7038
1FE0
ENDCHAR
STARTCHAR C030463
ENCODING 12595
SWIDTH 1600 0
DWIDTH 16 0
BBX 15 13 1 -1
BITMAP
7FF8
0018
0018
0018
0018
0018
18D8
18D8
18D8
18D8
18C0
18C0
FFFE
ENDCHAR
STARTCHAR C030464
ENCODING 12596
SWIDTH 1600 0
DWIDTH 16 0
BBX 14 14 2 -1
BITMAP
7FF0
0030
0030
0030
19B0
19B0
1980
FFFC
0000
6000
6000
6000
6000
7FF8
ENDCHAR
STARTCHAR C030465
ENCODING 12597
SWIDTH 1600 0
DWIDTH 16 0
BBX 13 14 2 -1
BITMAP
FFF0
0030
0030
19B0
19B0
1980
FFF8
0000
FFF0
0030
7FF0
6000
6000
7FF0
ENDCHAR
STARTCHAR C030466
ENCODING 12598
SWIDTH 1600 0
DWIDTH 16 0
BBX 14 14 2 -1
BITMAP
7FF0
0030
0030
19B0
19B0
1980
FFFC
0000
6030
6030
7FF0
6030
6030
7FF0
ENDCHAR
STARTCHAR C030467
ENCODING 12599
SWIDTH 1600 0
DWIDTH 16 0
BBX 14 14 2 -1
BITMAP
7FF0
0030
0030
0030
19B0
19B0
1980
FFFC
0000
0300
0700
0D80
38E0
E038
ENDCHAR
STARTCHAR C030470
ENCODING 12600
SWIDTH 1600 0
DWIDTH 16 0
BBX 13 14 2 -1
BITMAP
FFF0
0030
0030
0030
0030
0030
0030
0030
FFF8
0300
0300
0300
0300
0300
ENDCHAR
STARTCHAR C030471
ENCODING 12601
SWIDTH 1600 0
DWIDTH 16 0
BBX 13 14 2 -1
BITMAP
FFF0
0030
0030
0030
0030
0030
FFF8
0300
0300
7FF0
0030
0030
0030
0030
ENDCHAR
STARTCHAR C030472
ENCODING 12602
SWIDTH 1600 0
DWIDTH 16 0
BBX 13 14 2 -1
BITMAP
FFF0
0030
0030
0030
0030
0030
FFF8
0300
0300
0300
6000
6000
6000
7FF8
ENDCHAR
STARTCHAR C030473
ENCODING 12603
SWIDTH 1600 0
DWIDTH 16 0
BBX 13 14 2 -1
BITMAP
FFF0
0030
0030
0030
0030
0030
FFF8
0300
0300
7FF8
6000
6000
6000
7FF8
ENDCHAR
STARTCHAR C030474
ENCODING 12604
SWIDTH 1600 0
DWIDTH 16 0
BBX 14 14 1 -1
BITMAP
3FF8
0018
0018
0018
0018
FFFC
0300
0300
3FF8
0018
3FF8
3000
3000
3FF8
ENDCHAR
STARTCHAR C030475
ENCODING 12605
SWIDTH 1600 0
DWIDTH 16 0
BBX 13 14 2 -1
BITMAP
FFF0
0030
0030
0030
0030
FFF8
0300
0300
7FF0
0C30
0C30
7C30
6030
7E30
ENDCHAR
STARTCHAR C030476
ENCODING 12606
SWIDTH 1600 0
DWIDTH 16 0
BBX 14 14 1 -1
BITMAP
7FF8
0018
0018
0018
0018
FFFC
0300
0300
7EFC
06CC
06CC
7ECC
60CC
7F7C
ENDCHAR
STARTCHAR C030477
ENCODING 12607
SWIDTH 1600 0
DWIDTH 16 0
BBX 14 14 1 -1
BITMAP
7FF8
0018
0018
0018
0018
FFFC
0300
03F8
7E00
07FC
7E00
60F8
618C
7FF8
ENDCHAR
STARTCHAR C030500
ENCODING 12608
SWIDTH 1600 0
DWIDTH 16 0
BBX 14 14 1 -1
BITMAP
7FF8
0018
0018
0018
0018
FFFC
0300
0300
0300
3FF8
3018
3018
3018
3FF8
ENDCHAR
STARTCHAR C030501
ENCODING 12609
SWIDTH 1600 0
DWIDTH 16 0
BBX 14 14 1 -1
BITMAP
7FF8
0018
0018
0018
0018
FFFC
0300
0300
3018
3018
3FF8
3018
3018
3FF8
ENDCHAR
STARTCHAR C030502
ENCODING 12610
SWIDTH 1600 0
DWIDTH 16 0
BBX 14 14 1 -1
BITMAP
7FF8
0018
0018
0018
0018
0018
FFFC
0300
0300
0000
0380
06C0
1C70
701C
ENDCHAR
STARTCHAR C030503
ENCODING 12611
SWIDTH 1600 0
DWIDTH 16 0
BBX 14 14 1 -1
BITMAP
3FF8
0018
0018
0018
0018
0018
FFFC
0300
0FE0
3870
3018
3018
1C70
0FE0
ENDCHAR
STARTCHAR C030504
ENCODING 12612
SWIDTH 1600 0
DWIDTH 16 0
BBX 13 14 2 -1
BITMAP
FFF0
0030
0030
0030
0030
0030
FFF8
0600
0600
FFF0
0700
0F00
39E0
E030
ENDCHAR
STARTCHAR C030505
ENCODING 12613
SWIDTH 1600 0
DWIDTH 16 0
BBX 13 14 2 -1
BITMAP
7F98
0198
0198
0198
0198
0198
01F8
FF18
0C18
0DF8
0C18
0C18
0C18
0C18
ENDCHAR
STARTCHAR C030506
ENCODING 12614
SWIDTH 1600 0
DWIDTH 16 0
BBX 13 14 2 -1
BITMAP
7F98
0198
0198
0198
0198
FFF8
0C18
0DF8
0C18
7FF8
0018
0018
0018
0018
ENDCHAR
STARTCHAR C030507
ENCODING 12615
SWIDTH 1600 0
DWIDTH 16 0
BBX 14 14 2 -1
BITMAP
FF00
0318
0318
0318
0318
0318
FFF8
0C18
0DF8
0C18
3018
3000
3000
3FFC
ENDCHAR
STARTCHAR C030510
ENCODING 12616
SWIDTH 1600 0
DWIDTH 16 0
BBX 13 14 2 -1
BITMAP
7F98
0198
0198
0198
FFF8
0C18
0DF8
0C18
3FF8
0018
0018
3FF8
3000
3FF8
ENDCHAR
STARTCHAR C030511
ENCODING 12617
SWIDTH 1600 0
DWIDTH 16 0
BBX 14 14 1 -1
BITMAP
7F80
018C
018C
018C
018C
FFFC
0C0C
0CFC
0C0C
1830
1870
3C78
76DC
0380
ENDCHAR
STARTCHAR C030512
ENCODING 12618
SWIDTH 1600 0
DWIDTH 16 0
BBX 13 14 2 -1
BITMAP
7F80
0198
0198
0198
0198
FFF8
0DF8
0C18
0C18
1FE0
7038
6018
7038
1FE0
ENDCHAR
STARTCHAR C030513
ENCODING 12619
SWIDTH 1600 0
DWIDTH 16 0
BBX 13 14 2 -1
BITMAP
7ED8
06D8
06D8
06D8
06D8
06D8
06D8
FFD8
18D8
1FD8
18D8
18D8
18D8
18D8
ENDCHAR
STARTCHAR C030514
ENCODING 12620
SWIDTH 1600 0
DWIDTH 16 0
BBX 13 14 2 -1
BITMAP
7ED8
06D8
06D8
06D8
06D8
FFD8
18D8
1FD8
18D8
0300
0380
06C0
1C60
7038
ENDCHAR
STARTCHAR C030515
ENCODING 12621
SWIDTH 1600 0
DWIDTH 16 0
BBX 13 14 2 -1
BITMAP
7F98
0198
0198
0198
0198
0198
0198
FFF8
0C18
0C18
0C18
0C18
0C18
0C18
ENDCHAR
STARTCHAR C030516
ENCODING 12622
SWIDTH 1600 0
DWIDTH 16 0
BBX 13 14 2 -1
BITMAP
7F98
0198
0198
0198
0198
0198
FFF8
0C18
0C18
7FF8
0018
0018
0018
0018
ENDCHAR
STARTCHAR C030517
ENCODING 12623
SWIDTH 1600 0
DWIDTH 16 0
BBX 14 14 2 -1
BITMAP
7F98
0198
0198
0198
0198
0198
FFF8
0C18
0C18
0C18
3000
3000
3000
3FFC
ENDCHAR
STARTCHAR C030520
ENCODING 12624
SWIDTH 1600 0
DWIDTH 16 0
BBX 13 14 2 -1
BITMAP
7F98
0198
0198
0198
0198
FFF8
0C18
0C18
3FF8
0018
0018
3FF8
3000
3FF8
ENDCHAR
STARTCHAR C030521
ENCODING 12625
SWIDTH 1600 0
DWIDTH 16 0
BBX 13 14 2 -1
BITMAP
7F98
0198
0198
0198
0198
0FF8
FC18
0C18
0000
3FF8
3018
3018
3018
3FF8
ENDCHAR
STARTCHAR C030522
ENCODING 12626
SWIDTH 1600 0
DWIDTH 16 0
BBX 13 14 2 -1
BITMAP
7F98
0198
0198
0198
0198
0FF8
FC18
0C18
3018
3018
3FF8
3018
3018
3FF8
ENDCHAR
STARTCHAR C030523
ENCODING 12627
SWIDTH 1600 0
DWIDTH 16 0
BBX 13 14 2 -1
BITMAP
7F98
0198
0198
0198
0198
0198
FFF8
0C18
0C18
0F18
0380
06C0
1C60
7038
ENDCHAR
STARTCHAR C030524
ENCODING 12628
SWIDTH 1600 0
DWIDTH 16 0
BBX 14 14 1 -1
BITMAP
3FF8
0018
0018
0018
0018
0018
0018
FFFC
1830
1830
1830
1830
1830
1830
ENDCHAR
STARTCHAR C030525
ENCODING 12629
SWIDTH 1600 0
DWIDTH 16 0
BBX 14 14 1 -1
BITMAP
3FF8
0018
0018
0018
0018
0018
FFFC
0C60
0C60
0C60
3C60
3000
3000
3FFC
ENDCHAR
STARTCHAR C030526
ENCODING 12630
SWIDTH 1600 0
DWIDTH 16 0
BBX 13 14 2 -1
BITMAP
7FF0
0030
0030
0030
0030
FFF8
18C0
18C0
7FF0
0030
7FF0
6000
6000
7FF0
ENDCHAR
STARTCHAR C030527
ENCODING 12631
SWIDTH 1600 0
DWIDTH 16 0
BBX 13 12 2 0
BITMAP
7FE0
0030
0030
0030
0030
0030
0030
0030
0030
0030
0000
FFF8
ENDCHAR
STARTCHAR C030530
ENCODING 12632
SWIDTH 1600 0
DWIDTH 16 0
BBX 14 14 1 -1
BITMAP
7FF8
0018
0018
0018
0018
0018
FFFC
0000
0000
7FF8
0018
0018
0018
0018
ENDCHAR
STARTCHAR C030531
ENCODING 12633
SWIDTH 1600 0
DWIDTH 16 0
BBX 14 14 1 -1
BITMAP
3FF8
0018
0018
0018
0018
0018
0018
FFFC
0000
3000
3000
3000
3000
3FFC
ENDCHAR
STARTCHAR C030532
ENCODING 12634
SWIDTH 1600 0
DWIDTH 16 0
BBX 14 14 1 -1
BITMAP
3FF8
0018
0018
0018
0018
0018
FFFC
0000
0000
3FFC
3000
3000
3000
3FFC
ENDCHAR
STARTCHAR C030533
ENCODING 12635
SWIDTH 1600 0
DWIDTH 16 0
BBX 15 14 1 -1
BITMAP
7FF8
0018
0018
0018
0018
0018
FFFE
0000
3FF8
0018
3FF8
3000
3000
3FFC
ENDCHAR
STARTCHAR C030534
ENCODING 12636
SWIDTH 1600 0
DWIDTH 16 0
BBX 14 14 1 -1
BITMAP
7FF8
0018
0018
0018
0018
0018
FFFC
0000
7FF8
0618
0618
7E18
6018
7F18
ENDCHAR
STARTCHAR C030535
ENCODING 12637
SWIDTH 1600 0
DWIDTH 16 0
BBX 14 14 1 -1
BITMAP
7FF8
0018
0018
0018
0018
0018
FFFC
0000
0000
3FF8
3018
3018
3018
3FF8
ENDCHAR
STARTCHAR C030536
ENCODING 12638
SWIDTH 1600 0
DWIDTH 16 0
BBX 14 14 1 -1
BITMAP
7FF8
0018
0018
0018
0018
0018
FFFC
0000
3018
3018
3FF8
3018
3018
3FF8
ENDCHAR
STARTCHAR C030537
ENCODING 12639
SWIDTH 1600 0
DWIDTH 16 0
BBX 14 14 1 -1
BITMAP
7FF8
0018
0018
0018
0018
0018
FFFC
0000
0000
0180
03C0
06C0
1C70
701C
ENDCHAR
STARTCHAR C030540
ENCODING 12640
SWIDTH 1600 0
DWIDTH 16 0
BBX 14 14 1 -1
BITMAP
7FF8
0018
0018
0018
0018
0018
FFFC
0000
0FF0
1C38
300C
300C
1C38
07E0
ENDCHAR
STARTCHAR C030541
ENCODING 12641
SWIDTH 1600 0
DWIDTH 16 0
BBX 13 14 2 -1
BITMAP
7F98
0198
0198
0198
0198
0198
0198
0198
0198
0198
FFF8
0018
0018
0018
ENDCHAR
STARTCHAR C030542
ENCODING 12642
SWIDTH 1600 0
DWIDTH 16 0
BBX 13 14 2 -1
BITMAP
FF18
0318
0318
0318
0318
0318
0618
0618
0C18
3818
E018
0018
0018
0018
ENDCHAR
STARTCHAR C030543
ENCODING 12643
SWIDTH 1600 0
DWIDTH 16 0
BBX 13 14 2 -1
BITMAP
FF18
0318
0318
0318
0318
0618
1C18
F018
0000
7FF8
0018
0018
0018
0018
ENDCHAR
STARTCHAR C030544
ENCODING 12644
SWIDTH 1600 0
DWIDTH 16 0
BBX 14 14 2 -1
BITMAP
FF18
0318
0318
0318
0318
0618
0C18
F818
0018
0018
3000
3000
3000
3FFC
ENDCHAR
STARTCHAR C030545
ENCODING 12645
SWIDTH 1600 0
DWIDTH 16 0
BBX 14 14 2 -1
BITMAP
FF18
0318
0318
0318
0718
0E18
3818
E018
0000
3FF8
3000
3000
3000
3FFC
ENDCHAR
STARTCHAR C030546
ENCODING 12646
SWIDTH 1600 0
DWIDTH 16 0
BBX 13 14 2 -1
BITMAP
FF18
0318
0318
0318
0618
0C18
F818
0018
3FF8
0018
0018
3FF8
3000
3FF8
ENDCHAR
STARTCHAR C030547
ENCODING 12647
SWIDTH 1600 0
DWIDTH 16 0
BBX 13 14 2 -1
BITMAP
FF18
0318
0318
0318
0618
0C18
F818
0000
7DF8
0D98
0D98
7D98
6198
7FF8
ENDCHAR
STARTCHAR C030550
ENCODING 12648
SWIDTH 1600 0
DWIDTH 16 0
BBX 13 14 2 -1
BITMAP
FF18
0318
0318
0318
0718
0E18
7818
C018
3FF8
3018
3018
3018
3018
3FF8
ENDCHAR
STARTCHAR C030551
ENCODING 12649
SWIDTH 1600 0
DWIDTH 16 0
BBX 13 14 2 -1
BITMAP
FF18
0318
0318
0318
0618
1C18
F018
0000
3018
3018
3FF8
3018
3018
3FF8
ENDCHAR
STARTCHAR C030552
ENCODING 12650
SWIDTH 1600 0
DWIDTH 16 0
BBX 14 14 1 -1
BITMAP
7F8C
018C
018C
018C
030C
070C
0E0C
F80C
000C
0180
01C0
0360
0E30
381C
ENDCHAR
STARTCHAR C030553
ENCODING 12651
SWIDTH 1600 0
DWIDTH 16 0
BBX 13 14 2 -1
BITMAP
FF18
0318
0318
0318
0318
0E18
3818
E018
1FE0
3870
6018
6018
3070
1FE0
ENDCHAR
STARTCHAR C030554
ENCODING 12652
SWIDTH 1600 0
DWIDTH 16 0
BBX 13 14 2 -1
BITMAP
FE18
0318
0318
0318
0318
0618
1C18
F000
0000
FFF8
0300
0780
0CC0
7878
ENDCHAR
STARTCHAR C030555
ENCODING 12653
SWIDTH 1600 0
DWIDTH 16 0
BBX 13 14 2 -1
BITMAP
FF18
0318
0318
0318
0618
1C18
F018
0018
7FF8
1860
1860
1860
1860
7FF8
ENDCHAR
STARTCHAR C030556
ENCODING 12654
SWIDTH 1600 0
DWIDTH 16 0
BBX 15 14 1 -1
BITMAP
FFD8
18D8
18D8
18D8
1998
1998
199E
1998
3198
7318
E718
0618
0018
0018
ENDCHAR
STARTCHAR C030557
ENCODING 12655
SWIDTH 1600 0
DWIDTH 16 0
BBX 14 14 2 -1
BITMAP
FFB0
19B0
19B0
19B0
19BC
3330
E730
0C30
0030
FFF0
0030
0030
0030
0030
ENDCHAR
STARTCHAR C030560
ENCODING 12656
SWIDTH 1600 0
DWIDTH 16 0
BBX 14 14 2 -1
BITMAP
FFB0
19B0
19B0
19BC
33B0
7330
E630
0C00
0000
FFF0
0C30
0C30
0C30
0C30
ENDCHAR
STARTCHAR C030561
ENCODING 12657
SWIDTH 1600 0
DWIDTH 16 0
BBX 15 14 1 -1
BITMAP
7FD8
0CD8
0CD8
0CD8
0CD8
199E
3198
E718
0018
0018
3018
3000
3000
3FF8
ENDCHAR
STARTCHAR C030562
ENCODING 12658
SWIDTH 1600 0
DWIDTH 16 0
BBX 15 14 1 -1
BITMAP
FFD8
0CD8
0CD8
18DE
1998
3198
E718
0018
3FF8
0018
0018
3FF8
3000
3FF8
ENDCHAR
STARTCHAR C030563
ENCODING 12659
SWIDTH 1600 0
DWIDTH 16 0
BBX 15 14 1 -1
BITMAP
FFD8
18D8
18D8
18D8
199E
3198
E718
0018
7FF8
0798
0798
7F98
6198
7EF8
ENDCHAR
STARTCHAR C030564
ENCODING 12660
SWIDTH 1600 0
DWIDTH 16 0
BBX 14 14 2 -1
BITMAP
FFB0
19B0
19B0
19B0
333C
7330
E630
0C30
0000
7FF0
6030
6030
6030
7FF0
ENDCHAR
STARTCHAR C030565
ENCODING 12661
SWIDTH 1600 0
DWIDTH 16 0
BBX 14 14 2 -1
BITMAP
FFB0
19B0
19B0
19B0
333C
7330
E630
0C30
6030
6030
7FF0
6030
6030
7FF0
ENDCHAR
STARTCHAR C030566
ENCODING 12662
SWIDTH 1600 0
DWIDTH 16 0
BBX 15 14 1 -1
BITMAP
7FD8
0CD8
0CD8
0CD8
0CD8
199E
3398
E718
0018
0198
0380
06C0
1C70
701C
ENDCHAR
STARTCHAR C030567
ENCODING 12663
SWIDTH 1600 0
DWIDTH 16 0
BBX 15 14 1 -1
BITMAP
7FD8
0CD8
0CD8
0CD8
1CDE
1998
7398
0618
0000
1830
1870
3C70
7ED8
E38C
ENDCHAR
STARTCHAR C030570
ENCODING 12664
SWIDTH 1600 0
DWIDTH 16 0
BBX 15 14 1 -1
BITMAP
FFD8
18D8
0CD8
18D8
18DE
3198
E318
0618
0018
1FE0
7038
6018
7038
1FE0
ENDCHAR
STARTCHAR C030571
ENCODING 12665
SWIDTH 1600 0
DWIDTH 16 0
BBX 14 14 2 -1
BITMAP
FFB0
19B0
19B0
19B0
31BC
7330
E630
0C30
7FF0
6000
6000
7FF0
6000
7FF0
ENDCHAR
STARTCHAR C030572
ENCODING 12666
SWIDTH 1600 0
DWIDTH 16 0
BBX 14 14 1 -1
BITMAP
FF6C
336C
336C
336C
336C
336C
337C
336C
336C
666C
CE6C
0C6C
006C
006C
ENDCHAR
STARTCHAR C030573
ENCODING 12667
SWIDTH 1600 0
DWIDTH 16 0
BBX 14 14 1 -1
BITMAP
FF6C
1B6C
1B6C
1B6C
1B7C
366C
766C
CC6C
006C
3FFC
000C
000C
000C
000C
ENDCHAR
STARTCHAR C030574
ENCODING 12668
SWIDTH 1600 0
DWIDTH 16 0
BBX 15 14 1 -1
BITMAP
FF6C
336C
336C
336C
337C
666C
E66C
0C6C
006C
000C
1800
1800
1800
1FFE
ENDCHAR
STARTCHAR C030575
ENCODING 12669
SWIDTH 1600 0
DWIDTH 16 0
BBX 14 14 1 -1
BITMAP
FF6C
336C
336C
337C
366C
666C
CC6C
0000
1FFC
000C
1FFC
1800
1800
1FFC
ENDCHAR
STARTCHAR C030576
ENCODING 12670
SWIDTH 1600 0
DWIDTH 16 0
BBX 14 14 1 -1
BITMAP
FF6C
336C
336C
336C
337C
666C
CE6C
006C
0000
1FFC
180C
180C
180C
1FFC
ENDCHAR
STARTCHAR C030577
ENCODING 12671
SWIDTH 1600 0
DWIDTH 16 0
BBX 0 0 0 0
BITMAP
ENDCHAR
STARTCHAR C031041
ENCODING 12833
SWIDTH 1600 0
DWIDTH 16 0
BBX 14 14 1 -1
BITMAP
FF6C
336C
336C
336C
337C
666C
CE6C
006C
180C
180C
1FFC
180C
180C
1FFC
ENDCHAR
STARTCHAR C031042
ENCODING 12834
SWIDTH 1600 0
DWIDTH 16 0
BBX 15 14 1 -1
BITMAP
FF6C
336C
336C
336C
337C
636C
666C
CC6C
006C
0180
03C0
07E0
0E70
781E
ENDCHAR
STARTCHAR C031043
ENCODING 12835
SWIDTH 1600 0
DWIDTH 16 0
BBX 15 14 1 -1
BITMAP
FF6C
336C
336C
336C
337C
666C
CE6C
006C
000C
1830
1830
3C70
3ED8
E38E
ENDCHAR
STARTCHAR C031044
ENCODING 12836
SWIDTH 1600 0
DWIDTH 16 0
BBX 14 14 1 -1
BITMAP
FF6C
336C
336C
336C
337C
666C
CE6C
0C6C
006C
0FF0
381C
300C
381C
0FF0
ENDCHAR
STARTCHAR C031045
ENCODING 12837
SWIDTH 1600 0
DWIDTH 16 0
BBX 15 14 1 -1
BITMAP
FFD8
18D8
18D8
18D8
18DE
1998
1998
1998
3198
331E
E718
0618
0018
0018
ENDCHAR
STARTCHAR C031046
ENCODING 12838
SWIDTH 1600 0
DWIDTH 16 0
BBX 14 14 2 -1
BITMAP
FFB0
19B0
19BC
19B0
39B0
333C
E730
0C30
0000
7FF0
0030
0030
0030
0030
ENDCHAR
STARTCHAR C031047
ENCODING 12839
SWIDTH 1600 0
DWIDTH 16 0
BBX 15 15 1 -1
BITMAP
0018
FFD8
0CD8
0CDE
18D8
199E
3198
E718
0000
3FF8
0018
0018
3FF8
3000
3FFC
ENDCHAR
STARTCHAR C031050
ENCODING 12840
SWIDTH 1600 0
DWIDTH 16 0
BBX 13 14 2 -1
BITMAP
FF98
1998
1998
1998
1998
19F8
1998
1998
3198
3318
E318
0618
0018
0018
ENDCHAR
STARTCHAR C031051
ENCODING 12841
SWIDTH 1600 0
DWIDTH 16 0
BBX 13 14 2 -1
BITMAP
FFD8
18D8
18D8
18D8
19F8
3198
E318
0618
0000
7FF8
0018
0018
0018
0018
ENDCHAR
STARTCHAR C031052
ENCODING 12842
SWIDTH 1600 0
DWIDTH 16 0
BBX 13 14 2 -1
BITMAP
FFD8
18D8
18D8
18D8
31F8
7198
E318
0618
0000
7FF8
0618
0618
0618
0618
ENDCHAR
STARTCHAR C031053
ENCODING 12843
SWIDTH 1600 0
DWIDTH 16 0
BBX 15 14 1 -1
BITMAP
7FEC
0C6C
0C6C
0C6C
0C6C
187C
30CC
E1CC
038C
000C
180C
1800
1800
1FFE
ENDCHAR
STARTCHAR C031054
ENCODING 12844
SWIDTH 1600 0
DWIDTH 16 0
BBX 13 14 2 -1
BITMAP
FF98
18D8
18D8
1998
19F8
3398
E718
0018
3FF8
0018
0018
3FF8
3000
3FF8
ENDCHAR
STARTCHAR C031055
ENCODING 12845
SWIDTH 1600 0
DWIDTH 16 0
BBX 13 14 2 -1
BITMAP
FFD8
18D8
18D8
18D8
19F8
3198
6718
C618
0000
3FF8
3018
3018
3018
3FF8
ENDCHAR
STARTCHAR C031056
ENCODING 12846
SWIDTH 1600 0
DWIDTH 16 0
BBX 13 14 2 -1
BITMAP
FFD8
18D8
18D8
18D8
31F8
7198
E718
0618
3018
3018
3FF8
3018
3018
3FF8
ENDCHAR
STARTCHAR C031057
ENCODING 12847
SWIDTH 1600 0
DWIDTH 16 0
BBX 15 14 1 -1
BITMAP
7FEC
0C6C
0C6C
0C6C
0C7C
18CC
31CC
E38C
000C
00C0
01C0
0360
0E38
380E
ENDCHAR
STARTCHAR C031060
ENCODING 12848
SWIDTH 1600 0
DWIDTH 16 0
BBX 15 14 1 -1
BITMAP
7FCC
0CCC
0CCC
0CCC
0CFC
198C
338C
E60C
000C
1830
1C30
1C78
36FC
63CE
ENDCHAR
STARTCHAR C031061
ENCODING 12849
SWIDTH 1600 0
DWIDTH 16 0
BBX 13 14 2 -1
BITMAP
FFD8
18D8
18D8
18D8
19F8
3198
E318
0618
0018
1FE0
7038
6018
7038
1FE0
ENDCHAR
STARTCHAR C031062
ENCODING 12850
SWIDTH 1600 0
DWIDTH 16 0
BBX 14 14 1 -1
BITMAP
FF6C
336C
336C
336C
336C
33EC
336C
336C
336C
666C
CE6C
006C
006C
006C
ENDCHAR
STARTCHAR C031063
ENCODING 12851
SWIDTH 1600 0
DWIDTH 16 0
BBX 14 14 1 -1
BITMAP
FF6C
336C
336C
336C
33EC
666C
E66C
0C6C
000C
3FFC
000C
000C
000C
000C
ENDCHAR
STARTCHAR C031064
ENCODING 12852
SWIDTH 1600 0
DWIDTH 16 0
BBX 15 14 1 -1
BITMAP
FF6C
336C
336C
33EC
336C
666C
666C
CC6C
006C
006C
1800
1800
1800
1FFE
ENDCHAR
STARTCHAR C031065
ENCODING 12853
SWIDTH 1600 0
DWIDTH 16 0
BBX 14 14 1 -1
BITMAP
FF6C
336C
336C
336C
33EC
666C
CE6C
0C6C
0000
1FFC
180C
180C
180C
1FFC
ENDCHAR
STARTCHAR C031066
ENCODING 12854
SWIDTH 1600 0
DWIDTH 16 0
BBX 14 14 1 -1
BITMAP
FF6C
336C
336C
336C
33EC
336C
666C
CE6C
006C
0180
01C0
0360
0E30
381C
ENDCHAR
STARTCHAR C031067
ENCODING 12855
SWIDTH 1600 0
DWIDTH 16 0
BBX 14 14 1 -1
BITMAP
FF6C
336C
336C
336C
33EC
636C
666C
CC6C
0000
0FF0
381C
300C
381C
0FF0
ENDCHAR
STARTCHAR C031070
ENCODING 12856
SWIDTH 1600 0
DWIDTH 16 0
BBX 13 15 2 -1
BITMAP
0018
FF98
1998
1998
1998
19F8
1998
1998
1998
31F8
7318
E718
0018
0018
0018
ENDCHAR
STARTCHAR C031071
ENCODING 12857
SWIDTH 1600 0
DWIDTH 16 0
BBX 15 14 1 -1
BITMAP
7FEC
0C6C
0C6C
0C7C
0C6C
18CC
30FC
E38C
000C
000C
1800
1800
1800
1FFE
ENDCHAR
STARTCHAR C031072
ENCODING 12858
SWIDTH 1600 0
DWIDTH 16 0
BBX 13 14 2 -1
BITMAP
FF98
18D8
18F8
1998
1998
33F8
E718
0018
3FF8
0018
0018
3FF8
3000
3FF8
ENDCHAR
STARTCHAR C031073
ENCODING 12859
SWIDTH 1600 0
DWIDTH 16 0
BBX 13 14 2 -1
BITMAP
FF98
1998
1998
19F8
3198
3318
E778
0C18
0018
0318
0380
06C0
1C60
7038
ENDCHAR
STARTCHAR C031074
ENCODING 12860
SWIDTH 1600 0
DWIDTH 16 0
BBX 14 13 2 -1
BITMAP
FF98
1998
19F8
1998
3318
7318
E678
0C18
3078
3860
3870
7CF8
C79C
ENDCHAR
STARTCHAR C031075
ENCODING 12861
SWIDTH 1600 0
DWIDTH 16 0
BBX 13 14 2 -1
BITMAP
FF98
1998
19F8
1998
3198
7378
C718
0018
3FF8
3000
3000
3FF8
3000
3FF8
ENDCHAR
STARTCHAR C031076
ENCODING 12862
SWIDTH 1600 0
DWIDTH 16 0
BBX 14 14 1 -1
BITMAP
FF6C
336C
336C
336C
33EC
336C
336C
336C
33EC
666C
CE6C
006C
006C
006C
ENDCHAR
STARTCHAR C031077
ENCODING 12863
SWIDTH 1600 0
DWIDTH 16 0
BBX 13 13 2 -1
BITMAP
FFF0
0C30
0C30
0C30
0C30
0C30
0C30
0F30
1B60
1B60
0300
0300
FFF8
ENDCHAR
STARTCHAR C031100
ENCODING 12864
SWIDTH 1600 0
DWIDTH 16 0
BBX 13 14 2 -1
BITMAP
FFF0
0C30
0C30
0C30
0F30
0330
0300
FFF8
0000
FFF0
0030
0030
0030
0030
ENDCHAR
STARTCHAR C031101
ENCODING 12865
SWIDTH 1600 0
DWIDTH 16 0
BBX 13 14 2 -1
BITMAP
FFF0
0C30
0C30
0C30
0F30
0F30
0300
0300
FFF8
0000
6000
6000
6000
7FF8
ENDCHAR
STARTCHAR C031102
ENCODING 12866
SWIDTH 1600 0
DWIDTH 16 0
BBX 13 14 2 -1
BITMAP
FFF0
0C30
0C30
0F30
0F30
0330
FFF8
0000
61F0
6000
67F8
61F0
7F18
01F0
ENDCHAR
STARTCHAR C031103
ENCODING 12867
SWIDTH 1600 0
DWIDTH 16 0
BBX 13 14 2 -1
BITMAP
FFF0
0C30
0C30
0F30
0F30
0330
FFF8
0000
7FF0
0030
0030
7FF0
6000
7FF0
ENDCHAR
STARTCHAR C031104
ENCODING 12868
SWIDTH 1600 0
DWIDTH 16 0
BBX 13 14 2 -1
BITMAP
FFF0
0C30
0C30
0F30
0F30
0300
FFF8
0000
0000
7FF0
6030
6030
6030
7FF0
ENDCHAR
STARTCHAR C031105
ENCODING 12869
SWIDTH 1600 0
DWIDTH 16 0
BBX 13 14 2 -1
BITMAP
FFF0
0C30
0C30
0F30
0F30
0300
FFF8
0000
6030
6030
7FF0
6030
6030
7FF0
ENDCHAR
STARTCHAR C031106
ENCODING 12870
SWIDTH 1600 0
DWIDTH 16 0
BBX 14 14 1 -1
BITMAP
7FF8
0618
0618
0618
0798
0798
0180
FFFC
0000
0180
0380
07C0
0C70
781C
ENDCHAR
STARTCHAR C031107
ENCODING 12871
SWIDTH 1600 0
DWIDTH 16 0
BBX 13 14 2 -1
BITMAP
FFF0
0C30
0C30
0C30
0F30
0F30
0300
FFF8
0000
1FE0
7038
6018
7038
1FE0
ENDCHAR
STARTCHAR C031110
ENCODING 12872
SWIDTH 1600 0
DWIDTH 16 0
BBX 15 14 1 -1
BITMAP
7FF8
0618
0618
0618
0798
0D98
0180
FFFE
0000
3FFC
0380
03C0
0E70
383C
ENDCHAR
STARTCHAR C031111
ENCODING 12873
SWIDTH 1600 0
DWIDTH 16 0
BBX 13 14 2 -1
BITMAP
FFF0
0C30
0C30
0C30
1B30
0300
FFF8
0000
1FC0
0000
7FF0
0700
0D80
78F0
ENDCHAR
STARTCHAR C031112
ENCODING 12874
SWIDTH 1600 0
DWIDTH 16 0
BBX 15 14 1 -1
BITMAP
FFD8
18D8
18D8
18D8
18D8
18D8
36DE
36D8
0618
0638
FFF8
0018
0018
0018
ENDCHAR
STARTCHAR C031113
ENCODING 12875
SWIDTH 1600 0
DWIDTH 16 0
BBX 15 14 1 -1
BITMAP
FFD8
18D8
18D8
18D8
1EDE
0618
0618
FFF8
0000
7FF8
0018
0018
0018
0018
ENDCHAR
STARTCHAR C031114
ENCODING 12876
SWIDTH 1600 0
DWIDTH 16 0
BBX 15 14 1 -1
BITMAP
FFD8
18D8
18D8
18D8
1EDE
0618
0618
FFF8
3FF8
0018
0018
3FF8
3000
3FF8
ENDCHAR
STARTCHAR C031115
ENCODING 12877
SWIDTH 1600 0
DWIDTH 16 0
BBX 15 14 1 -1
BITMAP
FFD8
18D8
18D8
18D8
1EDE
0618
0618
FFF8
0018
1860
1870
3C70
3CD8
E78C
ENDCHAR
STARTCHAR C031116
ENCODING 12878
SWIDTH 1600 0
DWIDTH 16 0
BBX 15 14 1 -1
BITMAP
FFD8
18D8
18D8
18D8
1EDE
1E18
0618
FFF8
0018
1FE0
7038
6018
7038
1FE0
ENDCHAR
STARTCHAR C031117
ENCODING 12879
SWIDTH 1600 0
DWIDTH 16 0
BBX 13 14 2 -1
BITMAP
FFD8
33D8
33D8
33D8
33D8
33D8
63F8
6FD8
0CD8
0DD8
7FD8
00D8
00D8
00D8
ENDCHAR
STARTCHAR C031120
ENCODING 12880
SWIDTH 1600 0
DWIDTH 16 0
BBX 13 14 2 -1
BITMAP
FFD8
33D8
33D8
33D8
33F8
0CD8
0CD8
FFD8
00D8
7FF8
0018
0018
0018
0018
ENDCHAR
STARTCHAR C031121
ENCODING 12881
SWIDTH 1600 0
DWIDTH 16 0
BBX 13 14 2 -1
BITMAP
FFD8
33D8
33D8
33D8
33F8
0CD8
0CD8
FFD8
00D8
1FE0
7038
6018
7038
1FE0
ENDCHAR
STARTCHAR C031122
ENCODING 12882
SWIDTH 1600 0
DWIDTH 16 0
BBX 13 14 2 -1
BITMAP
FFD8
18D8
18D8
18D8
18D8
18D8
1ED8
1ED8
0618
0638
FFF8
0018
0018
0018
ENDCHAR
STARTCHAR C031123
ENCODING 12883
SWIDTH 1600 0
DWIDTH 16 0
BBX 13 14 2 -1
BITMAP
FFD8
18D8
18D8
18D8
1ED8
36D8
0638
FFF8
0018
0018
6000
6000
6000
7FF8
ENDCHAR
STARTCHAR C031124
ENCODING 12884
SWIDTH 1600 0
DWIDTH 16 0
BBX 13 14 2 -1
BITMAP
FFD8
18D8
18D8
18D8
36D8
0638
FFF8
0018
3FF8
0018
0018
3FF8
3000
3FF8
ENDCHAR
STARTCHAR C031125
ENCODING 12885
SWIDTH 1600 0
DWIDTH 16 0
BBX 13 14 2 -1
BITMAP
FFD8
18D8
18D8
18D8
1ED8
0638
07F8
FF18
0000
3FF8
3018
3018
3018
3FF8
ENDCHAR
STARTCHAR C031126
ENCODING 12886
SWIDTH 1600 0
DWIDTH 16 0
BBX 13 14 2 -1
BITMAP
FFD8
18D8
18D8
18D8
1ED8
0638
07F8
FF18
3018
3018
3FF8
3018
3018
3FF8
ENDCHAR
STARTCHAR C031127
ENCODING 12887
SWIDTH 1600 0
DWIDTH 16 0
BBX 13 14 2 -1
BITMAP
FFD8
18D8
18D8
18D8
1ED8
0618
0638
FFF8
0018
1FE0
7038
6018
7038
1FE0
ENDCHAR
STARTCHAR C031130
ENCODING 12888
SWIDTH 1600 0
DWIDTH 16 0
BBX 13 13 2 -1
BITMAP
FBF8
1818
1818
1818
1818
1818
3018
3018
36D8
06C0
06C0
06C0
FFF8
ENDCHAR
STARTCHAR C031131
ENCODING 12889
SWIDTH 1600 0
DWIDTH 16 0
BBX 14 14 1 -1
BITMAP
7FF8
0618
0618
0618
0618
0618
0618
0618
FFFC
0180
0180
0180
0180
0180
ENDCHAR
STARTCHAR C031132
ENCODING 12890
SWIDTH 1600 0
DWIDTH 16 0
BBX 14 14 1 -1
BITMAP
7FF8
0618
0618
0618
0618
0618
FFFC
0180
0180
3FF8
0018
0018
0018
0018
ENDCHAR
STARTCHAR C031133
ENCODING 12891
SWIDTH 1600 0
DWIDTH 16 0
BBX 13 14 2 -1
BITMAP
7FF0
0630
0630
0630
0630
0630
0630
FFF8
0300
0300
6300
6000
6000
7FF0
ENDCHAR
STARTCHAR C031134
ENCODING 12892
SWIDTH 1600 0
DWIDTH 16 0
BBX 13 14 2 -1
BITMAP
FFF0
0C30
0C30
0C30
0C30
0C30
FFF8
0300
7FF0
0030
7FF0
6000
6000
7FF0
ENDCHAR
STARTCHAR C031135
ENCODING 12893
SWIDTH 1600 0
DWIDTH 16 0
BBX 14 14 2 -1
BITMAP
7FF8
0618
0618
0630
0630
FFFC
0300
03E0
FC00
0FF8
0C00
FDF8
C318
FDF0
ENDCHAR
STARTCHAR C031136
ENCODING 12894
SWIDTH 1600 0
DWIDTH 16 0
BBX 13 14 2 -1
BITMAP
7FF0
0630
0630
0630
0630
0630
FFF8
0300
0300
7FF0
6030
6030
6030
7FF0
ENDCHAR
STARTCHAR C031137
ENCODING 12895
SWIDTH 1600 0
DWIDTH 16 0
BBX 13 14 2 -1
BITMAP
7FF0
0630
0630
0630
0630
0630
FFF8
0300
6330
6030
7FF0
6030
6030
7FF0
ENDCHAR
STARTCHAR C031140
ENCODING 12896
SWIDTH 1600 0
DWIDTH 16 0
BBX 13 14 2 -1
BITMAP
7FF0
0630
0630
0630
0630
0630
FFF8
0300
0300
0000
0700
0F80
1CC0
F078
ENDCHAR
STARTCHAR C031141
ENCODING 12897
SWIDTH 1600 0
DWIDTH 16 0
BBX 13 14 2 -1
BITMAP
7FF0
0630
0630
0630
0630
0630
FFF8
0300
0300
1FE0
7038
6018
7038
1FE0
ENDCHAR
STARTCHAR C031142
ENCODING 12898
SWIDTH 1600 0
DWIDTH 16 0
BBX 14 14 1 -1
BITMAP
7FF8
0618
0618
0618
0618
0618
FFFC
0180
0180
3FF8
0380
07C0
1C78
7018
ENDCHAR
STARTCHAR C031143
ENCODING 12899
SWIDTH 1600 0
DWIDTH 16 0
BBX 13 14 2 -1
BITMAP
FFD8
18D8
18D8
18D8
18D8
18D8
18D8
FFF8
0C18
0DF8
0C18
0C18
0C18
0C18
ENDCHAR
STARTCHAR C031144
ENCODING 12900
SWIDTH 1600 0
DWIDTH 16 0
BBX 13 14 2 -1
BITMAP
FFD8
18D8
18D8
18D8
18D8
FFF8
0CF8
0C18
7FF8
0018
0018
3FF8
6000
3FF8
ENDCHAR
STARTCHAR C031145
ENCODING 12901
SWIDTH 1600 0
DWIDTH 16 0
BBX 13 14 2 -1
BITMAP
FF98
1998
1998
1998
1998
FFD8
0C18
0CF8
0018
30C0
38E0
78E0
EDB0
C718
ENDCHAR
STARTCHAR C031146
ENCODING 12902
SWIDTH 1600 0
DWIDTH 16 0
BBX 13 14 2 -1
BITMAP
FFD8
18D8
18D8
18D8
18D8
FFF8
0C18
0CF8
0018
1FE0
7038
6018
7038
1FE0
ENDCHAR
STARTCHAR C031147
ENCODING 12903
SWIDTH 1600 0
DWIDTH 16 0
BBX 14 14 1 -1
BITMAP
FF6C
336C
336C
336C
336C
336C
666C
FFEC
186C
1F6C
186C
186C
186C
006C
ENDCHAR
STARTCHAR C031150
ENCODING 12904
SWIDTH 1600 0
DWIDTH 16 0
BBX 14 15 1 -1
BITMAP
006C
FF6C
336C
336C
336C
336C
FFEC
186C
1FEC
006C
3FFC
000C
000C
000C
000C
ENDCHAR
STARTCHAR C031151
ENCODING 12905
SWIDTH 1600 0
DWIDTH 16 0
BBX 14 15 2 -1
BITMAP
0018
FED8
36D8
36D8
36D8
36D8
FFD8
18D8
1FD8
18D8
00D8
3000
3000
3000
3FFC
ENDCHAR
STARTCHAR C031152
ENCODING 12906
SWIDTH 1600 0
DWIDTH 16 0
BBX 13 15 2 -1
BITMAP
0018
FED8
33D8
36D8
36D8
7FD8
18D8
1BD8
18C0
3FF8
0018
0018
3FF8
3000
3FF8
ENDCHAR
STARTCHAR C031153
ENCODING 12907
SWIDTH 1600 0
DWIDTH 16 0
BBX 14 15 1 -1
BITMAP
006C
FF6C
336C
336C
336C
37EC
FC6C
1F6C
186C
0000
1FFC
180C
180C
180C
1FFC
ENDCHAR
STARTCHAR C031154
ENCODING 12908
SWIDTH 1600 0
DWIDTH 16 0
BBX 14 15 1 -1
BITMAP
006C
FF6C
336C
336C
336C
37EC
FC6C
1F6C
186C
1800
180C
1FFC
180C
180C
1FFC
ENDCHAR
STARTCHAR C031155
ENCODING 12909
SWIDTH 1600 0
DWIDTH 16 0
BBX 14 15 2 -1
BITMAP
00D8
FED8
36D8
36D8
36D8
3FD8
F8D8
1FD8
18D8
00C0
0060
3860
38F0
6DF8
C79C
ENDCHAR
STARTCHAR C031156
ENCODING 12910
SWIDTH 1600 0
DWIDTH 16 0
BBX 13 14 2 -1
BITMAP
FFD8
18D8
18D8
18D8
18D8
18D8
18F8
FFF8
0618
0618
0618
0618
0618
0618
ENDCHAR
STARTCHAR C031157
ENCODING 12911
SWIDTH 1600 0
DWIDTH 16 0
BBX 13 14 2 -1
BITMAP
EF98
3998
1998
1998
1998
1998
FFF8
0618
0618
0618
3018
3000
3000
3FF8
ENDCHAR
STARTCHAR C031160
ENCODING 12912
SWIDTH 1600 0
DWIDTH 16 0
BBX 13 14 2 -1
BITMAP
FFD8
18D8
18D8
18D8
18D8
FFF8
0618
0618
3FF8
0018
0018
3FF8
3000
3FF8
ENDCHAR
STARTCHAR C031161
ENCODING 12913
SWIDTH 1600 0
DWIDTH 16 0
BBX 13 14 2 -1
BITMAP
FFD8
18D8
18D8
18D8
18D8
1BF8
FE18
0618
0600
3FF8
3018
3018
3018
3FF8
ENDCHAR
STARTCHAR C031162
ENCODING 12914
SWIDTH 1600 0
DWIDTH 16 0
BBX 13 14 2 -1
BITMAP
FFD8
18D8
18D8
18D8
18D8
FFF8
0618
0618
3018
3018
3FF8
3018
3018
3FF8
ENDCHAR
STARTCHAR C031163
ENCODING 12915
SWIDTH 1600 0
DWIDTH 16 0
BBX 13 15 2 -2
BITMAP
FFF0
0C30
0C30
0C30
0C30
0C30
0C30
0C30
FFF8
1860
1860
1860
1860
1860
1860
ENDCHAR
STARTCHAR C031164
ENCODING 12916
SWIDTH 1600 0
DWIDTH 16 0
BBX 13 13 2 -1
BITMAP
FFF0
0C30
0C30
0C30
0C30
0C30
0C30
0C30
0C30
0C30
1830
1860
FFF8
ENDCHAR
STARTCHAR C031165
ENCODING 12917
SWIDTH 1600 0
DWIDTH 16 0
BBX 14 14 1 -1
BITMAP
7FF8
0618
0618
0618
0618
0618
FFFC
0000
0000
7FF8
0018
0018
0018
0018
ENDCHAR
STARTCHAR C031166
ENCODING 12918
SWIDTH 1600 0
DWIDTH 16 0
BBX 14 14 1 -1
BITMAP
7FF8
0618
0618
0618
0618
0618
0618
FFFC
0000
3000
3000
3000
3000
3FFC
ENDCHAR
STARTCHAR C031167
ENCODING 12919
SWIDTH 1600 0
DWIDTH 16 0
BBX 14 14 1 -1
BITMAP
7FF8
0618
0618
0618
0618
0618
FFFC
0000
00F0
33FC
3000
31F8
318C
3EF8
ENDCHAR
STARTCHAR C031170
ENCODING 12920
SWIDTH 1600 0
DWIDTH 16 0
BBX 14 14 1 -1
BITMAP
7FF8
0618
0618
0618
0618
0618
FFFC
0000
3FF8
0018
3FF8
3000
3000
3FFC
ENDCHAR
STARTCHAR C031171
ENCODING 12921
SWIDTH 1600 0
DWIDTH 16 0
BBX 14 14 1 -1
BITMAP
7FF8
0618
0618
0618
0618
0618
FFFC
0000
3EFC
06CC
06CC
3ECC
30CC
3FF8
ENDCHAR
STARTCHAR C031172
ENCODING 12922
SWIDTH 1600 0
DWIDTH 16 0
BBX 14 14 1 -1
BITMAP
7FF8
0618
0618
0618
0618
0618
FFFC
0000
3EF0
03FC
3F00
30F8
318C
3FF8
ENDCHAR
STARTCHAR C031173
ENCODING 12923
SWIDTH 1600 0
DWIDTH 16 0
BBX 14 14 1 -1
BITMAP
7FF8
0618
0618
0618
0618
0618
FFFC
0000
0000
3FF8
3018
3018
3018
3FF8
ENDCHAR
STARTCHAR C031174
ENCODING 12924
SWIDTH 1600 0
DWIDTH 16 0
BBX 14 14 1 -1
BITMAP
7FF8
0618
0618
0618
0618
0618
FFFC
0000
3018
3018
3FF8
3018
3018
3FF8
ENDCHAR
STARTCHAR C031175
ENCODING 12925
SWIDTH 1600 0
DWIDTH 16 0
BBX 14 14 1 -1
BITMAP
7FF8
0618
0618
0618
0618
0618
0618
FFFC
0000
0180
03C0
07E0
0E70
781C
ENDCHAR
STARTCHAR C031176
ENCODING 12926
SWIDTH 1600 0
DWIDTH 16 0
BBX 14 14 1 -1
BITMAP
7FF8
0618
0618
0618
0618
0618
0618
FFFC
0000
0FF0
381C
300C
381C
0FF0
ENDCHAR
STARTCHAR C031177
ENCODING 12927
SWIDTH 1600 0
DWIDTH 16 0
BBX 0 0 0 0
BITMAP
ENDCHAR
STARTCHAR C031441
ENCODING 13089
SWIDTH 1600 0
DWIDTH 16 0
BBX 14 14 1 -1
BITMAP
7FF8
0618
0618
0618
0618
0618
FFFC
0000
3FF8
3000
3FF8
3000
3000
3FF8
ENDCHAR
STARTCHAR C031442
ENCODING 13090
SWIDTH 1600 0
DWIDTH 16 0
BBX 13 14 2 -1
BITMAP
FFD8
18D8
18D8
18D8
18D8
1998
1998
1998
3198
3318
E318
0618
0018
0018
ENDCHAR
STARTCHAR C031443
ENCODING 13091
SWIDTH 1600 0
DWIDTH 16 0
BBX 13 14 2 -1
BITMAP
FFD8
18D8
18D8
18D8
18D8
3198
E318
0618
0000
7FF8
0018
0018
0018
0018
ENDCHAR
STARTCHAR C031444
ENCODING 13092
SWIDTH 1600 0
DWIDTH 16 0
BBX 14 14 2 -1
BITMAP
FFD8
18D8
18D8
18D8
18D8
3198
6198
C718
0018
0018
3000
3000
3000
3FFC
ENDCHAR
STARTCHAR C031445
ENCODING 13093
SWIDTH 1600 0
DWIDTH 16 0
BBX 13 14 2 -1
BITMAP
FFD8
18D8
18D8
18D8
1998
3198
E718
0000
3FF8
0018
0018
3FF8
3000
3FF8
ENDCHAR
STARTCHAR C031446
ENCODING 13094
SWIDTH 1600 0
DWIDTH 16 0
BBX 13 14 2 -1
BITMAP
FFD8
18D8
18D8
18D8
3198
7198
E718
0018
3FF8
3018
3018
3018
3018
3FF8
ENDCHAR
STARTCHAR C031447
ENCODING 13095
SWIDTH 1600 0
DWIDTH 16 0
BBX 13 14 2 -1
BITMAP
FFD8
18D8
18D8
18D8
1998
3198
E718
0000
3018
3018
3FF8
3018
3018
3FF8
ENDCHAR
STARTCHAR C031450
ENCODING 13096
SWIDTH 1600 0
DWIDTH 16 0
BBX 15 14 1 -1
BITMAP
7FEC
0C6C
0C6C
0C6C
0C6C
18CC
31CC
E38C
000C
018C
03C0
03E0
0E70
781E
ENDCHAR
STARTCHAR C031451
ENCODING 13097
SWIDTH 1600 0
DWIDTH 16 0
BBX 13 14 2 -1
BITMAP
FFD8
18D8
18D8
18D8
1998
3198
E318
0618
0018
1FE0
7038
6018
7038
1FE0
ENDCHAR
STARTCHAR C031452
ENCODING 13098
SWIDTH 1600 0
DWIDTH 16 0
BBX 14 14 1 -1
BITMAP
0030
C030
C030
C030
C030
C03C
C030
C030
7FB0
0030
0030
0030
0030
0030
ENDCHAR
STARTCHAR C031453
ENCODING 13099
SWIDTH 1600 0
DWIDTH 16 0
BBX 15 14 1 -1
BITMAP
C018
C018
C018
C01E
C018
C018
FFF8
0018
0018
7FF8
0018
0018
0018
0018
ENDCHAR
STARTCHAR C031454
ENCODING 13100
SWIDTH 1600 0
DWIDTH 16 0
BBX 15 14 1 -1
BITMAP
C018
C018
C018
C01E
C018
C3F8
FE18
0018
0000
FDF8
0C18
0C18
0C18
0C18
ENDCHAR
STARTCHAR C031455
ENCODING 13101
SWIDTH 1600 0
DWIDTH 16 0
BBX 15 14 1 -1
BITMAP
C018
C018
C018
C018
C01E
C018
FFF8
0018
0018
6018
6000
6000
6000
7FF8
ENDCHAR
STARTCHAR C031456
ENCODING 13102
SWIDTH 1600 0
DWIDTH 16 0
BBX 15 14 1 -1
BITMAP
C018
C018
C018
C01E
C018
C3F8
FE18
0018
0000
7FF8
6000
6000
6000
7FF8
ENDCHAR
STARTCHAR C031457
ENCODING 13103
SWIDTH 1600 0
DWIDTH 16 0
BBX 15 14 1 -1
BITMAP
C018
C018
C018
C01E
C018
FFF8
0018
0000
7FF0
0030
7FF0
6000
6000
7FF0
ENDCHAR
STARTCHAR C031460
ENCODING 13104
SWIDTH 1600 0
DWIDTH 16 0
BBX 15 14 1 -1
BITMAP
C018
C018
C018
C01E
C018
FFF8
0018
0000
FDF8
0C18
FC18
C018
C018
FE00
ENDCHAR
STARTCHAR C031461
ENCODING 13105
SWIDTH 1600 0
DWIDTH 16 0
BBX 15 14 1 -1
BITMAP
C018
C018
C018
C01E
C018
FFF8
0018
0000
FDF8
0D98
0D98
FD98
C198
FFF8
ENDCHAR
STARTCHAR C031462
ENCODING 13106
SWIDTH 1600 0
DWIDTH 16 0
BBX 15 14 1 -1
BITMAP
C018
C018
C018
C01E
C018
C3F8
FE18
0018
0000
7FF8
6018
6018
6018
7FF8
ENDCHAR
STARTCHAR C031463
ENCODING 13107
SWIDTH 1600 0
DWIDTH 16 0
BBX 15 14 1 -1
BITMAP
C018
C018
C018
C01E
C018
FFF8
0018
0000
6018
6018
7FF8
6018
6018
7FF8
ENDCHAR
STARTCHAR C031464
ENCODING 13108
SWIDTH 1600 0
DWIDTH 16 0
BBX 15 14 1 -1
BITMAP
C018
C018
C018
C018
C01E
C018
FFF8
0018
0018
0300
0380
06C0
1C70
7038
ENDCHAR
STARTCHAR C031465
ENCODING 13109
SWIDTH 1600 0
DWIDTH 16 0
BBX 15 14 1 -1
BITMAP
C018
C018
C018
C01E
C018
C018
FFF8
0018
0018
1800
3870
3870
7CD8
C78C
ENDCHAR
STARTCHAR C031466
ENCODING 13110
SWIDTH 1600 0
DWIDTH 16 0
BBX 15 14 1 -1
BITMAP
C018
C018
C018
C01E
C018
C018
FFF8
0018
0018
1FE0
7038
6018
7038
1FE0
ENDCHAR
STARTCHAR C031467
ENCODING 13111
SWIDTH 1600 0
DWIDTH 16 0
BBX 15 14 1 -1
BITMAP
C018
C018
C018
C01E
C018
FFF8
0018
0018
0000
7FF8
0300
0780
0CC0
7878
ENDCHAR
STARTCHAR C031470
ENCODING 13112
SWIDTH 1600 0
DWIDTH 16 0
BBX 15 14 1 -1
BITMAP
C018
C018
C018
C01E
C018
FFF8
0018
0018
1F80
0000
FFF8
0700
1D80
F0F8
ENDCHAR
STARTCHAR C031471
ENCODING 13113
SWIDTH 1600 0
DWIDTH 16 0
BBX 15 14 1 -1
BITMAP
C018
C018
C018
C01E
C018
FFF8
0018
0000
7FF0
6000
6000
7FF0
6000
7FF8
ENDCHAR
STARTCHAR C031472
ENCODING 13114
SWIDTH 1600 0
DWIDTH 16 0
BBX 15 14 1 -1
BITMAP
C018
C018
C018
C01E
C018
FFF8
0018
0018
0FC0
7FF8
0000
3FF0
6030
3FF0
ENDCHAR
STARTCHAR C031473
ENCODING 13115
SWIDTH 1600 0
DWIDTH 16 0
BBX 13 14 2 -1
BITMAP
C198
C198
C198
C198
C198
C198
C1F8
C198
C198
C198
FF98
0198
0198
0198
ENDCHAR
STARTCHAR C031474
ENCODING 13116
SWIDTH 1600 0
DWIDTH 16 0
BBX 13 14 2 -1
BITMAP
C198
C198
C198
C198
C1F8
C198
FF98
0198
0018
7FF8
0018
0018
0018
0018
ENDCHAR
STARTCHAR C031475
ENCODING 13117
SWIDTH 1600 0
DWIDTH 16 0
BBX 13 14 2 -1
BITMAP
C198
C198
C198
C198
C1F8
C198
C198
FF98
0198
0198
6198
6000
6000
7FF8
ENDCHAR
STARTCHAR C031476
ENCODING 13118
SWIDTH 1600 0
DWIDTH 16 0
BBX 13 14 2 -1
BITMAP
C198
C198
C198
C1F8
C198
FF98
0198
0018
7FF8
0018
7FF8
6000
6000
7FF8
ENDCHAR
STARTCHAR C031477
ENCODING 13119
SWIDTH 1600 0
DWIDTH 16 0
BBX 13 14 2 -1
BITMAP
C198
C198
C198
C1F8
C198
C198
FF98
0198
0000
7FF8
6018
6018
6018
7FF8
ENDCHAR
STARTCHAR C031500
ENCODING 13120
SWIDTH 1600 0
DWIDTH 16 0
BBX 13 14 2 -1
BITMAP
C198
C198
C198
C1F8
C198
C198
FF98
0198
3000
3018
3FF8
3018
3018
3FF8
ENDCHAR
STARTCHAR C031501
ENCODING 13121
SWIDTH 1600 0
DWIDTH 16 0
BBX 13 14 2 -1
BITMAP
C198
C198
C198
C198
C1F8
C198
FF98
0198
0018
0300
0700
0D80
38E0
E038
ENDCHAR
STARTCHAR C031502
ENCODING 13122
SWIDTH 1600 0
DWIDTH 16 0
BBX 15 14 1 -1
BITMAP
60CC
60CC
60CC
60FC
60CC
60CC
7FCC
00CC
0000
1830
1830
1C70
3EF8
E7CE
ENDCHAR
STARTCHAR C031503
ENCODING 13123
SWIDTH 1600 0
DWIDTH 16 0
BBX 13 14 2 -1
BITMAP
C198
C198
C198
C198
C1F8
C198
FF98
0198
0018
1FE0
7038
6018
7038
1FE0
ENDCHAR
STARTCHAR C031504
ENCODING 13124
SWIDTH 1600 0
DWIDTH 16 0
BBX 14 14 2 -1
BITMAP
0060
C060
C060
C07C
C060
C060
C060
C060
C07C
C0E0
FFE0
0060
0060
0060
ENDCHAR
STARTCHAR C031505
ENCODING 13125
SWIDTH 1600 0
DWIDTH 16 0
BBX 15 14 1 -1
BITMAP
C018
C018
C01E
C018
C018
C018
FFFE
0018
0018
7FF8
0018
0018
0018
0018
ENDCHAR
STARTCHAR C031506
ENCODING 13126
SWIDTH 1600 0
DWIDTH 16 0
BBX 15 14 1 -1
BITMAP
0018
C018
C018
C01E
C018
C018
C3FE
FF18
0018
6018
6000
6000
6000
7FF8
ENDCHAR
STARTCHAR C031507
ENCODING 13127
SWIDTH 1600 0
DWIDTH 16 0
BBX 15 14 1 -1
BITMAP
C018
C018
C01E
C018
C018
FFFE
0018
0000
7FF8
0018
7FF8
6000
6000
7FF8
ENDCHAR
STARTCHAR C031510
ENCODING 13128
SWIDTH 1600 0
DWIDTH 16 0
BBX 15 14 1 -1
BITMAP
C018
C018
C01E
C018
C018
C3FE
FF18
0018
7FF8
6018
6018
6018
6018
7FF8
ENDCHAR
STARTCHAR C031511
ENCODING 13129
SWIDTH 1600 0
DWIDTH 16 0
BBX 15 14 1 -1
BITMAP
C018
C018
C01E
C018
C018
C01E
FFF8
0018
0018
1FE0
7038
6018
7038
1FE0
ENDCHAR
STARTCHAR C031512
ENCODING 13130
SWIDTH 1600 0
DWIDTH 16 0
BBX 13 14 2 -1
BITMAP
C018
C018
C018
C018
C018
C3F8
C018
C018
C018
C198
FF18
0018
0018
0018
ENDCHAR
STARTCHAR C031513
ENCODING 13131
SWIDTH 1600 0
DWIDTH 16 0
BBX 13 14 2 -1
BITMAP
C018
C018
C018
C3F8
C018
C018
EF98
3818
0018
7FF8
0018
0018
0018
0018
ENDCHAR
STARTCHAR C031514
ENCODING 13132
SWIDTH 1600 0
DWIDTH 16 0
BBX 13 14 2 -1
BITMAP
C030
C030
C030
C7F0
C030
C030
FFB0
0030
FC00
0C60
0CE0
0CF0
0DB8
0F00
ENDCHAR
STARTCHAR C031515
ENCODING 13133
SWIDTH 1600 0
DWIDTH 16 0
BBX 13 14 2 -1
BITMAP
C018
C018
C018
C3F8
C018
C018
C198
7F18
0018
0018
6000
6000
6000
7FF8
ENDCHAR
STARTCHAR C031516
ENCODING 13134
SWIDTH 1600 0
DWIDTH 16 0
BBX 13 14 2 -1
BITMAP
C018
C018
C3F8
C018
C018
C198
7F18
0000
7FF8
0018
3FF8
6000
6000
3FF8
ENDCHAR
STARTCHAR C031517
ENCODING 13135
SWIDTH 1600 0
DWIDTH 16 0
BBX 13 14 2 -1
BITMAP
C000
C018
C018
C3F8
C018
C3D8
7E18
0018
7DF8
0D98
0D98
7D98
C198
7FF8
ENDCHAR
STARTCHAR C031520
ENCODING 13136
SWIDTH 1600 0
DWIDTH 16 0
BBX 13 14 2 -1
BITMAP
C018
C018
C018
C3F8
C018
C198
7F18
0018
FD98
0DF8
0D98
FD98
C198
FFF8
ENDCHAR
STARTCHAR C031521
ENCODING 13137
SWIDTH 1600 0
DWIDTH 16 0
BBX 13 14 2 -1
BITMAP
C018
C018
C018
C1F8
C018
C018
FF98
0018
3FF8
3018
3018
3018
3018
3FF8
ENDCHAR
STARTCHAR C031522
ENCODING 13138
SWIDTH 1600 0
DWIDTH 16 0
BBX 13 14 2 -1
BITMAP
C018
C018
C018
C3F8
C018
C018
FF98
0018
3018
3018
3FF8
3018
3018
3FF8
ENDCHAR
STARTCHAR C031523
ENCODING 13139
SWIDTH 1600 0
DWIDTH 16 0
BBX 13 14 2 -1
BITMAP
C018
C018
C018
C3F8
C018
C018
C198
7F18
0018
0318
0700
0DC0
38E0
E038
ENDCHAR
STARTCHAR C031524
ENCODING 13140
SWIDTH 1600 0
DWIDTH 16 0
BBX 15 14 1 -1
BITMAP
0018
6018
6018
63F8
6018
6018
6018
7FD8
0000
1830
1830
1C70
3EF8
E7CE
ENDCHAR
STARTCHAR C031525
ENCODING 13141
SWIDTH 1600 0
DWIDTH 16 0
BBX 13 14 2 -1
BITMAP
C018
C018
C018
C3F8
C018
C018
E7D8
7C18
0018
1FE0
7038
6018
7038
1FE0
ENDCHAR
STARTCHAR C031526
ENCODING 13142
SWIDTH 1600 0
DWIDTH 16 0
BBX 13 14 2 -1
BITMAP
C018
C018
C1F8
C018
C018
C1D8
7F18
0000
1FC0
FFF8
0000
3FE0
6030
3FE0
ENDCHAR
STARTCHAR C031527
ENCODING 13143
SWIDTH 1600 0
DWIDTH 16 0
BBX 13 14 2 -1
BITMAP
C198
C198
C198
C198
C198
CF98
C198
C198
C198
C198
FD98
0198
0198
0198
ENDCHAR
STARTCHAR C031530
ENCODING 13144
SWIDTH 1600 0
DWIDTH 16 0
BBX 13 14 2 -1
BITMAP
C0D8
C0D8
C0D8
C7D8
C0D8
C0D8
EED8
38D8
00D8
7FF8
0018
0018
0018
0018
ENDCHAR
STARTCHAR C031531
ENCODING 13145
SWIDTH 1600 0
DWIDTH 16 0
BBX 13 14 2 -1
BITMAP
C0D8
C0D8
C0D8
C7D8
C0D8
C0D8
C0D8
7CD8
00D8
00D8
6000
6000
6000
7FF8
ENDCHAR
STARTCHAR C031532
ENCODING 13146
SWIDTH 1600 0
DWIDTH 16 0
BBX 13 14 2 -1
BITMAP
C018
C198
CF98
C198
C198
C198
7D98
0018
7FF8
0018
3FF8
6000
6000
3FF8
ENDCHAR
STARTCHAR C031533
ENCODING 13147
SWIDTH 1600 0
DWIDTH 16 0
BBX 13 14 2 -1
BITMAP
C018
C0D8
C0D8
C7D8
C0D8
C0D8
FED8
00D8
00C0
3FF8
3018
3018
3018
3FF8
ENDCHAR
STARTCHAR C031534
ENCODING 13148
SWIDTH 1600 0
DWIDTH 16 0
BBX 13 14 2 -1
BITMAP
C0D8
C0D8
C7D8
C0D8
C0D8
C0D8
FED8
0018
6018
6018
7FF8
6018
6018
7FF8
ENDCHAR
STARTCHAR C031535
ENCODING 13149
SWIDTH 1600 0
DWIDTH 16 0
BBX 13 14 2 -1
BITMAP
C198
C198
C198
CF98
C198
C198
C198
7D98
0198
0300
0700
0D80
38E0
E038
ENDCHAR
STARTCHAR C031536
ENCODING 13150
SWIDTH 1600 0
DWIDTH 16 0
BBX 15 14 1 -1
BITMAP
60CC
60CC
60CC
67CC
60CC
60CC
7FCC
3FCC
0000
1830
1830
1C70
3EF8
E7CE
ENDCHAR
STARTCHAR C031537
ENCODING 13151
SWIDTH 1600 0
DWIDTH 16 0
BBX 13 14 2 -1
BITMAP
C0D8
C0D8
C0D8
C7D8
C0D8
C0D8
FED8
00D8
0018
1FE0
7038
6018
7038
1FE0
ENDCHAR
STARTCHAR C031540
ENCODING 13152
SWIDTH 1600 0
DWIDTH 16 0
BBX 13 15 2 -2
BITMAP
C018
C018
C018
C3F8
C018
C018
C018
C3F8
C018
C198
FF18
0018
0018
0018
0018
ENDCHAR
STARTCHAR C031541
ENCODING 13153
SWIDTH 1600 0
DWIDTH 16 0
BBX 13 14 2 -1
BITMAP
0018
C018
C1F8
C018
C1F8
C018
C018
FF18
0000
7FF8
0018
0018
0018
0018
ENDCHAR
STARTCHAR C031542
ENCODING 13154
SWIDTH 1600 0
DWIDTH 16 0
BBX 13 14 2 -1
BITMAP
C018
C018
C1F8
C018
C018
C1F8
C018
FF18
0018
0018
6018
6000
6000
7FF8
ENDCHAR
STARTCHAR C031543
ENCODING 13155
SWIDTH 1600 0
DWIDTH 16 0
BBX 13 14 2 -1
BITMAP
C018
C018
C1F8
C018
C1F8
C018
FF18
0000
7FF8
0018
7FF8
6000
6000
7FF8
ENDCHAR
STARTCHAR C031544
ENCODING 13156
SWIDTH 1600 0
DWIDTH 16 0
BBX 13 14 2 -1
BITMAP
C018
C018
C1F8
C018
C1F8
C018
FF18
0018
0000
3FF8
3018
3018
3018
3FF8
ENDCHAR
STARTCHAR C031545
ENCODING 13157
SWIDTH 1600 0
DWIDTH 16 0
BBX 13 14 2 -1
BITMAP
C018
C018
C1F8
C018
C1F8
C018
FF18
0000
3018
3018
3FF8
3018
3018
3FF8
ENDCHAR
STARTCHAR C031546
ENCODING 13158
SWIDTH 1600 0
DWIDTH 16 0
BBX 15 14 1 -1
BITMAP
600C
600C
60FC
600C
60FC
600C
7F8C
000C
0000
1830
1830
3C70
3ED8
E38E
ENDCHAR
STARTCHAR C031547
ENCODING 13159
SWIDTH 1600 0
DWIDTH 16 0
BBX 13 14 2 -1
BITMAP
C018
C018
C1F8
C018
C1F8
C018
FF18
0018
0018
1FE0
7038
6018
7038
1FE0
ENDCHAR
STARTCHAR C031550
ENCODING 13160
SWIDTH 1600 0
DWIDTH 16 0
BBX 13 14 2 -1
BITMAP
C018
C018
C1F8
C018
C1F8
C018
FF18
0018
0000
3FF8
0018
3FF8
0018
0018
ENDCHAR
STARTCHAR C031551
ENCODING 13161
SWIDTH 1600 0
DWIDTH 16 0
BBX 13 14 2 -1
BITMAP
C198
C198
C198
CF98
C198
C198
CF98
C198
C198
C198
FD98
0198
0198
0018
ENDCHAR
STARTCHAR C031552
ENCODING 13162
SWIDTH 1600 0
DWIDTH 16 0
BBX 13 14 2 -1
BITMAP
C198
C198
CF98
C198
C198
CF98
C198
FF98
0198
6198
6180
6000
6000
7FF8
ENDCHAR
STARTCHAR C031553
ENCODING 13163
SWIDTH 1600 0
DWIDTH 16 0
BBX 14 13 1 -1
BITMAP
3000
3000
3000
3000
3000
3000
3FFC
0000
0300
0300
0300
0300
FFFC
ENDCHAR
STARTCHAR C031554
ENCODING 13164
SWIDTH 1600 0
DWIDTH 16 0
BBX 14 14 1 -1
BITMAP
3000
3000
3000
3000
3FF8
0300
0300
FFFC
0000
7FF8
0018
0018
0018
0018
ENDCHAR
STARTCHAR C031555
ENCODING 13165
SWIDTH 1600 0
DWIDTH 16 0
BBX 14 13 2 -1
BITMAP
6000
6000
6000
6000
7FF8
0300
FFFC
0000
0000
6000
6000
6000
7FF8
ENDCHAR
STARTCHAR C031556
ENCODING 13166
SWIDTH 1600 0
DWIDTH 16 0
BBX 15 14 1 -1
BITMAP
3000
3000
3000
3000
3FFC
0180
FFFE
0000
3FF8
0018
3FF8
3000
3000
3FFC
ENDCHAR
STARTCHAR C031557
ENCODING 13167
SWIDTH 1600 0
DWIDTH 16 0
BBX 14 14 2 -1
BITMAP
6000
6000
6000
6000
7FFC
0300
FFFC
0000
7DF8
0F98
0F98
7D98
6198
7EF8
ENDCHAR
STARTCHAR C031560
ENCODING 13168
SWIDTH 1600 0
DWIDTH 16 0
BBX 14 14 2 -1
BITMAP
6000
6000
6000
6000
7FF8
0300
0300
FFFC
0000
7FF0
6030
6030
6030
7FF0
ENDCHAR
STARTCHAR C031561
ENCODING 13169
SWIDTH 1600 0
DWIDTH 16 0
BBX 14 14 2 -1
BITMAP
6000
6000
6000
6000
7FF0
0300
FFFC
0000
6030
6030
7FF0
6030
6030
7FF0
ENDCHAR
STARTCHAR C031562
ENCODING 13170
SWIDTH 1600 0
DWIDTH 16 0
BBX 14 14 2 -1
BITMAP
6000
6000
6000
6000
7FF8
0300
0300
FFFC
0000
0300
0700
0D80
38E0
E038
ENDCHAR
STARTCHAR C031563
ENCODING 13171
SWIDTH 1600 0
DWIDTH 16 0
BBX 14 14 2 -1
BITMAP
6000
6000
6000
6000
7FF8
0300
0300
FFFC
0000
1FE0
7030
6018
7038
1FE0
ENDCHAR
STARTCHAR C031564
ENCODING 13172
SWIDTH 1600 0
DWIDTH 16 0
BBX 14 14 2 -1
BITMAP
6000
6000
6000
6000
7FF8
0300
0300
FFFC
0000
7FF8
1860
1860
1860
7FF8
ENDCHAR
STARTCHAR C031565
ENCODING 13173
SWIDTH 1600 0
DWIDTH 16 0
BBX 14 13 2 -1
BITMAP
6000
6000
6000
7FF8
0300
FFFC
0000
0F80
7FF8
0000
3FE0
6030
3FE0
ENDCHAR
STARTCHAR C031566
ENCODING 13174
SWIDTH 1600 0
DWIDTH 16 0
BBX 15 14 1 -1
BITMAP
0018
6018
6018
6018
6018
6018
7FDE
0C18
0C18
0C78
FFF8
0018
0018
0018
ENDCHAR
STARTCHAR C031567
ENCODING 13175
SWIDTH 1600 0
DWIDTH 16 0
BBX 15 14 1 -1
BITMAP
6018
6018
6018
6018
7FF8
061E
0618
FFF8
0018
0018
3000
3000
3000
3FFC
ENDCHAR
STARTCHAR C031570
ENCODING 13176
SWIDTH 1600 0
DWIDTH 16 0
BBX 15 14 1 -1
BITMAP
0018
6018
6018
6018
7FFE
0618
FFF8
0018
3FF8
0018
0018
3FF8
3000
3FF8
ENDCHAR
STARTCHAR C031571
ENCODING 13177
SWIDTH 1600 0
DWIDTH 16 0
BBX 15 14 1 -1
BITMAP
0018
6018
6018
6018
7FFE
0618
FEF8
FB98
0000
1800
1870
3C70
3CD8
E78C
ENDCHAR
STARTCHAR C031572
ENCODING 13178
SWIDTH 1600 0
DWIDTH 16 0
BBX 13 14 2 -1
BITMAP
6018
6018
6018
6018
6018
7FD8
0018
0618
0618
0618
FFF8
0018
0018
0018
ENDCHAR
STARTCHAR C031573
ENCODING 13179
SWIDTH 1600 0
DWIDTH 16 0
BBX 14 14 2 -1
BITMAP
6018
6018
6018
6018
7FF8
0618
0618
FFF8
0018
0018
3000
3000
3000
3FFC
ENDCHAR
STARTCHAR C031574
ENCODING 13180
SWIDTH 1600 0
DWIDTH 16 0
BBX 13 14 2 -1
BITMAP
6018
6018
6018
6018
7FD8
0618
FFF8
0018
7FF8
0018
0018
7FF8
6000
3FF8
ENDCHAR
STARTCHAR C031575
ENCODING 13181
SWIDTH 1600 0
DWIDTH 16 0
BBX 13 14 2 -1
BITMAP
0018
6018
6018
6018
7FF8
0618
FFF8
0018
0000
3FF8
3018
3018
3018
3FF8
ENDCHAR
STARTCHAR C031576
ENCODING 13182
SWIDTH 1600 0
DWIDTH 16 0
BBX 13 14 2 -1
BITMAP
6018
6018
6018
6018
7FF8
0618
FFF8
0018
0000
3018
3FF8
3018
3018
3FF8
ENDCHAR
STARTCHAR C031577
ENCODING 13183
SWIDTH 1600 0
DWIDTH 16 0
BBX 0 0 0 0
BITMAP
ENDCHAR
STARTCHAR C032041
ENCODING 13345
SWIDTH 1600 0
DWIDTH 16 0
BBX 13 14 2 -1
BITMAP
6018
6018
6018
6018
7FF8
0618
0618
FFF8
0018
0318
0380
07C0
1CE0
7038
ENDCHAR
STARTCHAR C032042
ENCODING 13346
SWIDTH 1600 0
DWIDTH 16 0
BBX 15 13 1 -1
BITMAP
3000
3000
3000
3000
3000
3000
3FFC
0000
1830
1830
1830
1830
FFFE
ENDCHAR
STARTCHAR C032043
ENCODING 13347
SWIDTH 1600 0
DWIDTH 16 0
BBX 14 14 1 -1
BITMAP
3000
3000
3000
3000
3FF8
0C60
0C60
FFFC
0000
7FF8
0018
0018
0018
0018
ENDCHAR
STARTCHAR C032044
ENCODING 13348
SWIDTH 1600 0
DWIDTH 16 0
BBX 15 13 1 -1
BITMAP
6000
6000
6000
6000
7FFC
0C60
0C60
FFFE
0000
3000
3000
3000
3FFC
ENDCHAR
STARTCHAR C032045
ENCODING 13349
SWIDTH 1600 0
DWIDTH 16 0
BBX 14 14 2 -1
BITMAP
6000
6000
6000
6000
7FF8
18E0
FFFC
0000
7FF0
0030
7FF0
6000
6000
7FF8
ENDCHAR
STARTCHAR C032046
ENCODING 13350
SWIDTH 1600 0
DWIDTH 16 0
BBX 15 14 1 -1
BITMAP
3000
3000
3000
3000
3FFC
0C60
0C60
FFFE
3018
3018
3FF8
3018
3018
3FF8
ENDCHAR
STARTCHAR C032047
ENCODING 13351
SWIDTH 1600 0
DWIDTH 16 0
BBX 15 14 1 -1
BITMAP
3000
3000
3000
3000
3FFC
0C60
0C60
FFFE
0000
0300
0380
06C0
1C60
703C
ENDCHAR
STARTCHAR C032050
ENCODING 13352
SWIDTH 1600 0
DWIDTH 16 0
BBX 15 14 1 -1
BITMAP
3000
3000
3000
3000
3FFC
0C60
0C60
FFFE
0000
0FE0
3838
3018
3838
0FE0
ENDCHAR
STARTCHAR C032051
ENCODING 13353
SWIDTH 1600 0
DWIDTH 16 0
BBX 14 14 1 -1
BITMAP
6000
6000
6000
6000
6000
3FF8
0000
0000
FFFC
0300
0300
0300
0300
0300
ENDCHAR
STARTCHAR C032052
ENCODING 13354
SWIDTH 1600 0
DWIDTH 16 0
BBX 14 14 1 -1
BITMAP
6000
6000
6000
6000
3FF8
0000
FFFC
0300
0300
7FF0
0018
0018
0018
0018
ENDCHAR
STARTCHAR C032053
ENCODING 13355
SWIDTH 1600 0
DWIDTH 16 0
BBX 14 14 1 -1
BITMAP
6000
6000
6000
6000
3FF8
0000
FFFC
0300
0300
6300
6000
6000
6000
3FF8
ENDCHAR
STARTCHAR C032054
ENCODING 13356
SWIDTH 1600 0
DWIDTH 16 0
BBX 14 14 1 -1
BITMAP
6000
6000
6000
6000
3FF8
0000
FFFC
0300
0300
7FF8
6000
6000
6000
3FF8
ENDCHAR
STARTCHAR C032055
ENCODING 13357
SWIDTH 1600 0
DWIDTH 16 0
BBX 14 14 1 -1
BITMAP
6000
6000
6000
6000
3FF8
0000
FFFC
0300
7FF0
0018
7FF8
6000
6000
3FF8
ENDCHAR
STARTCHAR C032056
ENCODING 13358
SWIDTH 1600 0
DWIDTH 16 0
BBX 14 14 1 -1
BITMAP
6000
6000
6000
6000
3FF8
0000
FFFC
0300
0300
7FF8
6018
6018
6018
3FF8
ENDCHAR
ENDFONT
